<?xml version="1.0" encoding="UTF-8"?>
<!--Generator: Apple Native CoreSVG 129-->
<!DOCTYPE svg
PUBLIC "-//W3C//DTD SVG 1.1//EN"
       "http://www.w3.org/Graphics/SVG/1.1/DTD/svg11.dtd">
<svg version="1.1" xmlns="http://www.w3.org/2000/svg" xmlns:xlink="http://www.w3.org/1999/xlink" width="3300" height="2200">
 <!--glyph: "uni1007BD.medium", point size: 100.000000, font version: "Version 16.0d9e1", template writer version: "8"-->
 <g id="Notes">
  <rect height="2200" id="artboard" style="fill:white;opacity:1" width="3300" x="0" y="0"/>
  <line id="" style="fill:none;stroke:black;opacity:1;stroke-width:0.5;" x1="263" x2="3036" y1="292" y2="292"/>
  <text style="stroke:none;fill:black;font-family:-apple-system,&quot;SF Pro Display&quot;,&quot;SF Pro Text&quot;,Helvetica,sans-serif;font-weight:bold;" transform="matrix(1 0 0 1 263 322)">Weight/Scale Variations</text>
  <text style="stroke:none;fill:black;font-family:-apple-system,&quot;SF Pro Display&quot;,&quot;SF Pro Text&quot;,Helvetica,sans-serif;text-anchor:middle;" transform="matrix(1 0 0 1 559.711 322)">Ultralight</text>
  <text style="stroke:none;fill:black;font-family:-apple-system,&quot;SF Pro Display&quot;,&quot;SF Pro Text&quot;,Helvetica,sans-serif;text-anchor:middle;" transform="matrix(1 0 0 1 856.422 322)">Thin</text>
  <text style="stroke:none;fill:black;font-family:-apple-system,&quot;SF Pro Display&quot;,&quot;SF Pro Text&quot;,Helvetica,sans-serif;text-anchor:middle;" transform="matrix(1 0 0 1 1153.13 322)">Light</text>
  <text style="stroke:none;fill:black;font-family:-apple-system,&quot;SF Pro Display&quot;,&quot;SF Pro Text&quot;,Helvetica,sans-serif;text-anchor:middle;" transform="matrix(1 0 0 1 1449.84 322)">Regular</text>
  <text style="stroke:none;fill:black;font-family:-apple-system,&quot;SF Pro Display&quot;,&quot;SF Pro Text&quot;,Helvetica,sans-serif;text-anchor:middle;" transform="matrix(1 0 0 1 1746.56 322)">Medium</text>
  <text style="stroke:none;fill:black;font-family:-apple-system,&quot;SF Pro Display&quot;,&quot;SF Pro Text&quot;,Helvetica,sans-serif;text-anchor:middle;" transform="matrix(1 0 0 1 2043.27 322)">Semibold</text>
  <text style="stroke:none;fill:black;font-family:-apple-system,&quot;SF Pro Display&quot;,&quot;SF Pro Text&quot;,Helvetica,sans-serif;text-anchor:middle;" transform="matrix(1 0 0 1 2339.98 322)">Bold</text>
  <text style="stroke:none;fill:black;font-family:-apple-system,&quot;SF Pro Display&quot;,&quot;SF Pro Text&quot;,Helvetica,sans-serif;text-anchor:middle;" transform="matrix(1 0 0 1 2636.69 322)">Heavy</text>
  <text style="stroke:none;fill:black;font-family:-apple-system,&quot;SF Pro Display&quot;,&quot;SF Pro Text&quot;,Helvetica,sans-serif;text-anchor:middle;" transform="matrix(1 0 0 1 2933.4 322)">Black</text>
  <line id="" style="fill:none;stroke:black;opacity:1;stroke-width:0.5;" x1="263" x2="3036" y1="1903" y2="1903"/>
  <g id="" transform="matrix(1 0 0 1 263 1933)">
   <path d="M 9.24805 0.830078 C 13.5547 0.830078 17.1387 -2.74414 17.1387 -7.05078 C 17.1387 -11.3574 13.5449 -14.9316 9.23828 -14.9316 C 4.94141 -14.9316 1.36719 -11.3574 1.36719 -7.05078 C 1.36719 -2.74414 4.95117 0.830078 9.24805 0.830078 Z M 9.24805 -0.654297 C 5.70312 -0.654297 2.87109 -3.49609 2.87109 -7.05078 C 2.87109 -10.6055 5.69336 -13.4473 9.23828 -13.4473 C 12.793 -13.4473 15.6348 -10.6055 15.6445 -7.05078 C 15.6543 -3.49609 12.8027 -0.654297 9.24805 -0.654297 Z M 9.22852 -3.62305 C 9.69727 -3.62305 9.9707 -3.93555 9.9707 -4.45312 L 9.9707 -6.31836 L 12.002 -6.31836 C 12.5 -6.31836 12.832 -6.57227 12.832 -7.04102 C 12.832 -7.51953 12.5195 -7.7832 12.002 -7.7832 L 9.9707 -7.7832 L 9.9707 -9.81445 C 9.9707 -10.332 9.69727 -10.6543 9.22852 -10.6543 C 8.75977 -10.6543 8.50586 -10.3125 8.50586 -9.81445 L 8.50586 -7.7832 L 6.49414 -7.7832 C 5.97656 -7.7832 5.64453 -7.51953 5.64453 -7.04102 C 5.64453 -6.57227 5.99609 -6.31836 6.49414 -6.31836 L 8.50586 -6.31836 L 8.50586 -4.45312 C 8.50586 -3.95508 8.75977 -3.62305 9.22852 -3.62305 Z"/>
  </g>
  <g id="" transform="matrix(1 0 0 1 281.506 1933)">
   <path d="M 11.709 2.91016 C 17.1582 2.91016 21.6699 -1.61133 21.6699 -7.05078 C 21.6699 -12.5 17.1484 -17.0117 11.6992 -17.0117 C 6.25977 -17.0117 1.74805 -12.5 1.74805 -7.05078 C 1.74805 -1.61133 6.26953 2.91016 11.709 2.91016 Z M 11.709 1.25 C 7.09961 1.25 3.41797 -2.44141 3.41797 -7.05078 C 3.41797 -11.6602 7.08984 -15.3516 11.6992 -15.3516 C 16.3086 -15.3516 20 -11.6602 20.0098 -7.05078 C 20.0195 -2.44141 16.3184 1.25 11.709 1.25 Z M 11.6797 -2.66602 C 12.207 -2.66602 12.5098 -3.01758 12.5098 -3.59375 L 12.5098 -6.23047 L 15.3223 -6.23047 C 15.8691 -6.23047 16.25 -6.51367 16.25 -7.03125 C 16.25 -7.55859 15.8887 -7.86133 15.3223 -7.86133 L 12.5098 -7.86133 L 12.5098 -10.6836 C 12.5098 -11.25 12.207 -11.6113 11.6797 -11.6113 C 11.1621 -11.6113 10.8789 -11.2305 10.8789 -10.6836 L 10.8789 -7.86133 L 8.07617 -7.86133 C 7.50977 -7.86133 7.13867 -7.55859 7.13867 -7.03125 C 7.13867 -6.51367 7.5293 -6.23047 8.07617 -6.23047 L 10.8789 -6.23047 L 10.8789 -3.59375 C 10.8789 -3.03711 11.1621 -2.66602 11.6797 -2.66602 Z"/>
  </g>
  <g id="" transform="matrix(1 0 0 1 304.924 1933)">
   <path d="M 14.9707 5.66406 C 21.9336 5.66406 27.6953 -0.0976562 27.6953 -7.05078 C 27.6953 -14.0137 21.9238 -19.7754 14.9609 -19.7754 C 8.00781 -19.7754 2.25586 -14.0137 2.25586 -7.05078 C 2.25586 -0.0976562 8.01758 5.66406 14.9707 5.66406 Z M 14.9707 3.84766 C 8.93555 3.84766 4.08203 -1.01562 4.08203 -7.05078 C 4.08203 -13.0957 8.92578 -17.9492 14.9609 -17.9492 C 21.0059 -17.9492 25.8594 -13.0957 25.8691 -7.05078 C 25.8789 -1.01562 21.0156 3.84766 14.9707 3.84766 Z M 14.9414 -1.38672 C 15.5176 -1.38672 15.8594 -1.77734 15.8594 -2.38281 L 15.8594 -6.13281 L 19.7754 -6.13281 C 20.3711 -6.13281 20.7812 -6.46484 20.7812 -7.02148 C 20.7812 -7.59766 20.3906 -7.93945 19.7754 -7.93945 L 15.8594 -7.93945 L 15.8594 -11.8652 C 15.8594 -12.4805 15.5176 -12.8711 14.9414 -12.8711 C 14.375 -12.8711 14.0527 -12.4609 14.0527 -11.8652 L 14.0527 -7.93945 L 10.1465 -7.93945 C 9.53125 -7.93945 9.13086 -7.59766 9.13086 -7.02148 C 9.13086 -6.46484 9.55078 -6.13281 10.1465 -6.13281 L 14.0527 -6.13281 L 14.0527 -2.38281 C 14.0527 -1.79688 14.375 -1.38672 14.9414 -1.38672 Z"/>
  </g>
  <text style="stroke:none;fill:black;font-family:-apple-system,&quot;SF Pro Display&quot;,&quot;SF Pro Text&quot;,Helvetica,sans-serif;font-weight:bold;" transform="matrix(1 0 0 1 263 1953)">Design Variations</text>
  <text style="stroke:none;fill:black;font-family:-apple-system,&quot;SF Pro Display&quot;,&quot;SF Pro Text&quot;,Helvetica,sans-serif;" transform="matrix(1 0 0 1 263 1971)">Symbols are supported in up to nine weights and three scales.</text>
  <text style="stroke:none;fill:black;font-family:-apple-system,&quot;SF Pro Display&quot;,&quot;SF Pro Text&quot;,Helvetica,sans-serif;" transform="matrix(1 0 0 1 263 1989)">For optimal layout with text and other symbols, vertically align</text>
  <text style="stroke:none;fill:black;font-family:-apple-system,&quot;SF Pro Display&quot;,&quot;SF Pro Text&quot;,Helvetica,sans-serif;" transform="matrix(1 0 0 1 263 2007)">symbols with the adjacent text.</text>
  <line id="" style="fill:none;stroke:#00AEEF;stroke-width:0.5;opacity:1.0;" x1="776" x2="776" y1="1919" y2="1933"/>
  <g id="" transform="matrix(1 0 0 1 776 1933)">
   <path d="M 3.31055 0.126953 C 3.82812 0.126953 4.08203 -0.0683594 4.26758 -0.605469 L 5.52734 -4.0625 L 11.2891 -4.0625 L 12.5488 -0.605469 C 12.7344 -0.0683594 12.9883 0.126953 13.4961 0.126953 C 14.0137 0.126953 14.3457 -0.185547 14.3457 -0.673828 C 14.3457 -0.839844 14.3164 -0.986328 14.2383 -1.20117 L 9.6582 -13.3887 C 9.43359 -13.9941 9.0332 -14.2871 8.4082 -14.2871 C 7.80273 -14.2871 7.39258 -13.9941 7.17773 -13.3984 L 2.59766 -1.19141 C 2.51953 -0.976562 2.49023 -0.830078 2.49023 -0.664062 C 2.49023 -0.175781 2.80273 0.126953 3.31055 0.126953 Z M 6.00586 -5.53711 L 8.37891 -12.1094 L 8.42773 -12.1094 L 10.8008 -5.53711 Z"/>
  </g>
  <line id="" style="fill:none;stroke:#00AEEF;stroke-width:0.5;opacity:1.0;" x1="792.836" x2="792.836" y1="1919" y2="1933"/>
  <text style="stroke:none;fill:black;font-family:-apple-system,&quot;SF Pro Display&quot;,&quot;SF Pro Text&quot;,Helvetica,sans-serif;font-weight:bold;" transform="matrix(1 0 0 1 776 1953)">Margins</text>
  <text style="stroke:none;fill:black;font-family:-apple-system,&quot;SF Pro Display&quot;,&quot;SF Pro Text&quot;,Helvetica,sans-serif;" transform="matrix(1 0 0 1 776 1971)">Leading and trailing margins on the left and right side of each symbol</text>
  <text style="stroke:none;fill:black;font-family:-apple-system,&quot;SF Pro Display&quot;,&quot;SF Pro Text&quot;,Helvetica,sans-serif;" transform="matrix(1 0 0 1 776 1989)">can be adjusted by modifying the x-location of the margin guidelines.</text>
  <text style="stroke:none;fill:black;font-family:-apple-system,&quot;SF Pro Display&quot;,&quot;SF Pro Text&quot;,Helvetica,sans-serif;" transform="matrix(1 0 0 1 776 2007)">Modifications are automatically applied proportionally to all</text>
  <text style="stroke:none;fill:black;font-family:-apple-system,&quot;SF Pro Display&quot;,&quot;SF Pro Text&quot;,Helvetica,sans-serif;" transform="matrix(1 0 0 1 776 2025)">scales and weights.</text>
  <g id="" transform="matrix(1 0 0 1 1289 1933)">
   <path d="M 2.8418 1.86523 L 4.54102 3.57422 C 5.40039 4.44336 6.38672 4.38477 7.31445 3.35938 L 17.4902 -7.85156 C 17.7539 -7.76367 18.0273 -7.7832 18.3398 -7.8418 L 19.4043 -8.03711 L 20.0684 -7.36328 L 20.0293 -6.80664 C 19.9902 -6.30859 20.1172 -5.92773 20.6055 -5.44922 L 21.3672 -4.70703 C 21.8457 -4.22852 22.4609 -4.19922 22.9297 -4.66797 L 25.8398 -7.58789 C 26.3086 -8.05664 26.2891 -8.65234 25.8105 -9.13086 L 25.0391 -9.89258 C 24.5605 -10.3711 24.1895 -10.5273 23.7109 -10.4883 L 23.1348 -10.4395 L 22.4902 -11.0742 L 22.7344 -12.1973 C 22.8613 -12.7637 22.7051 -13.2031 22.1191 -13.7891 L 19.9219 -15.9766 C 16.582 -19.2969 12.1484 -19.2188 9.25781 -16.3281 C 8.83789 -15.918 8.80859 -15.3418 9.04297 -14.9512 C 9.27734 -14.5898 9.73633 -14.3555 10.3809 -14.5215 C 11.8457 -14.8633 13.3691 -14.9219 14.7949 -13.9844 L 14.209 -12.5293 C 14.0137 -12.0508 13.9844 -11.6504 14.1113 -11.2891 L 3.04688 -0.898438 C 2.06055 0.0195312 1.98242 0.996094 2.8418 1.86523 Z M 10.752 -15.957 C 13.1836 -17.7344 16.4746 -17.4316 18.7012 -15.2051 L 21.1328 -12.793 C 21.3672 -12.5586 21.4062 -12.373 21.3379 -12.0312 L 21.0156 -10.5469 L 22.5195 -9.0625 L 23.5059 -9.12109 C 23.7598 -9.13086 23.8379 -9.11133 24.0332 -8.91602 L 24.6094 -8.33984 L 22.168 -5.89844 L 21.5918 -6.47461 C 21.3965 -6.66992 21.3672 -6.74805 21.377 -7.01172 L 21.4453 -7.98828 L 19.9512 -9.47266 L 18.4277 -9.21875 C 18.1055 -9.15039 17.959 -9.17969 17.7148 -9.41406 L 15.7129 -11.416 C 15.459 -11.6504 15.4297 -11.8164 15.5859 -12.1875 L 16.4648 -14.2773 C 14.9023 -15.7324 12.8711 -16.3574 10.8398 -15.7617 C 10.6836 -15.7227 10.625 -15.8496 10.752 -15.957 Z M 5.27344 2.30469 L 4.10156 1.14258 C 3.63281 0.683594 3.74023 0.341797 4.14062 -0.0195312 L 14.9512 -10.1953 L 16.416 -8.71094 L 6.42578 2.27539 C 6.07422 2.67578 5.74219 2.77344 5.27344 2.30469 Z"/>
  </g>
  <text style="stroke:none;fill:black;font-family:-apple-system,&quot;SF Pro Display&quot;,&quot;SF Pro Text&quot;,Helvetica,sans-serif;font-weight:bold;" transform="matrix(1 0 0 1 1289 1953)">Exporting</text>
  <text style="stroke:none;fill:black;font-family:-apple-system,&quot;SF Pro Display&quot;,&quot;SF Pro Text&quot;,Helvetica,sans-serif;" transform="matrix(1 0 0 1 1289 1971)">Symbols should be outlined when exporting to ensure the</text>
  <text style="stroke:none;fill:black;font-family:-apple-system,&quot;SF Pro Display&quot;,&quot;SF Pro Text&quot;,Helvetica,sans-serif;" transform="matrix(1 0 0 1 1289 1989)">design is preserved when submitting to Xcode.</text>
  <text id="template-version" style="stroke:none;fill:black;font-family:-apple-system,&quot;SF Pro Display&quot;,&quot;SF Pro Text&quot;,Helvetica,sans-serif;text-anchor:end;" transform="matrix(1 0 0 1 3036 1933)">Template v.2.0</text>
  <text style="stroke:none;fill:black;font-family:-apple-system,&quot;SF Pro Display&quot;,&quot;SF Pro Text&quot;,Helvetica,sans-serif;text-anchor:end;" transform="matrix(1 0 0 1 3036 1951)">Requires Xcode 12 or greater</text>
  <text style="stroke:none;fill:black;font-family:-apple-system,&quot;SF Pro Display&quot;,&quot;SF Pro Text&quot;,Helvetica,sans-serif;text-anchor:end;" transform="matrix(1 0 0 1 3036 1969)">Generated from bolt.heart</text>
  <text style="stroke:none;fill:black;font-family:-apple-system,&quot;SF Pro Display&quot;,&quot;SF Pro Text&quot;,Helvetica,sans-serif;text-anchor:end;" transform="matrix(1 0 0 1 3036 1987)">Typeset at 100 points</text>
  <text style="stroke:none;fill:black;font-family:-apple-system,&quot;SF Pro Display&quot;,&quot;SF Pro Text&quot;,Helvetica,sans-serif;" transform="matrix(1 0 0 1 263 726)">Small</text>
  <text style="stroke:none;fill:black;font-family:-apple-system,&quot;SF Pro Display&quot;,&quot;SF Pro Text&quot;,Helvetica,sans-serif;" transform="matrix(1 0 0 1 263 1156)">Medium</text>
  <text style="stroke:none;fill:black;font-family:-apple-system,&quot;SF Pro Display&quot;,&quot;SF Pro Text&quot;,Helvetica,sans-serif;" transform="matrix(1 0 0 1 263 1586)">Large</text>
 </g>
 <g id="Guides">
  <g id="H-reference" style="fill:#27AAE1;stroke:none;" transform="matrix(1 0 0 1 339 696)">
   <path d="M 0.976562 0 L 3.66211 0 L 12.9883 -24.4629 L 45.7031 -24.4629 L 55.0781 0 L 57.7148 0 L 30.6152 -70.459 L 28.125 -70.459 Z M 29.2969 -67.1387 L 29.3945 -67.1387 L 44.873 -26.709 L 13.8672 -26.709 Z"/>
  </g>
  <line id="Baseline-S" style="fill:none;stroke:#27AAE1;opacity:1;stroke-width:0.5;" x1="263" x2="3036" y1="696" y2="696"/>
  <line id="Capline-S" style="fill:none;stroke:#27AAE1;opacity:1;stroke-width:0.5;" x1="263" x2="3036" y1="625.541" y2="625.541"/>
  <g id="H-reference" style="fill:#27AAE1;stroke:none;" transform="matrix(1 0 0 1 339 1126)">
   <path d="M 0.976562 0 L 3.66211 0 L 12.9883 -24.4629 L 45.7031 -24.4629 L 55.0781 0 L 57.7148 0 L 30.6152 -70.459 L 28.125 -70.459 Z M 29.2969 -67.1387 L 29.3945 -67.1387 L 44.873 -26.709 L 13.8672 -26.709 Z"/>
  </g>
  <line id="Baseline-M" style="fill:none;stroke:#27AAE1;opacity:1;stroke-width:0.5;" x1="263" x2="3036" y1="1126" y2="1126"/>
  <line id="Capline-M" style="fill:none;stroke:#27AAE1;opacity:1;stroke-width:0.5;" x1="263" x2="3036" y1="1055.54" y2="1055.54"/>
  <g id="H-reference" style="fill:#27AAE1;stroke:none;" transform="matrix(1 0 0 1 339 1556)">
   <path d="M 0.976562 0 L 3.66211 0 L 12.9883 -24.4629 L 45.7031 -24.4629 L 55.0781 0 L 57.7148 0 L 30.6152 -70.459 L 28.125 -70.459 Z M 29.2969 -67.1387 L 29.3945 -67.1387 L 44.873 -26.709 L 13.8672 -26.709 Z"/>
  </g>
  <line id="Baseline-L" style="fill:none;stroke:#27AAE1;opacity:1;stroke-width:0.5;" x1="263" x2="3036" y1="1556" y2="1556"/>
  <line id="Capline-L" style="fill:none;stroke:#27AAE1;opacity:1;stroke-width:0.5;" x1="263" x2="3036" y1="1485.54" y2="1485.54"/>
  <line id="left-margin" style="fill:none;stroke:#00AEEF;stroke-width:0.5;opacity:1.0;" x1="1389.3" x2="1389.3" y1="1030.79" y2="1150.12"/>
  <line id="right-margin" style="fill:none;stroke:#00AEEF;stroke-width:0.5;opacity:1.0;" x1="1510.39" x2="1510.39" y1="1030.79" y2="1150.12"/>
 </g>
 <g id="Symbols">
  <g id="Black-L" transform="matrix(1 0 0 1 2851.54 1556)">
   <path d="M 14.3555 -52.5879 C 14.3555 -25.293 37.1582 2.00195 71.5332 24.707 C 75.3418 27.2461 79.248 29.5898 81.8359 29.5898 C 84.4727 29.5898 88.3789 27.2461 92.1875 24.707 C 126.562 2.00195 149.365 -25.293 149.365 -52.5879 C 149.365 -78.9062 130.957 -96.1426 109.57 -96.1426 C 96.4844 -96.1426 87.3535 -90.7715 81.8359 -83.252 C 76.416 -90.7715 67.2363 -96.1426 54.1504 -96.1426 C 32.7637 -96.1426 14.3555 -78.9062 14.3555 -52.5879 Z M 36.1328 -52.832 C 36.1328 -66.1133 45.3613 -75.3418 57.5684 -75.3418 C 67.3828 -75.3418 72.4121 -70.0195 76.0742 -65.0879 C 77.9785 -62.4512 79.6387 -61.1816 81.8359 -61.1816 C 84.082 -61.1816 85.5957 -62.4512 87.5977 -65.0879 C 91.5527 -70.0195 96.3379 -75.3418 106.152 -75.3418 C 118.359 -75.3418 127.588 -66.1133 127.588 -52.832 C 127.588 -34.4238 109.521 -11.9141 82.7148 5.95703 C 82.373 6.20117 82.0801 6.34766 81.8359 6.34766 C 81.6406 6.34766 81.3477 6.20117 81.0059 5.95703 C 54.1992 -11.9141 36.1328 -34.4238 36.1328 -52.832 Z M 63.5742 -29.3945 C 63.5742 -27.832 64.7949 -26.709 66.3574 -26.709 L 79.834 -26.709 L 72.6562 -8.05664 C 71.3379 -4.39453 75.293 -2.29492 77.7832 -5.22461 L 101.025 -33.3496 C 101.611 -33.9355 101.953 -34.7656 101.953 -35.498 C 101.953 -37.0117 100.684 -38.1836 99.1699 -38.1836 L 85.6445 -38.1836 L 92.8223 -56.8359 C 94.1895 -60.4492 90.2344 -62.5977 87.793 -59.6191 L 64.4531 -31.543 C 63.916 -30.9082 63.5742 -30.127 63.5742 -29.3945 Z"/>
  </g>
  <g id="Heavy-L" transform="matrix(1 0 0 1 2555.98 1556)">
   <path d="M 14.5508 -52.7344 C 14.5508 -25.6348 37.3535 1.36719 71.8262 24.0234 C 75 26.1719 78.418 28.125 80.7129 28.125 C 83.0078 28.125 86.377 26.1719 89.5996 24.0234 C 124.072 1.36719 146.875 -25.6348 146.875 -52.7344 C 146.875 -77.9297 129.248 -94.8242 108.203 -94.8242 C 95.459 -94.8242 86.1816 -89.3555 80.7129 -81.4941 C 75.2441 -89.3066 65.918 -94.8242 53.2227 -94.8242 C 32.1777 -94.8242 14.5508 -77.9297 14.5508 -52.7344 Z M 33.2031 -52.8809 C 33.2031 -67.0898 42.9199 -76.8555 55.8105 -76.8555 C 66.0645 -76.8555 71.582 -71.0449 75.3906 -65.6738 C 77.1973 -63.1348 78.7109 -62.0117 80.7129 -62.0117 C 82.7148 -62.0117 84.082 -63.1836 85.9863 -65.6738 C 90.0391 -71.0449 95.3613 -76.8555 105.615 -76.8555 C 118.506 -76.8555 128.223 -67.0898 128.223 -52.8809 C 128.223 -33.252 108.545 -10.1562 81.6406 7.76367 C 81.25 8.05664 80.957 8.20312 80.7129 8.20312 C 80.4688 8.20312 80.1758 8.05664 79.7852 7.76367 C 52.832 -10.1562 33.2031 -33.252 33.2031 -52.8809 Z M 62.0605 -28.8086 C 62.0605 -27.3926 63.1836 -26.3672 64.6484 -26.3672 L 78.7109 -26.3672 L 71.1914 -6.68945 C 69.9219 -3.27148 73.6328 -1.26953 75.9766 -4.05273 L 99.8047 -33.1543 C 100.342 -33.7402 100.635 -34.4727 100.635 -35.2051 C 100.635 -36.6211 99.4629 -37.6465 98.0957 -37.6465 L 83.9844 -37.6465 L 91.5039 -57.3242 C 92.7734 -60.7422 89.0625 -62.7441 86.7676 -59.9609 L 62.8906 -30.8594 C 62.3535 -30.2246 62.0605 -29.541 62.0605 -28.8086 Z"/>
  </g>
  <g id="Bold-L" transform="matrix(1 0 0 1 2260.56 1556)">
   <path d="M 14.7461 -52.8809 C 14.7461 -25.9766 37.5488 0.683594 72.168 23.291 C 74.707 24.9512 77.4902 26.5137 79.3945 26.5137 C 81.2988 26.5137 84.1309 24.9512 86.6211 23.291 C 121.289 0.683594 144.092 -25.9766 144.092 -52.8809 C 144.092 -76.9043 127.344 -93.3105 106.641 -93.3105 C 94.3359 -93.3105 84.9121 -87.7441 79.3945 -79.541 C 73.9258 -87.6953 64.4531 -93.3105 52.1973 -93.3105 C 31.4453 -93.3105 14.7461 -76.9043 14.7461 -52.8809 Z M 29.9316 -52.9785 C 29.9316 -68.1641 40.1855 -78.5645 53.8574 -78.5645 C 64.6484 -78.5645 70.6543 -72.2656 74.6094 -66.3574 C 76.3184 -63.916 77.6367 -62.9395 79.3945 -62.9395 C 81.2012 -62.9395 82.373 -63.916 84.1797 -66.3574 C 88.3789 -72.2168 94.2383 -78.5645 104.98 -78.5645 C 118.652 -78.5645 128.857 -68.1641 128.857 -52.9785 C 128.857 -31.9824 107.471 -8.20312 80.4199 9.81445 C 79.9805 10.1562 79.6387 10.3516 79.3945 10.3516 C 79.1504 10.3516 78.8574 10.1562 78.418 9.81445 C 51.3184 -8.20312 29.9316 -31.9824 29.9316 -52.9785 Z M 60.3516 -28.1738 C 60.3516 -26.9043 61.377 -25.9766 62.6953 -25.9766 L 77.3926 -25.9766 L 69.5312 -5.17578 C 68.3594 -1.95312 71.7773 -0.146484 73.9258 -2.7832 L 98.3887 -32.9102 C 98.9258 -33.4961 99.2188 -34.2285 99.2188 -34.8633 C 99.2188 -36.1328 98.1445 -37.1094 96.8262 -37.1094 L 82.1289 -37.1094 L 89.9902 -57.8613 C 91.2109 -61.084 87.7441 -62.8906 85.6445 -60.3027 L 61.1328 -30.127 C 60.6445 -29.4922 60.3516 -28.8574 60.3516 -28.1738 Z"/>
  </g>
  <g id="Semibold-L" transform="matrix(1 0 0 1 1964.75 1556)">
   <path d="M 14.8926 -52.9785 C 14.8926 -26.2207 37.6465 0.195312 72.4121 22.8027 C 74.4629 24.1211 76.8555 25.3906 78.5156 25.3906 C 80.1758 25.3906 82.5684 24.1211 84.6191 22.8027 C 119.385 0.195312 142.139 -26.2207 142.139 -52.9785 C 142.139 -76.1719 126.074 -92.2363 105.566 -92.2363 C 93.5547 -92.2363 84.0332 -86.6211 78.5156 -78.1738 C 73.0469 -86.5723 63.4766 -92.2363 51.4648 -92.2363 C 30.957 -92.2363 14.8926 -76.1719 14.8926 -52.9785 Z M 27.6855 -53.0273 C 27.6855 -68.8965 38.2812 -79.7363 52.4902 -79.7363 C 63.623 -79.7363 70.0195 -73.0469 74.1211 -66.7969 C 75.7324 -64.4043 76.9043 -63.5742 78.5156 -63.5742 C 80.127 -63.5742 81.2012 -64.4531 82.9102 -66.7969 C 87.207 -72.998 93.457 -79.7363 104.541 -79.7363 C 118.75 -79.7363 129.346 -68.8965 129.346 -53.0273 C 129.346 -31.1035 106.738 -6.83594 79.5898 11.2305 C 79.1016 11.5723 78.7598 11.8164 78.5156 11.8164 C 78.2715 11.8164 77.9297 11.5723 77.4414 11.2305 C 50.293 -6.83594 27.6855 -31.1035 27.6855 -53.0273 Z M 59.1797 -27.7344 C 59.1797 -26.5625 60.1074 -25.6836 61.377 -25.6836 L 76.5137 -25.6836 L 68.4082 -4.15039 C 67.2363 -1.07422 70.5078 0.634766 72.5098 -1.85547 L 97.4121 -32.7637 C 97.9492 -33.3496 98.2422 -34.0332 98.2422 -34.6191 C 98.2422 -35.8398 97.2168 -36.7188 95.9961 -36.7188 L 80.8594 -36.7188 L 88.9648 -58.252 C 90.0879 -61.2793 86.8652 -62.9883 84.8633 -60.498 L 59.9121 -29.5898 C 59.4238 -28.9551 59.1797 -28.3691 59.1797 -27.7344 Z"/>
  </g>
  <g id="Medium-L" transform="matrix(1 0 0 1 1668.72 1556)">
   <path d="M 14.9902 -53.0273 C 14.9902 -26.3672 37.793 -0.146484 72.6074 22.4121 C 74.2676 23.4863 76.3672 24.5117 77.832 24.5117 C 79.2969 24.5117 81.3965 23.4863 83.1055 22.4121 C 117.92 -0.146484 140.674 -26.3672 140.674 -53.0273 C 140.674 -75.6348 125.098 -91.4551 104.785 -91.4551 C 92.9688 -91.4551 83.3496 -85.791 77.832 -77.1484 C 72.3633 -85.7422 62.6953 -91.4551 50.9277 -91.4551 C 30.6152 -91.4551 14.9902 -75.6348 14.9902 -53.0273 Z M 26.0254 -53.0762 C 26.0254 -69.4824 36.8652 -80.6152 51.4648 -80.6152 C 62.8418 -80.6152 69.5801 -73.6816 73.6816 -67.1387 C 75.2441 -64.8438 76.3184 -64.0625 77.832 -64.0625 C 79.3457 -64.0625 80.3223 -64.8926 81.9824 -67.1387 C 86.3281 -73.584 92.8711 -80.6152 104.248 -80.6152 C 118.848 -80.6152 129.688 -69.4824 129.688 -53.0762 C 129.688 -30.4199 106.201 -5.81055 78.9551 12.3047 C 78.4668 12.6465 78.0762 12.8906 77.832 12.8906 C 77.5879 12.8906 77.2461 12.6465 76.709 12.3047 C 49.5117 -5.81055 26.0254 -30.4199 26.0254 -53.0762 Z M 58.252 -27.3926 C 58.252 -26.2695 59.1797 -25.4883 60.3516 -25.4883 L 75.8301 -25.4883 L 67.5293 -3.32031 C 66.4062 -0.390625 69.5312 1.2207 71.4844 -1.17188 L 96.6797 -32.666 C 97.168 -33.252 97.4609 -33.8867 97.4609 -34.4727 C 97.4609 -35.5957 96.4844 -36.4258 95.3613 -36.4258 L 79.8828 -36.4258 L 88.1836 -58.5449 C 89.2578 -61.4746 86.1816 -63.0859 84.2773 -60.6934 L 58.9844 -29.1992 C 58.5449 -28.6133 58.252 -28.0273 58.252 -27.3926 Z"/>
  </g>
  <g id="Regular-L" transform="matrix(1 0 0 1 1372.89 1556)">
   <path d="M 15.1367 -53.125 C 15.1367 -26.6113 37.8906 -0.634766 72.8516 21.875 C 74.0723 22.6562 75.7812 23.4375 76.9531 23.4375 C 78.1738 23.4375 79.8828 22.6562 81.1035 21.875 C 116.016 -0.634766 138.77 -26.6113 138.77 -53.125 C 138.77 -74.9023 123.779 -90.4297 103.711 -90.4297 C 92.2363 -90.4297 82.4707 -84.668 76.9531 -75.8301 C 71.4844 -84.6191 61.7188 -90.4297 50.1953 -90.4297 C 30.127 -90.4297 15.1367 -74.9023 15.1367 -53.125 Z M 23.7793 -53.125 C 23.7793 -70.2148 34.9609 -81.7871 50.0977 -81.7871 C 61.8652 -81.7871 68.9453 -74.4629 73.1934 -67.5781 C 74.6582 -65.332 75.6348 -64.6484 76.9531 -64.6484 C 78.3203 -64.6484 79.1504 -65.3809 80.7617 -67.5781 C 85.2051 -74.3652 92.0898 -81.7871 103.809 -81.7871 C 118.945 -81.7871 130.127 -70.2148 130.127 -53.125 C 130.127 -29.541 105.42 -4.44336 78.125 13.7207 C 77.5879 14.0625 77.1973 14.3555 76.9531 14.3555 C 76.709 14.3555 76.3184 14.0625 75.7812 13.7207 C 48.4863 -4.44336 23.7793 -29.541 23.7793 -53.125 Z M 57.0801 -27.002 C 57.0801 -25.9277 57.959 -25.1953 59.0332 -25.1953 L 74.9512 -25.1953 L 66.4062 -2.29492 C 65.332 0.488281 68.3105 1.95312 70.0684 -0.292969 L 95.7031 -32.5195 C 96.1914 -33.1055 96.4844 -33.6914 96.4844 -34.2285 C 96.4844 -35.2539 95.6055 -36.0352 94.5312 -36.0352 L 78.6621 -36.0352 L 87.1582 -58.9355 C 88.1836 -61.6699 85.2539 -63.1836 83.4961 -60.9375 L 57.8125 -28.7109 C 57.373 -28.0762 57.0801 -27.5391 57.0801 -27.002 Z"/>
  </g>
  <g id="Light-L" transform="matrix(1 0 0 1 1077.74 1556)">
   <path d="M 14.5996 -53.125 C 14.5996 -27.0996 37.7441 -1.66016 71.875 20.6543 C 72.9004 21.2891 74.3652 21.9238 75.3906 21.9238 C 76.4648 21.9238 77.8809 21.2891 78.9062 20.6543 C 113.037 -1.66016 136.23 -27.0996 136.23 -53.125 C 136.23 -74.2676 121.631 -89.4043 102.051 -89.4043 C 90.7715 -89.4043 80.6641 -83.3984 75.3906 -74.0723 C 70.166 -83.3496 60.0098 -89.4043 48.7793 -89.4043 C 29.1992 -89.4043 14.5996 -74.2676 14.5996 -53.125 Z M 21.1914 -53.125 C 21.1914 -70.7031 32.8613 -82.7637 48.6816 -82.7637 C 60.3516 -82.7637 67.8223 -75.5859 72.2656 -67.9199 C 73.4375 -66.0645 74.2676 -65.4785 75.3906 -65.4785 C 76.5625 -65.4785 77.2949 -66.1133 78.5156 -67.9199 C 83.1055 -75.5371 90.4785 -82.7637 102.1 -82.7637 C 117.92 -82.7637 129.59 -70.7031 129.59 -53.125 C 129.59 -29.3945 104.98 -4.54102 76.416 14.502 C 75.9766 14.7949 75.6348 14.9902 75.3906 14.9902 C 75.1465 14.9902 74.8047 14.7949 74.4141 14.502 C 45.8008 -4.54102 21.1914 -29.3945 21.1914 -53.125 Z M 55.6152 -26.7578 C 55.6152 -25.8301 56.3477 -25.2441 57.2754 -25.2441 L 73.584 -25.2441 L 64.7949 -1.5625 C 63.8184 0.878906 66.4062 2.19727 68.0176 0.195312 L 94.2871 -32.8125 C 94.7266 -33.3496 95.0195 -33.8867 95.0195 -34.375 C 95.0195 -35.2539 94.2383 -35.9375 93.2617 -35.9375 L 77.002 -35.9375 L 85.791 -59.5703 C 86.6699 -62.0117 84.1309 -63.3301 82.5195 -61.3281 L 56.25 -28.3203 C 55.8105 -27.7344 55.6152 -27.2461 55.6152 -26.7578 Z"/>
  </g>
  <g id="Thin-L" transform="matrix(1 0 0 1 783.082 1556)">
   <path d="M 13.8672 -53.125 C 13.8672 -27.7832 37.5488 -2.97852 70.6055 18.9941 C 71.4355 19.4824 72.4609 19.9219 73.3398 19.9219 C 74.1699 19.9219 75.2441 19.4824 76.0254 18.9941 C 109.131 -2.97852 132.812 -27.7832 132.812 -53.125 C 132.812 -73.4375 118.75 -88.0371 99.8535 -88.0371 C 88.916 -88.0371 78.2715 -81.7383 73.3398 -71.8262 C 68.4082 -81.6895 57.7637 -88.0371 46.8262 -88.0371 C 27.9297 -88.0371 13.8672 -73.4375 13.8672 -53.125 Z M 17.8223 -53.125 C 17.8223 -71.3867 30.0781 -84.1309 46.8262 -84.1309 C 58.3008 -84.1309 66.3574 -77.0996 71.0938 -68.3594 C 71.8262 -67.041 72.4609 -66.5039 73.3398 -66.5039 C 74.2188 -66.5039 74.8047 -67.041 75.5859 -68.3594 C 80.3711 -77.0996 88.3789 -84.1309 99.8535 -84.1309 C 116.553 -84.1309 128.857 -71.3867 128.857 -53.125 C 128.857 -29.1992 104.395 -4.6875 74.1211 15.5273 C 73.8281 15.7227 73.584 15.8691 73.3398 15.8691 C 73.0957 15.8691 72.8516 15.7227 72.5586 15.5273 C 42.2852 -4.6875 17.8223 -29.1992 17.8223 -53.125 Z M 53.6133 -26.416 C 53.6133 -25.7324 54.1992 -25.293 54.9805 -25.293 L 71.8262 -25.293 L 62.6465 -0.634766 C 61.8164 1.41602 63.9648 2.53906 65.332 0.830078 L 92.3828 -33.1543 C 92.7734 -33.7402 93.0176 -34.1309 93.0176 -34.5703 C 93.0176 -35.2539 92.4316 -35.791 91.6504 -35.791 L 74.8047 -35.791 L 83.9844 -60.4004 C 84.7168 -62.4023 82.6172 -63.5254 81.25 -61.8164 L 54.1992 -27.832 C 53.8086 -27.2461 53.6133 -26.8555 53.6133 -26.416 Z"/>
  </g>
  <g id="Ultralight-L" transform="matrix(1 0 0 1 487.421 1556)">
   <path d="M 13.5254 -53.125 C 13.5254 -28.125 37.4512 -3.66211 69.9707 18.1152 C 70.6543 18.5547 71.5332 18.9453 72.2656 18.9453 C 73.0469 18.9453 73.9258 18.5547 74.5605 18.1152 C 107.129 -3.66211 131.055 -28.125 131.055 -53.125 C 131.055 -72.998 117.285 -87.3535 98.6816 -87.3535 C 87.9395 -87.3535 77.002 -80.8594 72.2656 -70.6543 C 67.5293 -80.8594 56.6406 -87.3535 45.8496 -87.3535 C 27.2949 -87.3535 13.5254 -72.998 13.5254 -53.125 Z M 16.0645 -53.125 C 16.0645 -71.6797 28.6621 -84.8145 45.8496 -84.8145 C 57.2266 -84.8145 65.5762 -77.8809 70.5078 -68.6035 C 71.0449 -67.5293 71.5332 -67.041 72.2656 -67.041 C 72.998 -67.041 73.5352 -67.5293 74.0723 -68.6035 C 78.9551 -77.8809 87.3047 -84.8145 98.6816 -84.8145 C 115.869 -84.8145 128.516 -71.6797 128.516 -53.125 C 128.516 -29.1016 104.102 -4.73633 72.9492 16.0645 C 72.7539 16.2109 72.5098 16.3574 72.2656 16.3574 C 72.0215 16.3574 71.8262 16.2109 71.6309 16.0645 C 40.4785 -4.73633 16.0645 -29.1016 16.0645 -53.125 Z M 52.5879 -26.2695 C 52.5879 -25.6836 53.125 -25.293 53.8086 -25.293 L 70.8984 -25.293 L 61.5723 -0.146484 C 60.791 1.70898 62.6953 2.68555 63.916 1.17188 L 91.4062 -33.3496 C 91.7969 -33.9355 91.9922 -34.2773 91.9922 -34.668 C 91.9922 -35.2539 91.5039 -35.6934 90.8203 -35.6934 L 73.6816 -35.6934 L 83.0566 -60.791 C 83.7402 -62.6465 81.8359 -63.623 80.6152 -62.1094 L 53.125 -27.5879 C 52.7344 -27.0508 52.5879 -26.6602 52.5879 -26.2695 Z"/>
  </g>
  <g id="Black-M" transform="matrix(1 0 0 1 2869.26 1126)">
   <path d="M 10.5469 -48.5352 C 10.5469 -27.3926 28.4668 -6.05469 54.4434 11.4258 C 58.1055 13.916 61.7188 16.2109 64.1113 16.2109 C 66.5039 16.2109 70.1172 13.916 73.7793 11.4258 C 99.8047 -6.05469 117.725 -27.3926 117.725 -48.5352 C 117.725 -69.9707 102.539 -83.7402 85.8398 -83.7402 C 75.3418 -83.7402 68.2129 -79.541 64.1113 -73.877 C 60.0098 -79.541 52.9297 -83.7402 42.4316 -83.7402 C 25.6836 -83.7402 10.5469 -69.9707 10.5469 -48.5352 Z M 30.5176 -48.7793 C 30.5176 -58.1055 37.3047 -64.7949 46.1914 -64.7949 C 53.125 -64.7949 56.543 -61.377 59.375 -57.7637 C 60.791 -55.7617 62.2559 -54.6387 64.1113 -54.6387 C 66.0156 -54.6387 67.334 -55.7617 68.7988 -57.7637 C 71.8262 -61.4258 75.1465 -64.7949 82.0801 -64.7949 C 90.918 -64.7949 97.7539 -58.1055 97.7539 -48.7793 C 97.7539 -36.084 85.8887 -19.5801 64.5996 -5.37109 C 64.4531 -5.27344 64.3066 -5.22461 64.1113 -5.22461 C 63.916 -5.22461 63.8184 -5.27344 63.623 -5.37109 C 42.334 -19.5801 30.5176 -36.084 30.5176 -48.7793 Z M 50.5371 -31.3477 C 50.5371 -30.0781 51.5625 -29.1504 52.8809 -29.1504 L 62.7441 -29.1504 L 57.4707 -15.625 C 56.3965 -12.6953 59.5703 -10.9375 61.6211 -13.3301 L 79.248 -34.1797 C 79.6875 -34.668 79.9316 -35.3027 79.9316 -35.9375 C 79.9316 -37.1582 78.9551 -38.1348 77.6855 -38.1348 L 67.7734 -38.1348 L 73.0469 -51.6113 C 74.1699 -54.541 70.8984 -56.2988 68.8965 -53.9551 L 51.2207 -33.0566 C 50.7812 -32.5684 50.5371 -31.9336 50.5371 -31.3477 Z"/>
  </g>
  <g id="Heavy-M" transform="matrix(1 0 0 1 2573.41 1126)">
   <path d="M 10.8887 -48.6816 C 10.8887 -27.5879 28.7109 -6.49414 55.0781 11.0352 C 58.1055 13.0859 61.2305 14.9902 63.2812 14.9902 C 65.332 14.9902 68.457 13.0859 71.4844 11.0352 C 97.8516 -6.49414 115.674 -27.5879 115.674 -48.6816 C 115.674 -69.1406 101.27 -82.5195 84.7656 -82.5195 C 74.6094 -82.5195 67.4805 -78.3203 63.2812 -72.4121 C 59.1309 -78.3203 51.9531 -82.5195 41.7969 -82.5195 C 25.293 -82.5195 10.8887 -69.1406 10.8887 -48.6816 Z M 27.9785 -48.877 C 27.9785 -59.0332 35.2051 -66.2109 44.6289 -66.2109 C 52.0996 -66.2109 55.957 -62.207 58.8867 -58.3496 C 60.2539 -56.3477 61.5723 -55.3223 63.2812 -55.3223 C 64.9902 -55.3223 66.1621 -56.3477 67.6758 -58.3496 C 70.7031 -62.2559 74.4629 -66.2109 81.9336 -66.2109 C 91.3574 -66.2109 98.584 -59.0332 98.584 -48.877 C 98.584 -34.8633 84.9609 -17.627 63.8672 -3.56445 C 63.623 -3.41797 63.4766 -3.32031 63.2812 -3.32031 C 63.0859 -3.32031 62.9395 -3.41797 62.6953 -3.56445 C 41.6016 -17.627 27.9785 -34.8633 27.9785 -48.877 Z M 49.2676 -30.7617 C 49.2676 -29.5898 50.1953 -28.7109 51.416 -28.7109 L 61.8164 -28.7109 L 56.25 -14.3066 C 55.2246 -11.5234 58.252 -9.91211 60.2051 -12.1582 L 78.2227 -33.8867 C 78.6621 -34.375 78.9062 -34.9609 78.9062 -35.5469 C 78.9062 -36.7188 77.9785 -37.5977 76.8066 -37.5977 L 66.3574 -37.5977 L 71.9238 -52.002 C 72.998 -54.7852 69.9219 -56.4453 68.0176 -54.1504 L 49.9023 -32.4219 C 49.5117 -31.9336 49.2676 -31.3477 49.2676 -30.7617 Z"/>
  </g>
  <g id="Bold-M" transform="matrix(1 0 0 1 2277.65 1126)">
   <path d="M 11.3281 -48.8281 C 11.3281 -27.832 28.9551 -6.93359 55.7129 10.5957 C 58.1055 12.1582 60.6445 13.623 62.3535 13.623 C 64.0625 13.623 66.6016 12.1582 68.9453 10.5957 C 95.7031 -6.93359 113.379 -27.832 113.379 -48.8281 C 113.379 -68.1641 99.8535 -81.1523 83.5938 -81.1523 C 73.8281 -81.1523 66.6016 -76.9043 62.3535 -70.8008 C 58.1055 -76.9043 50.8789 -81.1523 41.0645 -81.1523 C 24.8047 -81.1523 11.3281 -68.1641 11.3281 -48.8281 Z M 25.1953 -48.9258 C 25.1953 -60.0586 32.8125 -67.7734 42.9199 -67.7734 C 50.9766 -67.7734 55.3223 -63.1836 58.3008 -58.9355 C 59.668 -56.9824 60.8398 -56.1035 62.3535 -56.1035 C 63.8672 -56.1035 64.8926 -56.9824 66.3574 -58.9355 C 69.5312 -63.1836 73.7305 -67.7734 81.7383 -67.7734 C 91.8457 -67.7734 99.4629 -60.0586 99.4629 -48.9258 C 99.4629 -33.4961 83.9355 -15.4297 63.0859 -1.5625 C 62.7441 -1.36719 62.5488 -1.2207 62.3535 -1.2207 C 62.1582 -1.2207 61.9141 -1.36719 61.6211 -1.5625 C 40.7227 -15.4297 25.1953 -33.4961 25.1953 -48.9258 Z M 47.8027 -30.127 C 47.8027 -29.1016 48.6816 -28.2715 49.8047 -28.2715 L 60.791 -28.2715 L 54.9316 -12.8906 C 53.9551 -10.2539 56.7871 -8.74023 58.5449 -10.8398 L 77.0996 -33.5938 C 77.5391 -34.0332 77.7832 -34.6191 77.7832 -35.1562 C 77.7832 -36.2305 76.9043 -37.0117 75.8301 -37.0117 L 64.7949 -37.0117 L 70.6543 -52.4414 C 71.6797 -55.0781 68.7988 -56.543 67.0898 -54.4434 L 48.4375 -31.7383 C 48.0469 -31.25 47.8027 -30.7129 47.8027 -30.127 Z"/>
  </g>
  <g id="Semibold-M" transform="matrix(1 0 0 1 1981.57 1126)">
   <path d="M 11.5723 -48.9258 C 11.5723 -27.9785 29.1504 -7.27539 56.2012 10.3027 C 58.0566 11.5234 60.2539 12.6953 61.6699 12.6953 C 63.1348 12.6953 65.2832 11.5234 67.1875 10.3027 C 94.2383 -7.27539 111.816 -27.9785 111.816 -48.9258 C 111.816 -67.4805 98.877 -80.2246 82.7637 -80.2246 C 73.2422 -80.2246 66.0156 -75.9766 61.6699 -69.6289 C 57.4219 -75.9277 50.0977 -80.2246 40.625 -80.2246 C 24.4629 -80.2246 11.5723 -67.4805 11.5723 -48.9258 Z M 23.291 -48.9746 C 23.291 -60.791 31.2012 -68.8477 41.748 -68.8477 C 50.1953 -68.8477 54.8828 -63.8672 57.9102 -59.375 C 59.2773 -57.4219 60.3027 -56.6406 61.6699 -56.6406 C 63.0859 -56.6406 64.0137 -57.4219 65.4297 -59.375 C 68.6523 -63.8184 73.1934 -68.8477 81.6406 -68.8477 C 92.1875 -68.8477 100.098 -60.791 100.098 -48.9746 C 100.098 -32.5684 83.252 -13.9648 62.5488 -0.146484 C 62.1582 0.0976562 61.8652 0.244141 61.6699 0.244141 C 61.5234 0.244141 61.2305 0.0976562 60.8398 -0.146484 C 40.1367 -13.9648 23.291 -32.5684 23.291 -48.9746 Z M 46.8262 -29.7363 C 46.8262 -28.7109 47.6562 -27.9785 48.6816 -27.9785 L 60.1074 -27.9785 L 54.0039 -11.8652 C 53.0762 -9.32617 55.7617 -7.95898 57.4219 -9.96094 L 76.3672 -33.3496 C 76.7578 -33.7891 77.002 -34.375 77.002 -34.8633 C 77.002 -35.8887 76.1719 -36.6211 75.1465 -36.6211 L 63.7695 -36.6211 L 69.8242 -52.7344 C 70.752 -55.2246 68.0664 -56.6406 66.4062 -54.5898 L 47.4609 -31.25 C 47.0703 -30.7617 46.8262 -30.2246 46.8262 -29.7363 Z"/>
  </g>
  <g id="Medium-M" transform="matrix(1 0 0 1 1685.35 1126)">
   <path d="M 11.7676 -48.9746 C 11.7676 -28.125 29.2969 -7.51953 56.543 10.0586 C 58.0566 11.0352 59.9121 12.0117 61.1816 12.0117 C 62.4512 12.0117 64.3066 11.0352 65.8203 10.0586 C 93.1152 -7.51953 110.596 -28.125 110.596 -48.9746 C 110.596 -66.9922 98.1445 -79.4922 82.1777 -79.4922 C 72.8516 -79.4922 65.5762 -75.2441 61.1816 -68.7988 C 56.8848 -75.1953 49.5605 -79.4922 40.2344 -79.4922 C 24.2188 -79.4922 11.7676 -66.9922 11.7676 -48.9746 Z M 21.8262 -49.0234 C 21.8262 -61.3281 29.9316 -69.6777 40.8203 -69.6777 C 49.6094 -69.6777 54.541 -64.3555 57.6172 -59.7168 C 58.9844 -57.7148 59.9121 -57.0801 61.1816 -57.0801 C 62.5 -57.0801 63.3301 -57.7637 64.7461 -59.7168 C 68.0664 -64.2578 72.8027 -69.6777 81.543 -69.6777 C 92.4805 -69.6777 100.586 -61.3281 100.586 -49.0234 C 100.586 -31.8359 82.7148 -12.793 62.1094 0.878906 C 61.6699 1.17188 61.377 1.36719 61.1816 1.36719 C 60.9863 1.36719 60.6934 1.17188 60.3027 0.878906 C 39.6973 -12.793 21.8262 -31.8359 21.8262 -49.0234 Z M 46.0938 -29.3945 C 46.0938 -28.4668 46.875 -27.7344 47.8516 -27.7344 L 59.5703 -27.7344 L 53.2715 -11.084 C 52.3926 -8.69141 54.9805 -7.32422 56.5918 -9.27734 L 75.7812 -33.2031 C 76.1719 -33.6426 76.416 -34.1797 76.416 -34.668 C 76.416 -35.5957 75.5859 -36.3281 74.6094 -36.3281 L 62.9395 -36.3281 L 69.1895 -52.9297 C 70.0684 -55.3711 67.4805 -56.7383 65.918 -54.7363 L 46.6797 -30.8594 C 46.2891 -30.3711 46.0938 -29.8828 46.0938 -29.3945 Z"/>
  </g>
  <g id="Regular-M" transform="matrix(1 0 0 1 1389.3 1126)">
   <path d="M 12.0605 -49.0723 C 12.0605 -28.2715 29.4922 -7.8125 57.0312 9.76562 C 58.0566 10.4004 59.5215 11.084 60.5469 11.084 C 61.5723 11.084 63.0371 10.4004 64.1113 9.76562 C 91.6016 -7.8125 109.033 -28.2715 109.033 -49.0723 C 109.033 -66.3574 97.168 -78.5645 81.3477 -78.5645 C 72.3145 -78.5645 64.9902 -74.2676 60.5469 -67.6758 C 56.2012 -74.2188 48.7793 -78.5645 39.7461 -78.5645 C 23.9258 -78.5645 12.0605 -66.3574 12.0605 -49.0723 Z M 19.9219 -49.0723 C 19.9219 -62.0605 28.3203 -70.7031 39.6484 -70.7031 C 48.8281 -70.7031 54.1016 -64.9902 57.2266 -60.1074 C 58.5449 -58.1543 59.375 -57.6172 60.5469 -57.6172 C 61.7188 -57.6172 62.4512 -58.2031 63.8672 -60.1074 C 67.2363 -64.8926 72.3145 -70.7031 81.4453 -70.7031 C 92.7734 -70.7031 101.172 -62.0605 101.172 -49.0723 C 101.172 -30.9082 81.9824 -11.3281 61.5723 2.24609 C 61.084 2.58789 60.7422 2.83203 60.5469 2.83203 C 60.3516 2.83203 60.0098 2.58789 59.5703 2.24609 C 39.1113 -11.3281 19.9219 -30.9082 19.9219 -49.0723 Z M 45.1172 -28.9551 C 45.1172 -28.0762 45.8496 -27.4414 46.7285 -27.4414 L 58.8379 -27.4414 L 52.3926 -10.1074 C 51.5137 -7.8125 54.0039 -6.54297 55.4688 -8.39844 L 75 -32.959 C 75.3906 -33.3984 75.6348 -33.9355 75.6348 -34.375 C 75.6348 -35.2539 74.8535 -35.9375 73.9746 -35.9375 L 61.8652 -35.9375 L 68.3105 -53.2227 C 69.1895 -55.5664 66.748 -56.7871 65.2344 -54.9316 L 45.7031 -30.3711 C 45.3125 -29.8828 45.1172 -29.4434 45.1172 -28.9551 Z"/>
  </g>
  <g id="Light-M" transform="matrix(1 0 0 1 1094 1126)">
   <path d="M 11.5723 -49.0723 C 11.5723 -28.7109 29.3457 -8.74023 56.1523 8.64258 C 57.0312 9.17969 58.252 9.7168 59.1309 9.7168 C 60.0098 9.7168 61.2305 9.17969 62.1582 8.64258 C 88.9648 -8.74023 106.738 -28.7109 106.738 -49.0723 C 106.738 -65.7715 95.2148 -77.6855 79.834 -77.6855 C 70.9961 -77.6855 63.3301 -73.1445 59.1309 -66.1133 C 54.9805 -73.0957 47.2656 -77.6855 38.4277 -77.6855 C 23.0469 -77.6855 11.5723 -65.7715 11.5723 -49.0723 Z M 17.5781 -49.0723 C 17.5781 -62.5 26.416 -71.6309 38.3789 -71.6309 C 47.4609 -71.6309 53.0762 -66.0156 56.4453 -60.4004 C 57.4707 -58.7891 58.1543 -58.3008 59.1309 -58.3008 C 60.1074 -58.3008 60.7422 -58.8379 61.8652 -60.4004 C 65.332 -65.9668 70.8496 -71.6309 79.8828 -71.6309 C 91.8457 -71.6309 100.684 -62.5 100.684 -49.0723 C 100.684 -30.7617 81.5918 -11.4258 60.0098 2.97852 C 59.6191 3.22266 59.3262 3.41797 59.1309 3.41797 C 58.9355 3.41797 58.6914 3.22266 58.3008 2.97852 C 36.7188 -11.4258 17.5781 -30.7617 17.5781 -49.0723 Z M 43.75 -28.7598 C 43.75 -28.0273 44.3848 -27.4902 45.166 -27.4902 L 57.666 -27.4902 L 50.9277 -9.47266 C 50.1465 -7.42188 52.3438 -6.34766 53.6621 -8.00781 L 73.6816 -33.2031 C 74.0723 -33.6426 74.3164 -34.082 74.3164 -34.5215 C 74.3164 -35.2539 73.6328 -35.8398 72.8516 -35.8398 L 60.4004 -35.8398 L 67.0898 -53.8086 C 67.8711 -55.8594 65.7227 -56.9336 64.4043 -55.2734 L 44.2871 -30.0293 C 43.9453 -29.5898 43.75 -29.1504 43.75 -28.7598 Z"/>
  </g>
  <g id="Thin-M" transform="matrix(1 0 0 1 799.147 1126)">
   <path d="M 10.8887 -49.0723 C 10.8887 -29.2969 29.1504 -9.96094 54.9805 7.12891 C 55.6641 7.56836 56.5918 7.95898 57.2754 7.95898 C 57.959 7.95898 58.8867 7.56836 59.5703 7.12891 C 85.4004 -9.96094 103.662 -29.2969 103.662 -49.0723 C 103.662 -65.0391 92.627 -76.4648 77.832 -76.4648 C 69.2871 -76.4648 61.1816 -71.6309 57.2754 -64.0625 C 53.418 -71.6309 45.2637 -76.4648 36.7188 -76.4648 C 21.9238 -76.4648 10.8887 -65.0391 10.8887 -49.0723 Z M 14.5508 -49.0723 C 14.5508 -63.0859 23.9258 -72.8516 36.6699 -72.8516 C 45.6055 -72.8516 51.709 -67.334 55.3223 -60.791 C 56.0059 -59.668 56.543 -59.2285 57.2754 -59.2285 C 58.0078 -59.2285 58.4961 -59.668 59.2285 -60.791 C 62.8418 -67.334 68.9453 -72.8516 77.8809 -72.8516 C 90.625 -72.8516 100 -63.0859 100 -49.0723 C 100 -30.6152 81.0059 -11.5234 57.9102 3.90625 C 57.666 4.05273 57.4707 4.19922 57.2754 4.19922 C 57.0801 4.19922 56.8848 4.05273 56.6406 3.90625 C 33.5449 -11.5234 14.5508 -30.6152 14.5508 -49.0723 Z M 41.9922 -28.4668 C 41.9922 -27.8809 42.4805 -27.4902 43.1152 -27.4902 L 56.0547 -27.4902 L 49.0234 -8.59375 C 48.3398 -6.93359 50.0977 -6.05469 51.2207 -7.42188 L 71.9727 -33.5449 C 72.3145 -33.9844 72.5098 -34.3262 72.5098 -34.668 C 72.5098 -35.2539 72.0215 -35.6934 71.3867 -35.6934 L 58.4473 -35.6934 L 65.4785 -54.541 C 66.1133 -56.2012 64.3555 -57.1289 63.2324 -55.7129 L 42.4316 -29.5898 C 42.1387 -29.1504 41.9922 -28.8086 41.9922 -28.4668 Z"/>
  </g>
  <g id="Ultralight-M" transform="matrix(1 0 0 1 503.388 1126)">
   <path d="M 10.5469 -49.0723 C 10.5469 -29.5898 29.0527 -10.5469 54.3945 6.39648 C 54.9805 6.73828 55.7129 7.03125 56.2988 7.03125 C 56.9336 7.03125 57.666 6.73828 58.2031 6.39648 C 83.5938 -10.5469 102.1 -29.5898 102.1 -49.0723 C 102.1 -64.6484 91.3086 -75.8301 76.8066 -75.8301 C 68.4082 -75.8301 60.0586 -70.8496 56.2988 -63.0371 C 52.5879 -70.8496 44.2383 -75.8301 35.8398 -75.8301 C 21.3379 -75.8301 10.5469 -64.6484 10.5469 -49.0723 Z M 12.9395 -49.0723 C 12.9395 -63.3789 22.6562 -73.4375 35.8398 -73.4375 C 44.6777 -73.4375 51.0254 -68.0176 54.7852 -61.0352 C 55.2734 -60.1074 55.7129 -59.7168 56.2988 -59.7168 C 56.9336 -59.7168 57.373 -60.1074 57.8613 -61.0352 C 61.5723 -68.0176 67.9688 -73.4375 76.8066 -73.4375 C 89.9902 -73.4375 99.707 -63.3789 99.707 -49.0723 C 99.707 -30.5176 80.7617 -11.5723 56.8848 4.3457 C 56.6895 4.49219 56.4941 4.58984 56.2988 4.58984 C 56.1523 4.58984 55.957 4.49219 55.7617 4.3457 C 31.8848 -11.5723 12.9395 -30.5176 12.9395 -49.0723 Z M 41.0645 -28.3203 C 41.0645 -27.832 41.5039 -27.5391 42.041 -27.5391 L 55.2246 -27.5391 L 48.0469 -8.1543 C 47.4121 -6.68945 48.9746 -5.9082 49.9512 -7.12891 L 71.1426 -33.7402 C 71.4355 -34.1309 71.6309 -34.4727 71.6309 -34.7656 C 71.6309 -35.2539 71.1914 -35.6445 70.6543 -35.6445 L 57.4707 -35.6445 L 64.6484 -54.9316 C 65.1855 -56.3965 63.6719 -57.2266 62.6465 -55.957 L 41.5039 -29.3945 C 41.2109 -28.9551 41.0645 -28.6621 41.0645 -28.3203 Z"/>
  </g>
  <g id="Black-S" transform="matrix(1 0 0 1 2883.2 696)">
   <path d="M 8.30078 -45.6543 C 8.30078 -29.1016 22.3145 -12.4023 42.7246 1.31836 C 45.5566 3.22266 48.3398 4.98047 50.1953 4.98047 C 52.0508 4.98047 54.834 3.22266 57.666 1.31836 C 78.0762 -12.4023 92.0898 -29.1016 92.0898 -45.6543 C 92.0898 -62.4023 80.2734 -73.1445 67.1875 -73.1445 C 58.9844 -73.1445 53.418 -69.873 50.1953 -65.4297 C 46.9727 -69.873 41.4062 -73.1445 33.2031 -73.1445 C 20.1172 -73.1445 8.30078 -62.4023 8.30078 -45.6543 Z M 23.7305 -45.8496 C 23.7305 -53.2227 29.1016 -58.4961 36.084 -58.4961 C 41.5527 -58.4961 44.2871 -55.7617 46.4844 -52.9297 C 47.6074 -51.3672 48.7305 -50.4883 50.1953 -50.4883 C 51.6602 -50.4883 52.6855 -51.3672 53.8574 -52.9297 C 56.2012 -55.8105 58.8379 -58.4961 64.3066 -58.4961 C 71.2891 -58.4961 76.6602 -53.2227 76.6602 -45.8496 C 76.6602 -35.791 67.2363 -22.8027 50.5859 -11.7188 C 50.4395 -11.6211 50.3418 -11.5723 50.1953 -11.5723 C 50.0488 -11.5723 49.9512 -11.6211 49.8047 -11.7188 C 33.1543 -22.8027 23.7305 -35.791 23.7305 -45.8496 Z M 39.502 -32.1289 C 39.502 -31.1523 40.2832 -30.4199 41.3086 -30.4199 L 49.0723 -30.4199 L 44.9219 -19.7754 C 44.0918 -17.4805 46.582 -16.1133 48.1934 -17.9688 L 62.0117 -34.375 C 62.3535 -34.7656 62.5488 -35.2539 62.5488 -35.7422 C 62.5488 -36.7188 61.7676 -37.4512 60.791 -37.4512 L 52.9785 -37.4512 L 57.1289 -48.0957 C 58.0078 -50.3906 55.4688 -51.7578 53.9062 -49.9023 L 40.0391 -33.4961 C 39.6973 -33.1055 39.502 -32.6172 39.502 -32.1289 Z"/>
  </g>
  <g id="Heavy-S" transform="matrix(1 0 0 1 2586.98 696)">
   <path d="M 8.64258 -45.752 C 8.64258 -29.1992 22.5098 -12.5977 43.2617 1.12305 C 45.6543 2.73438 48.0957 4.19922 49.707 4.19922 C 51.3184 4.19922 53.7598 2.73438 56.1035 1.12305 C 76.9043 -12.5977 90.7715 -29.1992 90.7715 -45.752 C 90.7715 -61.8164 79.541 -72.3145 66.5527 -72.3145 C 58.5938 -72.3145 53.0273 -69.043 49.707 -64.4531 C 46.3867 -69.043 40.8203 -72.3145 32.8613 -72.3145 C 19.873 -72.3145 8.64258 -61.8164 8.64258 -45.752 Z M 22.0703 -45.8984 C 22.0703 -53.9062 27.6855 -59.4727 35.0586 -59.4727 C 40.918 -59.4727 43.9453 -56.2988 46.1914 -53.3203 C 47.3145 -51.709 48.3398 -50.9277 49.707 -50.9277 C 51.0742 -50.9277 52.002 -51.7578 53.1738 -53.3203 C 55.5664 -56.2988 58.4961 -59.4727 64.3555 -59.4727 C 71.7285 -59.4727 77.3438 -53.9062 77.3438 -45.8984 C 77.3438 -34.8633 66.5527 -21.2891 50.1953 -10.4004 C 50 -10.2539 49.8535 -10.2051 49.707 -10.2051 C 49.5605 -10.2051 49.4141 -10.2539 49.2188 -10.4004 C 32.8125 -21.2891 22.0703 -34.8633 22.0703 -45.8984 Z M 38.6719 -31.7383 C 38.6719 -30.8105 39.4043 -30.127 40.3809 -30.127 L 48.4863 -30.127 L 44.1895 -18.8477 C 43.3594 -16.6504 45.752 -15.332 47.2656 -17.1387 L 61.377 -34.1309 C 61.7188 -34.5215 61.9141 -34.9609 61.9141 -35.4492 C 61.9141 -36.377 61.1816 -37.0605 60.2539 -37.0605 L 52.0996 -37.0605 L 56.3965 -48.3398 C 57.2754 -50.5371 54.834 -51.8555 53.3203 -50.0488 L 39.209 -33.0566 C 38.8672 -32.666 38.6719 -32.1777 38.6719 -31.7383 Z"/>
  </g>
  <g id="Bold-S" transform="matrix(1 0 0 1 2290.83 696)">
   <path d="M 8.98438 -45.8984 C 8.98438 -29.3457 22.7539 -12.8418 43.8965 0.927734 C 45.752 2.19727 47.8027 3.32031 49.1699 3.32031 C 50.4883 3.32031 52.5391 2.19727 54.3945 0.927734 C 75.5859 -12.8418 89.3066 -29.3457 89.3066 -45.8984 C 89.3066 -61.1328 78.6621 -71.3867 65.8203 -71.3867 C 58.1055 -71.3867 52.5391 -68.1152 49.1699 -63.4277 C 45.752 -68.1152 40.1855 -71.3867 32.4707 -71.3867 C 19.6289 -71.3867 8.98438 -61.1328 8.98438 -45.8984 Z M 20.2148 -45.9961 C 20.2148 -54.6387 26.0742 -60.5469 33.8867 -60.5469 C 40.2344 -60.5469 43.5547 -56.9336 45.8496 -53.7598 C 47.0215 -52.1484 47.9004 -51.4648 49.1699 -51.4648 C 50.3906 -51.4648 51.2207 -52.1484 52.4414 -53.7598 C 54.8828 -56.8848 58.1055 -60.5469 64.4043 -60.5469 C 72.2168 -60.5469 78.0762 -54.6387 78.0762 -45.9961 C 78.0762 -33.8379 65.8203 -19.6289 49.7559 -8.93555 C 49.4629 -8.78906 49.3164 -8.64258 49.1699 -8.64258 C 49.0234 -8.64258 48.8281 -8.78906 48.5352 -8.93555 C 32.4707 -19.6289 20.2148 -33.8379 20.2148 -45.9961 Z M 37.7441 -31.2988 C 37.7441 -30.4199 38.4277 -29.7852 39.3555 -29.7852 L 47.9004 -29.7852 L 43.3105 -17.8223 C 42.5293 -15.6738 44.8242 -14.502 46.2891 -16.2109 L 60.6934 -33.8379 C 61.0352 -34.2285 61.2305 -34.668 61.2305 -35.1074 C 61.2305 -35.9863 60.498 -36.6211 59.6191 -36.6211 L 51.0742 -36.6211 L 55.6152 -48.584 C 56.3965 -50.6836 54.1016 -51.9043 52.7344 -50.1953 L 38.2324 -32.5195 C 37.9395 -32.1777 37.7441 -31.7383 37.7441 -31.2988 Z"/>
  </g>
  <g id="Semibold-S" transform="matrix(1 0 0 1 1994.51 696)">
   <path d="M 9.22852 -45.9473 C 9.22852 -29.3945 22.9004 -13.0371 44.3359 0.78125 C 45.8496 1.80664 47.6074 2.73438 48.7793 2.73438 C 49.9512 2.73438 51.709 1.80664 53.2227 0.78125 C 74.6582 -13.0371 88.2812 -29.3945 88.2812 -45.9473 C 88.2812 -60.6934 78.0762 -70.752 65.332 -70.752 C 57.8125 -70.752 52.2461 -67.4805 48.7793 -62.6465 C 45.3125 -67.4805 39.7461 -70.752 32.2266 -70.752 C 19.4336 -70.752 9.22852 -60.6934 9.22852 -45.9473 Z M 18.9453 -45.9961 C 18.9453 -55.127 25 -61.2793 33.0566 -61.2793 C 39.7461 -61.2793 43.3105 -57.3242 45.6055 -54.0527 C 46.7773 -52.3926 47.6074 -51.8066 48.7793 -51.8066 C 49.9023 -51.8066 50.6836 -52.4414 51.9043 -54.0527 C 54.3945 -57.2754 57.8125 -61.2793 64.4531 -61.2793 C 72.5586 -61.2793 78.6133 -55.127 78.6133 -45.9961 C 78.6133 -33.1543 65.332 -18.5059 49.4629 -7.95898 C 49.1211 -7.71484 48.9258 -7.56836 48.7793 -7.56836 C 48.6328 -7.56836 48.3887 -7.71484 48.0469 -7.95898 C 32.2266 -18.5059 18.9453 -33.1543 18.9453 -45.9961 Z M 37.1094 -30.957 C 37.1094 -30.127 37.7441 -29.541 38.623 -29.541 L 47.4609 -29.541 L 42.7246 -17.0898 C 41.9922 -15.0391 44.1895 -13.916 45.5566 -15.5762 L 60.2051 -33.6914 C 60.5469 -34.0332 60.7422 -34.4727 60.7422 -34.9121 C 60.7422 -35.7422 60.0586 -36.3281 59.2285 -36.3281 L 50.3906 -36.3281 L 55.0781 -48.7305 C 55.8594 -50.8301 53.6133 -51.9531 52.2949 -50.293 L 37.5977 -32.1777 C 37.3047 -31.7871 37.1094 -31.3965 37.1094 -30.957 Z"/>
  </g>
  <g id="Medium-S" transform="matrix(1 0 0 1 1698.07 696)">
   <path d="M 9.42383 -45.9961 C 9.42383 -29.4922 22.998 -13.1348 44.6289 0.683594 C 45.8984 1.51367 47.4609 2.29492 48.4863 2.29492 C 49.5117 2.29492 51.0742 1.51367 52.2949 0.683594 C 73.9746 -13.1348 87.5488 -29.4922 87.5488 -45.9961 C 87.5488 -60.3516 77.6367 -70.2637 64.9414 -70.2637 C 57.5684 -70.2637 52.002 -66.9922 48.4863 -62.1094 C 45.0195 -66.9434 39.4043 -70.2637 32.0312 -70.2637 C 19.2871 -70.2637 9.42383 -60.3516 9.42383 -45.9961 Z M 17.9688 -46.0449 C 17.9688 -55.5176 24.1699 -61.8652 32.4707 -61.8652 C 39.4043 -61.8652 43.1152 -57.666 45.459 -54.2969 C 46.6309 -52.5879 47.4121 -52.0508 48.4863 -52.0508 C 49.5605 -52.0508 50.2441 -52.6367 51.5137 -54.2969 C 54.0039 -57.5684 57.6172 -61.8652 64.502 -61.8652 C 72.8027 -61.8652 79.0039 -55.5176 79.0039 -46.0449 C 79.0039 -32.6172 64.9414 -17.627 49.2676 -7.17773 C 48.877 -6.93359 48.6328 -6.78711 48.4863 -6.78711 C 48.3398 -6.78711 48.0957 -6.93359 47.7051 -7.17773 C 32.0312 -17.627 17.9688 -32.6172 17.9688 -46.0449 Z M 36.6211 -30.7617 C 36.6211 -29.9316 37.2559 -29.3457 38.0859 -29.3457 L 47.1191 -29.3457 L 42.2852 -16.5527 C 41.5527 -14.5508 43.75 -13.4277 45.0195 -15.0879 L 59.8633 -33.5449 C 60.2051 -33.8867 60.4004 -34.3262 60.4004 -34.7168 C 60.4004 -35.498 59.668 -36.1328 58.8867 -36.1328 L 49.8535 -36.1328 L 54.6387 -48.877 C 55.4199 -50.9277 53.2715 -52.002 51.9531 -50.3906 L 37.1094 -31.9336 C 36.8164 -31.543 36.6211 -31.1523 36.6211 -30.7617 Z"/>
  </g>
  <g id="Regular-S" transform="matrix(1 0 0 1 1401.75 696)">
   <path d="M 9.66797 -46.0938 C 9.66797 -29.541 23.1445 -13.3301 45.0684 0.537109 C 45.9473 1.12305 47.2656 1.70898 48.0957 1.70898 C 48.9746 1.70898 50.2441 1.12305 51.123 0.537109 C 73.0469 -13.3301 86.5234 -29.541 86.5234 -46.0938 C 86.5234 -59.8633 77.0508 -69.6289 64.4531 -69.6289 C 57.2266 -69.6289 51.6602 -66.3574 48.0957 -61.377 C 44.5801 -66.3086 38.9648 -69.6289 31.7383 -69.6289 C 19.1406 -69.6289 9.66797 -59.8633 9.66797 -46.0938 Z M 16.6992 -46.0938 C 16.6992 -56.0059 23.0957 -62.5977 31.6895 -62.5977 C 38.916 -62.5977 42.8223 -58.0566 45.2148 -54.5898 C 46.3867 -52.8809 47.1191 -52.3926 48.0957 -52.3926 C 49.1211 -52.3926 49.707 -52.9297 50.9766 -54.5898 C 53.5645 -57.959 57.3242 -62.5977 64.5508 -62.5977 C 73.1445 -62.5977 79.4922 -56.0059 79.4922 -46.0938 C 79.4922 -31.9336 64.4043 -16.4551 48.9746 -6.20117 C 48.5352 -5.9082 48.2422 -5.71289 48.0957 -5.71289 C 47.9492 -5.71289 47.6562 -5.9082 47.2656 -6.20117 C 31.7871 -16.4551 16.6992 -31.9336 16.6992 -46.0938 Z M 35.9863 -30.4199 C 35.9863 -29.6875 36.5723 -29.1016 37.3535 -29.1016 L 46.6797 -29.1016 L 41.6992 -15.8691 C 41.0156 -13.916 43.1152 -12.8418 44.3359 -14.4531 L 59.375 -33.3496 C 59.7168 -33.6914 59.9121 -34.1309 59.9121 -34.4727 C 59.9121 -35.2539 59.2285 -35.8398 58.4473 -35.8398 L 49.1699 -35.8398 L 54.1016 -49.0723 C 54.834 -51.0254 52.7832 -52.0508 51.5137 -50.4883 L 36.4746 -31.5918 C 36.1816 -31.2012 35.9863 -30.8105 35.9863 -30.4199 Z"/>
  </g>
  <g id="Light-S" transform="matrix(1 0 0 1 1106.28 696)">
   <path d="M 9.22852 -46.0938 C 9.22852 -29.9805 22.998 -14.1113 44.2871 -0.439453 C 45.0684 0.0488281 46.0938 0.488281 46.875 0.488281 C 47.6074 0.488281 48.6328 0.0488281 49.4141 -0.439453 C 70.7031 -14.1113 84.4727 -29.9805 84.4727 -46.0938 C 84.4727 -59.375 75.3418 -68.8477 63.0859 -68.8477 C 56.1035 -68.8477 50.2441 -65.3809 46.875 -60.0098 C 43.5059 -65.332 37.5977 -68.8477 30.6152 -68.8477 C 18.3594 -68.8477 9.22852 -59.375 9.22852 -46.0938 Z M 14.6484 -46.0938 C 14.6484 -56.4453 21.3867 -63.3789 30.5176 -63.3789 C 37.6953 -63.3789 41.9434 -58.9844 44.4824 -54.834 C 45.4102 -53.4668 45.9961 -53.0273 46.875 -53.0273 C 47.7051 -53.0273 48.2422 -53.4668 49.2188 -54.834 C 51.9043 -58.8867 56.0547 -63.3789 63.1836 -63.3789 C 72.3145 -63.3789 79.0527 -56.4453 79.0527 -46.0938 C 79.0527 -31.7871 64.0625 -16.5527 47.5586 -5.56641 C 47.2656 -5.37109 47.0215 -5.17578 46.875 -5.17578 C 46.7285 -5.17578 46.4844 -5.37109 46.1426 -5.56641 C 29.6387 -16.5527 14.6484 -31.7871 14.6484 -46.0938 Z M 34.7656 -30.2246 C 34.7656 -29.5898 35.3027 -29.1504 35.9863 -29.1504 L 45.6055 -29.1504 L 40.4297 -15.2832 C 39.7949 -13.5742 41.6016 -12.6465 42.7246 -14.0625 L 58.2031 -33.5449 C 58.5449 -33.8867 58.6914 -34.2773 58.6914 -34.6191 C 58.6914 -35.2539 58.1543 -35.7422 57.4707 -35.7422 L 47.9004 -35.7422 L 53.0273 -49.5605 C 53.6621 -51.2695 51.8555 -52.1973 50.7812 -50.7812 L 35.2051 -31.2988 C 34.9609 -30.9082 34.7656 -30.5664 34.7656 -30.2246 Z"/>
  </g>
  <g id="Thin-S" transform="matrix(1 0 0 1 811.207 696)">
   <path d="M 8.64258 -46.0938 C 8.64258 -30.4688 22.8516 -15.1855 43.3105 -1.75781 C 43.8477 -1.36719 44.6289 -1.07422 45.2148 -1.07422 C 45.8008 -1.07422 46.582 -1.36719 47.1191 -1.75781 C 67.5781 -15.1855 81.7871 -30.4688 81.7871 -46.0938 C 81.7871 -58.7402 73.0469 -67.7734 61.3281 -67.7734 C 54.5898 -67.7734 48.291 -64.0137 45.2148 -58.2031 C 42.1387 -64.0137 35.8398 -67.7734 29.0527 -67.7734 C 17.3828 -67.7734 8.64258 -58.7402 8.64258 -46.0938 Z M 11.9629 -46.0938 C 11.9629 -56.9336 19.1895 -64.4531 29.0527 -64.4531 C 36.084 -64.4531 40.7715 -60.1562 43.5547 -55.1758 C 44.1406 -54.1992 44.5801 -53.8574 45.2148 -53.8574 C 45.8496 -53.8574 46.2402 -54.1992 46.875 -55.1758 C 49.707 -60.1074 54.3457 -64.4531 61.377 -64.4531 C 71.2402 -64.4531 78.4668 -56.9336 78.4668 -46.0938 C 78.4668 -31.6406 63.5742 -16.6504 45.752 -4.78516 C 45.5566 -4.63867 45.3613 -4.49219 45.2148 -4.49219 C 45.0684 -4.49219 44.873 -4.63867 44.6777 -4.78516 C 26.8555 -16.6504 11.9629 -31.6406 11.9629 -46.0938 Z M 33.2031 -29.9805 C 33.2031 -29.4922 33.6426 -29.1504 34.1797 -29.1504 L 44.1895 -29.1504 L 38.7695 -14.5508 C 38.2324 -13.1836 39.6484 -12.4023 40.5762 -13.5742 L 56.7383 -33.8379 C 56.9824 -34.1797 57.1289 -34.4727 57.1289 -34.7656 C 57.1289 -35.2539 56.7383 -35.6445 56.2012 -35.6445 L 46.1426 -35.6445 L 51.6113 -50.1953 C 52.0996 -51.6113 50.6836 -52.3438 49.7559 -51.2207 L 33.5938 -30.9082 C 33.3496 -30.5664 33.2031 -30.2734 33.2031 -29.9805 Z"/>
  </g>
  <g id="Ultralight-S" transform="matrix(1 0 0 1 515.351 696)">
   <path d="M 8.34961 -46.0938 C 8.34961 -30.7617 22.7539 -15.7227 42.7734 -2.44141 C 43.2617 -2.14844 43.8477 -1.85547 44.3848 -1.85547 C 44.873 -1.85547 45.5078 -2.14844 45.9473 -2.44141 C 65.9668 -15.7227 80.3711 -30.7617 80.3711 -46.0938 C 80.3711 -58.3984 71.875 -67.2363 60.4492 -67.2363 C 53.8086 -67.2363 47.3145 -63.3301 44.3848 -57.2754 C 41.4062 -63.3301 34.9121 -67.2363 28.2715 -67.2363 C 16.8457 -67.2363 8.34961 -58.3984 8.34961 -46.0938 Z M 10.5469 -46.0938 C 10.5469 -57.2266 18.0664 -64.9902 28.2715 -64.9902 C 35.2539 -64.9902 40.1367 -60.7422 43.0664 -55.3711 C 43.5059 -54.5898 43.8477 -54.2969 44.3848 -54.2969 C 44.873 -54.2969 45.2148 -54.5898 45.6543 -55.3711 C 48.584 -60.7422 53.5156 -64.9902 60.4492 -64.9902 C 70.6543 -64.9902 78.1738 -57.2266 78.1738 -46.0938 C 78.1738 -31.543 63.3301 -16.6992 44.8242 -4.3457 C 44.6777 -4.24805 44.5312 -4.15039 44.3848 -4.15039 C 44.2383 -4.15039 44.043 -4.24805 43.8965 -4.3457 C 25.3906 -16.6992 10.5469 -31.543 10.5469 -46.0938 Z M 32.4219 -29.8828 C 32.4219 -29.4434 32.7637 -29.1992 33.2031 -29.1992 L 43.457 -29.1992 L 37.8906 -14.1602 C 37.4023 -12.9395 38.6719 -12.3047 39.4531 -13.2812 L 55.957 -33.9844 C 56.2012 -34.3262 56.3477 -34.5703 56.3477 -34.8633 C 56.3477 -35.2539 55.957 -35.5469 55.5176 -35.5469 L 45.2637 -35.5469 L 50.8301 -50.5371 C 51.3184 -51.7578 50.0488 -52.4414 49.2188 -51.416 L 32.7637 -30.7129 C 32.5195 -30.3711 32.4219 -30.127 32.4219 -29.8828 Z"/>
  </g>
 </g>
</svg>
