<?xml version="1.0" encoding="UTF-8"?>
<!--Generator: Apple Native CoreSVG 129-->
<!DOCTYPE svg
PUBLIC "-//W3C//DTD SVG 1.1//EN"
       "http://www.w3.org/Graphics/SVG/1.1/DTD/svg11.dtd">
<svg version="1.1" xmlns="http://www.w3.org/2000/svg" xmlns:xlink="http://www.w3.org/1999/xlink" width="3300" height="2200">
 <!--glyph: "uni100831.medium", point size: 100.000000, font version: "Version 16.0d9e1", template writer version: "8"-->
 <g id="Notes">
  <rect height="2200" id="artboard" style="fill:white;opacity:1" width="3300" x="0" y="0"/>
  <line id="" style="fill:none;stroke:black;opacity:1;stroke-width:0.5;" x1="263" x2="3036" y1="292" y2="292"/>
  <text style="stroke:none;fill:black;font-family:-apple-system,&quot;SF Pro Display&quot;,&quot;SF Pro Text&quot;,Helvetica,sans-serif;font-weight:bold;" transform="matrix(1 0 0 1 263 322)">Weight/Scale Variations</text>
  <text style="stroke:none;fill:black;font-family:-apple-system,&quot;SF Pro Display&quot;,&quot;SF Pro Text&quot;,Helvetica,sans-serif;text-anchor:middle;" transform="matrix(1 0 0 1 559.711 322)">Ultralight</text>
  <text style="stroke:none;fill:black;font-family:-apple-system,&quot;SF Pro Display&quot;,&quot;SF Pro Text&quot;,Helvetica,sans-serif;text-anchor:middle;" transform="matrix(1 0 0 1 856.422 322)">Thin</text>
  <text style="stroke:none;fill:black;font-family:-apple-system,&quot;SF Pro Display&quot;,&quot;SF Pro Text&quot;,Helvetica,sans-serif;text-anchor:middle;" transform="matrix(1 0 0 1 1153.13 322)">Light</text>
  <text style="stroke:none;fill:black;font-family:-apple-system,&quot;SF Pro Display&quot;,&quot;SF Pro Text&quot;,Helvetica,sans-serif;text-anchor:middle;" transform="matrix(1 0 0 1 1449.84 322)">Regular</text>
  <text style="stroke:none;fill:black;font-family:-apple-system,&quot;SF Pro Display&quot;,&quot;SF Pro Text&quot;,Helvetica,sans-serif;text-anchor:middle;" transform="matrix(1 0 0 1 1746.56 322)">Medium</text>
  <text style="stroke:none;fill:black;font-family:-apple-system,&quot;SF Pro Display&quot;,&quot;SF Pro Text&quot;,Helvetica,sans-serif;text-anchor:middle;" transform="matrix(1 0 0 1 2043.27 322)">Semibold</text>
  <text style="stroke:none;fill:black;font-family:-apple-system,&quot;SF Pro Display&quot;,&quot;SF Pro Text&quot;,Helvetica,sans-serif;text-anchor:middle;" transform="matrix(1 0 0 1 2339.98 322)">Bold</text>
  <text style="stroke:none;fill:black;font-family:-apple-system,&quot;SF Pro Display&quot;,&quot;SF Pro Text&quot;,Helvetica,sans-serif;text-anchor:middle;" transform="matrix(1 0 0 1 2636.69 322)">Heavy</text>
  <text style="stroke:none;fill:black;font-family:-apple-system,&quot;SF Pro Display&quot;,&quot;SF Pro Text&quot;,Helvetica,sans-serif;text-anchor:middle;" transform="matrix(1 0 0 1 2933.4 322)">Black</text>
  <line id="" style="fill:none;stroke:black;opacity:1;stroke-width:0.5;" x1="263" x2="3036" y1="1903" y2="1903"/>
  <g id="" transform="matrix(1 0 0 1 263 1933)">
   <path d="M 9.24805 0.830078 C 13.5547 0.830078 17.1387 -2.74414 17.1387 -7.05078 C 17.1387 -11.3574 13.5449 -14.9316 9.23828 -14.9316 C 4.94141 -14.9316 1.36719 -11.3574 1.36719 -7.05078 C 1.36719 -2.74414 4.95117 0.830078 9.24805 0.830078 Z M 9.24805 -0.654297 C 5.70312 -0.654297 2.87109 -3.49609 2.87109 -7.05078 C 2.87109 -10.6055 5.69336 -13.4473 9.23828 -13.4473 C 12.793 -13.4473 15.6348 -10.6055 15.6445 -7.05078 C 15.6543 -3.49609 12.8027 -0.654297 9.24805 -0.654297 Z M 9.22852 -3.62305 C 9.69727 -3.62305 9.9707 -3.93555 9.9707 -4.45312 L 9.9707 -6.31836 L 12.002 -6.31836 C 12.5 -6.31836 12.832 -6.57227 12.832 -7.04102 C 12.832 -7.51953 12.5195 -7.7832 12.002 -7.7832 L 9.9707 -7.7832 L 9.9707 -9.81445 C 9.9707 -10.332 9.69727 -10.6543 9.22852 -10.6543 C 8.75977 -10.6543 8.50586 -10.3125 8.50586 -9.81445 L 8.50586 -7.7832 L 6.49414 -7.7832 C 5.97656 -7.7832 5.64453 -7.51953 5.64453 -7.04102 C 5.64453 -6.57227 5.99609 -6.31836 6.49414 -6.31836 L 8.50586 -6.31836 L 8.50586 -4.45312 C 8.50586 -3.95508 8.75977 -3.62305 9.22852 -3.62305 Z"/>
  </g>
  <g id="" transform="matrix(1 0 0 1 281.506 1933)">
   <path d="M 11.709 2.91016 C 17.1582 2.91016 21.6699 -1.61133 21.6699 -7.05078 C 21.6699 -12.5 17.1484 -17.0117 11.6992 -17.0117 C 6.25977 -17.0117 1.74805 -12.5 1.74805 -7.05078 C 1.74805 -1.61133 6.26953 2.91016 11.709 2.91016 Z M 11.709 1.25 C 7.09961 1.25 3.41797 -2.44141 3.41797 -7.05078 C 3.41797 -11.6602 7.08984 -15.3516 11.6992 -15.3516 C 16.3086 -15.3516 20 -11.6602 20.0098 -7.05078 C 20.0195 -2.44141 16.3184 1.25 11.709 1.25 Z M 11.6797 -2.66602 C 12.207 -2.66602 12.5098 -3.01758 12.5098 -3.59375 L 12.5098 -6.23047 L 15.3223 -6.23047 C 15.8691 -6.23047 16.25 -6.51367 16.25 -7.03125 C 16.25 -7.55859 15.8887 -7.86133 15.3223 -7.86133 L 12.5098 -7.86133 L 12.5098 -10.6836 C 12.5098 -11.25 12.207 -11.6113 11.6797 -11.6113 C 11.1621 -11.6113 10.8789 -11.2305 10.8789 -10.6836 L 10.8789 -7.86133 L 8.07617 -7.86133 C 7.50977 -7.86133 7.13867 -7.55859 7.13867 -7.03125 C 7.13867 -6.51367 7.5293 -6.23047 8.07617 -6.23047 L 10.8789 -6.23047 L 10.8789 -3.59375 C 10.8789 -3.03711 11.1621 -2.66602 11.6797 -2.66602 Z"/>
  </g>
  <g id="" transform="matrix(1 0 0 1 304.924 1933)">
   <path d="M 14.9707 5.66406 C 21.9336 5.66406 27.6953 -0.0976562 27.6953 -7.05078 C 27.6953 -14.0137 21.9238 -19.7754 14.9609 -19.7754 C 8.00781 -19.7754 2.25586 -14.0137 2.25586 -7.05078 C 2.25586 -0.0976562 8.01758 5.66406 14.9707 5.66406 Z M 14.9707 3.84766 C 8.93555 3.84766 4.08203 -1.01562 4.08203 -7.05078 C 4.08203 -13.0957 8.92578 -17.9492 14.9609 -17.9492 C 21.0059 -17.9492 25.8594 -13.0957 25.8691 -7.05078 C 25.8789 -1.01562 21.0156 3.84766 14.9707 3.84766 Z M 14.9414 -1.38672 C 15.5176 -1.38672 15.8594 -1.77734 15.8594 -2.38281 L 15.8594 -6.13281 L 19.7754 -6.13281 C 20.3711 -6.13281 20.7812 -6.46484 20.7812 -7.02148 C 20.7812 -7.59766 20.3906 -7.93945 19.7754 -7.93945 L 15.8594 -7.93945 L 15.8594 -11.8652 C 15.8594 -12.4805 15.5176 -12.8711 14.9414 -12.8711 C 14.375 -12.8711 14.0527 -12.4609 14.0527 -11.8652 L 14.0527 -7.93945 L 10.1465 -7.93945 C 9.53125 -7.93945 9.13086 -7.59766 9.13086 -7.02148 C 9.13086 -6.46484 9.55078 -6.13281 10.1465 -6.13281 L 14.0527 -6.13281 L 14.0527 -2.38281 C 14.0527 -1.79688 14.375 -1.38672 14.9414 -1.38672 Z"/>
  </g>
  <text style="stroke:none;fill:black;font-family:-apple-system,&quot;SF Pro Display&quot;,&quot;SF Pro Text&quot;,Helvetica,sans-serif;font-weight:bold;" transform="matrix(1 0 0 1 263 1953)">Design Variations</text>
  <text style="stroke:none;fill:black;font-family:-apple-system,&quot;SF Pro Display&quot;,&quot;SF Pro Text&quot;,Helvetica,sans-serif;" transform="matrix(1 0 0 1 263 1971)">Symbols are supported in up to nine weights and three scales.</text>
  <text style="stroke:none;fill:black;font-family:-apple-system,&quot;SF Pro Display&quot;,&quot;SF Pro Text&quot;,Helvetica,sans-serif;" transform="matrix(1 0 0 1 263 1989)">For optimal layout with text and other symbols, vertically align</text>
  <text style="stroke:none;fill:black;font-family:-apple-system,&quot;SF Pro Display&quot;,&quot;SF Pro Text&quot;,Helvetica,sans-serif;" transform="matrix(1 0 0 1 263 2007)">symbols with the adjacent text.</text>
  <line id="" style="fill:none;stroke:#00AEEF;stroke-width:0.5;opacity:1.0;" x1="776" x2="776" y1="1919" y2="1933"/>
  <g id="" transform="matrix(1 0 0 1 776 1933)">
   <path d="M 3.31055 0.126953 C 3.82812 0.126953 4.08203 -0.0683594 4.26758 -0.605469 L 5.52734 -4.0625 L 11.2891 -4.0625 L 12.5488 -0.605469 C 12.7344 -0.0683594 12.9883 0.126953 13.4961 0.126953 C 14.0137 0.126953 14.3457 -0.185547 14.3457 -0.673828 C 14.3457 -0.839844 14.3164 -0.986328 14.2383 -1.20117 L 9.6582 -13.3887 C 9.43359 -13.9941 9.0332 -14.2871 8.4082 -14.2871 C 7.80273 -14.2871 7.39258 -13.9941 7.17773 -13.3984 L 2.59766 -1.19141 C 2.51953 -0.976562 2.49023 -0.830078 2.49023 -0.664062 C 2.49023 -0.175781 2.80273 0.126953 3.31055 0.126953 Z M 6.00586 -5.53711 L 8.37891 -12.1094 L 8.42773 -12.1094 L 10.8008 -5.53711 Z"/>
  </g>
  <line id="" style="fill:none;stroke:#00AEEF;stroke-width:0.5;opacity:1.0;" x1="792.836" x2="792.836" y1="1919" y2="1933"/>
  <text style="stroke:none;fill:black;font-family:-apple-system,&quot;SF Pro Display&quot;,&quot;SF Pro Text&quot;,Helvetica,sans-serif;font-weight:bold;" transform="matrix(1 0 0 1 776 1953)">Margins</text>
  <text style="stroke:none;fill:black;font-family:-apple-system,&quot;SF Pro Display&quot;,&quot;SF Pro Text&quot;,Helvetica,sans-serif;" transform="matrix(1 0 0 1 776 1971)">Leading and trailing margins on the left and right side of each symbol</text>
  <text style="stroke:none;fill:black;font-family:-apple-system,&quot;SF Pro Display&quot;,&quot;SF Pro Text&quot;,Helvetica,sans-serif;" transform="matrix(1 0 0 1 776 1989)">can be adjusted by modifying the x-location of the margin guidelines.</text>
  <text style="stroke:none;fill:black;font-family:-apple-system,&quot;SF Pro Display&quot;,&quot;SF Pro Text&quot;,Helvetica,sans-serif;" transform="matrix(1 0 0 1 776 2007)">Modifications are automatically applied proportionally to all</text>
  <text style="stroke:none;fill:black;font-family:-apple-system,&quot;SF Pro Display&quot;,&quot;SF Pro Text&quot;,Helvetica,sans-serif;" transform="matrix(1 0 0 1 776 2025)">scales and weights.</text>
  <g id="" transform="matrix(1 0 0 1 1289 1933)">
   <path d="M 2.8418 1.86523 L 4.54102 3.57422 C 5.40039 4.44336 6.38672 4.38477 7.31445 3.35938 L 17.4902 -7.85156 C 17.7539 -7.76367 18.0273 -7.7832 18.3398 -7.8418 L 19.4043 -8.03711 L 20.0684 -7.36328 L 20.0293 -6.80664 C 19.9902 -6.30859 20.1172 -5.92773 20.6055 -5.44922 L 21.3672 -4.70703 C 21.8457 -4.22852 22.4609 -4.19922 22.9297 -4.66797 L 25.8398 -7.58789 C 26.3086 -8.05664 26.2891 -8.65234 25.8105 -9.13086 L 25.0391 -9.89258 C 24.5605 -10.3711 24.1895 -10.5273 23.7109 -10.4883 L 23.1348 -10.4395 L 22.4902 -11.0742 L 22.7344 -12.1973 C 22.8613 -12.7637 22.7051 -13.2031 22.1191 -13.7891 L 19.9219 -15.9766 C 16.582 -19.2969 12.1484 -19.2188 9.25781 -16.3281 C 8.83789 -15.918 8.80859 -15.3418 9.04297 -14.9512 C 9.27734 -14.5898 9.73633 -14.3555 10.3809 -14.5215 C 11.8457 -14.8633 13.3691 -14.9219 14.7949 -13.9844 L 14.209 -12.5293 C 14.0137 -12.0508 13.9844 -11.6504 14.1113 -11.2891 L 3.04688 -0.898438 C 2.06055 0.0195312 1.98242 0.996094 2.8418 1.86523 Z M 10.752 -15.957 C 13.1836 -17.7344 16.4746 -17.4316 18.7012 -15.2051 L 21.1328 -12.793 C 21.3672 -12.5586 21.4062 -12.373 21.3379 -12.0312 L 21.0156 -10.5469 L 22.5195 -9.0625 L 23.5059 -9.12109 C 23.7598 -9.13086 23.8379 -9.11133 24.0332 -8.91602 L 24.6094 -8.33984 L 22.168 -5.89844 L 21.5918 -6.47461 C 21.3965 -6.66992 21.3672 -6.74805 21.377 -7.01172 L 21.4453 -7.98828 L 19.9512 -9.47266 L 18.4277 -9.21875 C 18.1055 -9.15039 17.959 -9.17969 17.7148 -9.41406 L 15.7129 -11.416 C 15.459 -11.6504 15.4297 -11.8164 15.5859 -12.1875 L 16.4648 -14.2773 C 14.9023 -15.7324 12.8711 -16.3574 10.8398 -15.7617 C 10.6836 -15.7227 10.625 -15.8496 10.752 -15.957 Z M 5.27344 2.30469 L 4.10156 1.14258 C 3.63281 0.683594 3.74023 0.341797 4.14062 -0.0195312 L 14.9512 -10.1953 L 16.416 -8.71094 L 6.42578 2.27539 C 6.07422 2.67578 5.74219 2.77344 5.27344 2.30469 Z"/>
  </g>
  <text style="stroke:none;fill:black;font-family:-apple-system,&quot;SF Pro Display&quot;,&quot;SF Pro Text&quot;,Helvetica,sans-serif;font-weight:bold;" transform="matrix(1 0 0 1 1289 1953)">Exporting</text>
  <text style="stroke:none;fill:black;font-family:-apple-system,&quot;SF Pro Display&quot;,&quot;SF Pro Text&quot;,Helvetica,sans-serif;" transform="matrix(1 0 0 1 1289 1971)">Symbols should be outlined when exporting to ensure the</text>
  <text style="stroke:none;fill:black;font-family:-apple-system,&quot;SF Pro Display&quot;,&quot;SF Pro Text&quot;,Helvetica,sans-serif;" transform="matrix(1 0 0 1 1289 1989)">design is preserved when submitting to Xcode.</text>
  <text id="template-version" style="stroke:none;fill:black;font-family:-apple-system,&quot;SF Pro Display&quot;,&quot;SF Pro Text&quot;,Helvetica,sans-serif;text-anchor:end;" transform="matrix(1 0 0 1 3036 1933)">Template v.2.0</text>
  <text style="stroke:none;fill:black;font-family:-apple-system,&quot;SF Pro Display&quot;,&quot;SF Pro Text&quot;,Helvetica,sans-serif;text-anchor:end;" transform="matrix(1 0 0 1 3036 1951)">Requires Xcode 12 or greater</text>
  <text style="stroke:none;fill:black;font-family:-apple-system,&quot;SF Pro Display&quot;,&quot;SF Pro Text&quot;,Helvetica,sans-serif;text-anchor:end;" transform="matrix(1 0 0 1 3036 1969)">Generated from pills</text>
  <text style="stroke:none;fill:black;font-family:-apple-system,&quot;SF Pro Display&quot;,&quot;SF Pro Text&quot;,Helvetica,sans-serif;text-anchor:end;" transform="matrix(1 0 0 1 3036 1987)">Typeset at 100 points</text>
  <text style="stroke:none;fill:black;font-family:-apple-system,&quot;SF Pro Display&quot;,&quot;SF Pro Text&quot;,Helvetica,sans-serif;" transform="matrix(1 0 0 1 263 726)">Small</text>
  <text style="stroke:none;fill:black;font-family:-apple-system,&quot;SF Pro Display&quot;,&quot;SF Pro Text&quot;,Helvetica,sans-serif;" transform="matrix(1 0 0 1 263 1156)">Medium</text>
  <text style="stroke:none;fill:black;font-family:-apple-system,&quot;SF Pro Display&quot;,&quot;SF Pro Text&quot;,Helvetica,sans-serif;" transform="matrix(1 0 0 1 263 1586)">Large</text>
 </g>
 <g id="Guides">
  <g id="H-reference" style="fill:#27AAE1;stroke:none;" transform="matrix(1 0 0 1 339 696)">
   <path d="M 0.976562 0 L 3.66211 0 L 12.9883 -24.4629 L 45.7031 -24.4629 L 55.0781 0 L 57.7148 0 L 30.6152 -70.459 L 28.125 -70.459 Z M 29.2969 -67.1387 L 29.3945 -67.1387 L 44.873 -26.709 L 13.8672 -26.709 Z"/>
  </g>
  <line id="Baseline-S" style="fill:none;stroke:#27AAE1;opacity:1;stroke-width:0.5;" x1="263" x2="3036" y1="696" y2="696"/>
  <line id="Capline-S" style="fill:none;stroke:#27AAE1;opacity:1;stroke-width:0.5;" x1="263" x2="3036" y1="625.541" y2="625.541"/>
  <g id="H-reference" style="fill:#27AAE1;stroke:none;" transform="matrix(1 0 0 1 339 1126)">
   <path d="M 0.976562 0 L 3.66211 0 L 12.9883 -24.4629 L 45.7031 -24.4629 L 55.0781 0 L 57.7148 0 L 30.6152 -70.459 L 28.125 -70.459 Z M 29.2969 -67.1387 L 29.3945 -67.1387 L 44.873 -26.709 L 13.8672 -26.709 Z"/>
  </g>
  <line id="Baseline-M" style="fill:none;stroke:#27AAE1;opacity:1;stroke-width:0.5;" x1="263" x2="3036" y1="1126" y2="1126"/>
  <line id="Capline-M" style="fill:none;stroke:#27AAE1;opacity:1;stroke-width:0.5;" x1="263" x2="3036" y1="1055.54" y2="1055.54"/>
  <g id="H-reference" style="fill:#27AAE1;stroke:none;" transform="matrix(1 0 0 1 339 1556)">
   <path d="M 0.976562 0 L 3.66211 0 L 12.9883 -24.4629 L 45.7031 -24.4629 L 55.0781 0 L 57.7148 0 L 30.6152 -70.459 L 28.125 -70.459 Z M 29.2969 -67.1387 L 29.3945 -67.1387 L 44.873 -26.709 L 13.8672 -26.709 Z"/>
  </g>
  <line id="Baseline-L" style="fill:none;stroke:#27AAE1;opacity:1;stroke-width:0.5;" x1="263" x2="3036" y1="1556" y2="1556"/>
  <line id="Capline-L" style="fill:none;stroke:#27AAE1;opacity:1;stroke-width:0.5;" x1="263" x2="3036" y1="1485.54" y2="1485.54"/>
  <line id="left-margin" style="fill:none;stroke:#00AEEF;stroke-width:0.5;opacity:1.0;" x1="1379.95" x2="1379.95" y1="1030.79" y2="1150.12"/>
  <line id="right-margin" style="fill:none;stroke:#00AEEF;stroke-width:0.5;opacity:1.0;" x1="1519.74" x2="1519.74" y1="1030.79" y2="1150.12"/>
 </g>
 <g id="Symbols">
  <g id="Black-L" transform="matrix(1 0 0 1 2834.35 1556)">
   <path d="M 173.096 -1.75781 C 187.158 -15.7227 187.158 -35.0586 173.193 -49.0234 L 126.221 -95.9961 C 112.207 -110.059 93.1152 -110.059 78.9551 -95.9961 C 64.9414 -82.0312 64.9414 -62.6465 78.9062 -48.6816 L 125.879 -1.70898 C 139.893 12.3047 158.984 12.3047 173.096 -1.75781 Z M 94.4336 -62.8906 C 88.6719 -68.6523 88.5254 -75.5859 93.8965 -81.0059 C 99.2188 -86.4258 106.25 -86.2305 112.012 -80.4688 L 127.295 -65.1855 L 109.717 -47.6074 Z M 158.203 -16.6992 C 152.832 -11.3281 145.85 -11.4746 140.039 -17.2852 L 124.707 -32.6172 L 142.285 -50.1953 L 157.617 -34.8633 C 163.428 -29.0527 163.525 -22.1191 158.203 -16.6992 Z M 54.3457 39.6484 C 76.3184 39.6484 94.1406 21.7773 94.1406 -0.244141 C 94.1406 -22.1191 76.2695 -39.9414 54.3457 -39.9414 C 32.3242 -39.9414 14.4531 -22.1191 14.4531 -0.244141 C 14.4531 21.8262 32.2754 39.6484 54.3457 39.6484 Z M 54.3457 -19.5312 C 61.4746 -19.5312 67.7246 -15.6738 71.0938 -9.96094 L 37.5488 -9.96094 C 40.918 -15.6738 47.168 -19.5312 54.3457 -19.5312 Z M 54.3457 19.2383 C 47.1191 19.2383 40.8691 15.332 37.5 9.57031 L 71.0938 9.57031 C 67.7246 15.332 61.4746 19.2383 54.3457 19.2383 Z"/>
  </g>
  <g id="Heavy-L" transform="matrix(1 0 0 1 2539.98 1556)">
   <path d="M 168.799 -2.24609 C 182.275 -15.625 182.275 -34.0332 168.896 -47.4609 L 121.924 -94.4336 C 108.447 -107.861 90.2832 -107.861 76.7578 -94.3848 C 63.2324 -81.0059 63.2324 -62.5977 76.6602 -49.1699 L 123.633 -2.19727 C 137.061 11.2305 155.225 11.2305 168.799 -2.24609 Z M 90.1367 -61.2793 C 83.8379 -67.627 83.6426 -75.5371 89.5996 -81.4941 C 95.5078 -87.4512 103.467 -87.2559 109.766 -80.9082 L 126.123 -64.5996 L 106.445 -44.9707 Z M 155.957 -15.1367 C 150 -9.13086 142.09 -9.375 135.742 -15.6738 L 119.336 -32.0801 L 139.014 -51.709 L 155.371 -35.3516 C 161.719 -29.0039 161.865 -21.0938 155.957 -15.1367 Z M 52.8809 37.3535 C 74.0234 37.3535 91.2109 20.1172 91.2109 -1.07422 C 91.2109 -22.168 73.9746 -39.3066 52.8809 -39.3066 C 31.6895 -39.3066 14.4531 -22.168 14.4531 -1.07422 C 14.4531 20.166 31.5918 37.3535 52.8809 37.3535 Z M 52.8809 -21.6797 C 61.2793 -21.6797 68.5059 -16.6992 71.7773 -9.52148 L 33.9355 -9.52148 C 37.207 -16.6992 44.4824 -21.6797 52.8809 -21.6797 Z M 52.8809 19.7266 C 44.3848 19.7266 37.1582 14.6973 33.9355 7.4707 L 71.7773 7.4707 C 68.5059 14.6973 61.2793 19.7266 52.8809 19.7266 Z"/>
  </g>
  <g id="Bold-L" transform="matrix(1 0 0 1 2245.91 1556)">
   <path d="M 164.014 -2.7832 C 176.855 -15.5273 176.855 -32.9102 164.062 -45.7031 L 117.09 -92.6758 C 104.297 -105.469 87.1582 -105.469 74.2188 -92.627 C 61.377 -79.834 61.377 -62.4512 74.1699 -49.707 L 121.094 -2.73438 C 133.936 10.0586 151.074 10.0586 164.014 -2.7832 Z M 85.3516 -59.5215 C 78.3691 -66.5039 78.2227 -75.3906 84.7656 -82.0312 C 91.3574 -88.6719 100.342 -88.4277 107.275 -81.4453 L 124.756 -64.0137 L 102.832 -42.041 Z M 153.467 -13.3789 C 146.875 -6.73828 137.891 -6.98242 130.957 -13.916 L 113.379 -31.4941 L 135.352 -53.418 L 152.881 -35.8887 C 159.814 -28.9062 160.01 -19.9707 153.467 -13.3789 Z M 51.2695 34.7656 C 71.5332 34.7656 87.9395 18.3105 87.9395 -2.00195 C 87.9395 -22.168 71.4844 -38.623 51.2695 -38.623 C 30.957 -38.623 14.502 -22.168 14.502 -2.00195 C 14.502 18.3594 30.9082 34.7656 51.2695 34.7656 Z M 51.2695 -24.0723 C 60.9863 -24.0723 69.3359 -17.7734 72.2656 -9.0332 L 30.1758 -9.0332 C 33.1055 -17.7734 41.4551 -24.0723 51.2695 -24.0723 Z M 51.2695 20.2637 C 41.4062 20.2637 33.1055 13.916 30.1758 5.12695 L 72.2656 5.12695 C 69.3359 13.916 61.0352 20.2637 51.2695 20.2637 Z"/>
  </g>
  <g id="Semibold-L" transform="matrix(1 0 0 1 1951.03 1556)">
   <path d="M 160.693 -3.17383 C 173.096 -15.4785 173.096 -32.1289 160.742 -44.4824 L 113.77 -91.4551 C 101.416 -103.809 84.9609 -103.76 72.5098 -91.3574 C 60.1074 -79.0527 60.1074 -62.4023 72.4121 -50.0488 L 119.385 -3.125 C 131.738 9.22852 148.193 9.22852 160.693 -3.17383 Z M 82.0312 -58.3008 C 74.6582 -65.6738 74.4141 -75.3418 81.4453 -82.4219 C 88.4766 -89.4531 98.1934 -89.209 105.566 -81.8359 L 123.828 -63.5742 L 100.293 -40.0391 Z M 151.709 -12.1582 C 144.678 -5.07812 135.01 -5.32227 127.637 -12.6953 L 109.277 -31.0547 L 132.812 -54.5898 L 151.172 -36.2305 C 158.545 -28.8574 158.74 -19.1895 151.709 -12.1582 Z M 50.1465 33.0078 C 69.7754 33.0078 85.6934 17.041 85.6934 -2.63672 C 85.6934 -22.168 69.7266 -38.1348 50.1465 -38.1348 C 30.4688 -38.1348 14.502 -22.168 14.502 -2.63672 C 14.502 17.0898 30.3711 33.0078 50.1465 33.0078 Z M 50.1465 -25.7324 C 60.791 -25.7324 69.8242 -18.5059 72.5098 -8.69141 L 27.6855 -8.69141 C 30.3711 -18.5059 39.4043 -25.7324 50.1465 -25.7324 Z M 50.1465 20.6055 C 39.3555 20.6055 30.3711 13.3789 27.6855 3.4668 L 72.5098 3.4668 C 69.8242 13.3789 60.8398 20.6055 50.1465 20.6055 Z"/>
  </g>
  <g id="Medium-L" transform="matrix(1 0 0 1 1655.69 1556)">
   <path d="M 158.154 -3.4668 C 170.215 -15.4297 170.264 -31.543 158.252 -43.5547 L 111.279 -90.5273 C 99.2676 -102.539 83.3496 -102.49 71.1914 -90.4297 C 59.1309 -78.4668 59.1309 -62.3535 71.0938 -50.3418 L 118.066 -3.36914 C 130.078 8.64258 146.045 8.59375 158.154 -3.4668 Z M 79.4922 -57.373 C 71.8262 -65.0879 71.582 -75.293 78.9551 -82.666 C 86.3281 -90.0879 96.5332 -89.8438 104.248 -82.1289 L 123.145 -63.2324 L 98.3887 -38.5254 Z M 150.391 -11.2305 C 143.018 -3.80859 132.812 -4.05273 125.098 -11.7676 L 106.152 -30.7617 L 130.908 -55.4688 L 149.854 -36.5234 C 157.568 -28.8086 157.764 -18.6035 150.391 -11.2305 Z M 49.2676 31.6895 C 68.457 31.6895 83.9844 16.0645 83.9844 -3.125 C 83.9844 -22.168 68.4082 -37.7441 49.2676 -37.7441 C 30.0781 -37.7441 14.502 -22.168 14.502 -3.125 C 14.502 16.1133 30.0293 31.6895 49.2676 31.6895 Z M 49.2676 -27.002 C 60.6445 -27.002 70.2148 -19.043 72.6562 -8.39844 L 25.8789 -8.39844 C 28.2715 -19.043 37.8906 -27.002 49.2676 -27.002 Z M 49.2676 20.8984 C 37.793 20.8984 28.2715 12.9883 25.8789 2.24609 L 72.6562 2.24609 C 70.2148 12.9395 60.6934 20.8984 49.2676 20.8984 Z"/>
  </g>
  <g id="Regular-L" transform="matrix(1 0 0 1 1360.78 1556)">
   <path d="M 154.883 -3.80859 C 166.504 -15.3809 166.553 -30.7617 154.98 -42.334 L 108.008 -89.3066 C 96.4355 -100.879 81.2012 -100.83 69.4824 -89.209 C 57.8613 -77.6855 57.8125 -62.3047 69.3848 -50.7324 L 116.357 -3.75977 C 127.93 7.8125 143.164 7.8125 154.883 -3.80859 Z M 76.2207 -56.1523 C 68.1152 -64.3066 67.8711 -75.1953 75.6836 -83.0566 C 83.4961 -90.8691 94.3848 -90.625 102.539 -82.4707 L 122.217 -62.793 L 95.8984 -36.5234 Z M 148.682 -10.0098 C 140.869 -2.19727 129.98 -2.44141 121.826 -10.5957 L 102.1 -30.3223 L 128.369 -56.6406 L 148.145 -36.8652 C 156.25 -28.7598 156.494 -17.8711 148.682 -10.0098 Z M 48.1934 29.9316 C 66.6992 29.9316 81.7871 14.8438 81.7871 -3.75977 C 81.7871 -22.2168 66.6992 -37.2559 48.1934 -37.2559 C 29.5898 -37.2559 14.502 -22.2168 14.502 -3.75977 C 14.502 14.8438 29.541 29.9316 48.1934 29.9316 Z M 48.1934 -28.6133 C 60.4004 -28.6133 70.7031 -19.7266 72.7539 -8.05664 L 23.5352 -8.05664 C 25.5859 -19.7266 35.8887 -28.6133 48.1934 -28.6133 Z M 48.1934 21.2891 C 35.791 21.2891 25.5859 12.4023 23.5352 0.683594 L 72.7539 0.683594 C 70.6543 12.3535 60.498 21.2891 48.1934 21.2891 Z"/>
  </g>
  <g id="Light-L" transform="matrix(1 0 0 1 1065.63 1556)">
   <path d="M 152.051 -4.54102 C 163.232 -15.6738 163.281 -30.4199 152.1 -41.6016 L 105.176 -88.5742 C 93.9453 -99.7559 79.3945 -99.707 68.0664 -88.5254 C 56.8848 -77.3926 56.8359 -62.5977 68.0176 -51.416 L 114.941 -4.49219 C 126.172 6.73828 140.723 6.68945 152.051 -4.54102 Z M 73.3887 -55.4688 C 64.8438 -63.9648 64.6484 -75.5371 72.8027 -83.7402 C 81.0059 -91.9922 92.627 -91.6992 101.123 -83.2031 L 121.533 -62.793 L 93.75 -35.0586 Z M 147.314 -9.27734 C 139.111 -1.02539 127.49 -1.31836 118.994 -9.86328 L 98.5352 -30.3223 L 126.27 -58.0566 L 146.729 -37.5977 C 155.225 -29.1016 155.469 -17.5293 147.314 -9.27734 Z M 47.168 28.9062 C 65.1367 28.9062 79.7363 14.2578 79.7363 -3.75977 C 79.7363 -21.6309 65.0879 -36.2305 47.168 -36.2305 C 29.1504 -36.2305 14.502 -21.6309 14.502 -3.75977 C 14.502 14.3066 29.0527 28.9062 47.168 28.9062 Z M 47.168 -29.6387 C 60.3027 -29.6387 71.2891 -19.7754 72.9004 -7.03125 L 21.3379 -7.03125 C 22.998 -19.7754 33.9355 -29.6387 47.168 -29.6387 Z M 47.168 22.3145 C 33.8867 22.3145 22.998 12.4512 21.3379 -0.341797 L 72.9004 -0.341797 C 71.2402 12.4023 60.3516 22.3145 47.168 22.3145 Z"/>
  </g>
  <g id="Thin-L" transform="matrix(1 0 0 1 771.022 1556)">
   <path d="M 148.291 -5.51758 C 158.936 -16.1133 159.033 -29.9805 148.34 -40.6738 L 101.367 -87.6465 C 90.7227 -98.291 77.002 -98.2422 66.2109 -87.5488 C 55.5664 -76.9531 55.4688 -63.0371 66.1621 -52.3926 L 113.086 -5.41992 C 123.779 5.22461 137.5 5.17578 148.291 -5.51758 Z M 69.6289 -54.4922 C 60.5957 -63.5254 60.3516 -75.9277 69.043 -84.7168 C 77.7832 -93.5059 90.2344 -93.1641 99.2676 -84.1309 L 120.605 -62.793 L 90.9668 -33.1543 Z M 145.459 -8.34961 C 136.719 0.439453 124.268 0.146484 115.234 -8.88672 L 93.7988 -30.3223 L 123.438 -59.9609 L 144.873 -38.5742 C 153.906 -29.541 154.15 -17.1387 145.459 -8.34961 Z M 45.8008 27.5879 C 63.0859 27.5879 77.0508 13.5254 77.0508 -3.75977 C 77.0508 -20.8984 62.9883 -34.9121 45.8008 -34.9121 C 28.5645 -34.9121 14.502 -20.8984 14.502 -3.75977 C 14.502 13.5742 28.4668 27.5879 45.8008 27.5879 Z M 45.8008 -30.957 C 60.1562 -30.957 72.0215 -19.8242 73.0469 -5.71289 L 18.5059 -5.71289 C 19.5312 -19.8242 31.3965 -30.957 45.8008 -30.957 Z M 45.8008 23.6328 C 31.3477 23.6328 19.5312 12.5 18.5059 -1.70898 L 73.0469 -1.70898 C 72.0215 12.4512 60.2051 23.6328 45.8008 23.6328 Z"/>
  </g>
  <g id="Ultralight-L" transform="matrix(1 0 0 1 475.361 1556)">
   <path d="M 146.338 -6.00586 C 156.738 -16.3086 156.836 -29.7852 146.436 -40.1855 L 99.4629 -87.1582 C 89.0625 -97.5586 75.7324 -97.4609 65.2832 -87.0605 C 54.8828 -76.7578 54.7852 -63.2812 65.1855 -52.8809 L 112.158 -5.9082 C 122.559 4.49219 135.84 4.39453 146.338 -6.00586 Z M 67.6758 -54.0039 C 58.3984 -63.3301 58.1543 -76.123 67.1387 -85.2051 C 76.123 -94.2871 89.0137 -93.9453 98.3398 -84.6191 L 120.166 -62.793 L 89.502 -32.1777 Z M 144.482 -7.86133 C 135.498 1.2207 122.607 0.878906 113.281 -8.39844 L 91.4062 -30.3223 L 122.021 -60.9375 L 143.896 -39.0625 C 153.223 -29.7363 153.467 -16.8945 144.482 -7.86133 Z M 45.1172 26.9043 C 62.0117 26.9043 75.6836 13.1348 75.6836 -3.75977 C 75.6836 -20.5566 61.9141 -34.2285 45.1172 -34.2285 C 28.2715 -34.2285 14.502 -20.5566 14.502 -3.75977 C 14.502 13.1836 28.1738 26.9043 45.1172 26.9043 Z M 45.1172 -31.6406 C 60.0586 -31.6406 72.4121 -19.8242 73.0957 -5.0293 L 17.0898 -5.0293 C 17.7734 -19.8242 30.0781 -31.6406 45.1172 -31.6406 Z M 45.1172 24.3164 C 30.0293 24.3164 17.7734 12.5 17.0898 -2.39258 L 73.0957 -2.39258 C 72.4121 12.4512 60.1562 24.3164 45.1172 24.3164 Z"/>
  </g>
  <g id="Black-M" transform="matrix(1 0 0 1 2854.25 1126)">
   <path d="M 138.477 -8.98438 C 149.902 -20.4102 149.902 -36.2793 138.525 -47.7051 L 102.148 -84.082 C 90.6738 -95.5078 75.0488 -95.5078 63.5254 -84.082 C 52.0508 -72.7051 52.0508 -56.7871 63.4766 -45.4102 L 99.8535 -8.98438 C 111.328 2.44141 126.953 2.44141 138.477 -8.98438 Z M 77.5391 -58.3984 C 73.584 -62.3535 73.5352 -66.7969 77.0996 -70.459 C 80.6641 -74.0723 85.2051 -73.9746 89.1602 -70.0195 L 99.9512 -59.1797 L 88.3301 -47.5586 Z M 124.902 -22.6074 C 121.338 -18.9941 116.797 -19.1406 112.842 -23.0469 L 101.953 -33.9355 L 113.574 -45.5566 L 124.463 -34.668 C 128.418 -30.7129 128.467 -26.2695 124.902 -22.6074 Z M 43.5547 25.3418 C 61.377 25.3418 75.8301 10.8398 75.8301 -6.98242 C 75.8301 -24.7559 61.3281 -39.209 43.5547 -39.209 C 25.7324 -39.209 11.2305 -24.7559 11.2305 -6.98242 C 11.2305 10.8887 25.6836 25.3418 43.5547 25.3418 Z M 43.5547 -20.752 C 47.8516 -20.752 51.709 -18.75 54.248 -15.6738 L 32.8613 -15.6738 C 35.4004 -18.75 39.2578 -20.752 43.5547 -20.752 Z M 43.5547 6.88477 C 39.209 6.88477 35.3516 4.88281 32.8125 1.75781 L 54.248 1.75781 C 51.709 4.88281 47.9004 6.88477 43.5547 6.88477 Z"/>
  </g>
  <g id="Heavy-M" transform="matrix(1 0 0 1 2559.71 1126)">
   <path d="M 134.521 -9.32617 C 145.41 -20.2148 145.41 -35.2539 134.57 -46.1426 L 98.1445 -82.5195 C 87.2559 -93.457 72.4121 -93.457 61.4258 -82.5195 C 50.4883 -71.6797 50.4883 -56.5918 61.377 -45.752 L 97.7539 -9.32617 C 108.691 1.5625 123.535 1.5625 134.521 -9.32617 Z M 73.5352 -56.8848 C 69.0918 -61.3281 68.9941 -66.6504 73.0957 -70.8008 C 77.1973 -74.9512 82.5684 -74.8047 87.0605 -70.3613 L 98.8281 -58.5938 L 85.3027 -45.0684 Z M 122.803 -21.0938 C 118.701 -16.9434 113.33 -17.0898 108.887 -21.5332 L 97.0703 -33.3496 L 110.547 -46.8262 L 122.363 -35.0098 C 126.807 -30.5664 126.904 -25.2441 122.803 -21.0938 Z M 42.2363 23.0957 C 59.3262 23.0957 73.1934 9.17969 73.1934 -7.91016 C 73.1934 -24.9023 59.2773 -38.7695 42.2363 -38.7695 C 25.1465 -38.7695 11.2305 -24.9023 11.2305 -7.91016 C 11.2305 9.22852 25.0977 23.0957 42.2363 23.0957 Z M 42.2363 -22.8027 C 47.7051 -22.8027 52.4902 -19.873 55.127 -15.4785 L 29.2969 -15.4785 C 31.9336 -19.873 36.7676 -22.8027 42.2363 -22.8027 Z M 42.2363 7.12891 C 36.7188 7.12891 31.8848 4.15039 29.2969 -0.244141 L 55.127 -0.244141 C 52.5391 4.15039 47.7051 7.12891 42.2363 7.12891 Z"/>
  </g>
  <g id="Bold-M" transform="matrix(1 0 0 1 2265.44 1126)">
   <path d="M 130.078 -9.76562 C 140.381 -20.0195 140.43 -34.1309 130.127 -44.4336 L 93.7012 -80.8105 C 83.3984 -91.1133 69.4824 -91.1133 59.082 -80.7617 C 48.7305 -70.5078 48.7305 -56.3965 59.0332 -46.0938 L 95.4102 -9.7168 C 105.713 0.585938 119.629 0.585938 130.078 -9.76562 Z M 69.0918 -55.127 C 64.1113 -60.1562 63.9648 -66.4062 68.6523 -71.1426 C 73.3887 -75.8789 79.6875 -75.7324 84.7168 -70.7031 L 97.5098 -57.9102 L 81.9336 -42.334 Z M 120.459 -19.3848 C 115.771 -14.6484 109.473 -14.7949 104.443 -19.7754 L 91.5527 -32.666 L 107.129 -48.291 L 120.02 -35.4004 C 125.049 -30.3711 125.146 -24.1211 120.459 -19.3848 Z M 40.7227 20.6055 C 56.9824 20.6055 70.166 7.37305 70.166 -8.93555 C 70.166 -25.0977 56.9336 -38.2812 40.7227 -38.2812 C 24.4629 -38.2812 11.2305 -25.0977 11.2305 -8.93555 C 11.2305 7.42188 24.4141 20.6055 40.7227 20.6055 Z M 40.7227 -25.1465 C 47.4609 -25.1465 53.2715 -21.0449 55.7129 -15.2344 L 25.6836 -15.2344 C 28.1738 -21.0449 33.9844 -25.1465 40.7227 -25.1465 Z M 40.7227 7.42188 C 33.9355 7.42188 28.1738 3.32031 25.6836 -2.53906 L 55.7129 -2.53906 C 53.2715 3.32031 47.4609 7.42188 40.7227 7.42188 Z"/>
  </g>
  <g id="Semibold-M" transform="matrix(1 0 0 1 1970.42 1126)">
   <path d="M 127.002 -10.0098 C 136.914 -19.873 136.963 -33.3496 127.051 -43.2129 L 90.6738 -79.6387 C 80.7617 -89.5508 67.4805 -89.502 57.4707 -79.5898 C 47.5098 -69.7266 47.5098 -56.25 57.4219 -46.3867 L 93.7988 -9.96094 C 103.711 -0.0488281 116.992 -0.0488281 127.002 -10.0098 Z M 66.0645 -53.9551 C 60.6445 -59.3262 60.498 -66.2598 65.625 -71.4355 C 70.7031 -76.5625 77.6855 -76.3672 83.0566 -70.9961 L 96.6309 -57.4219 L 79.5898 -40.3809 Z M 118.848 -18.1641 C 113.721 -13.0371 106.787 -13.2324 101.367 -18.6035 L 87.7441 -32.2266 L 104.785 -49.2676 L 118.408 -35.6445 C 123.828 -30.2246 123.975 -23.291 118.848 -18.1641 Z M 39.6973 18.8477 C 55.3711 18.8477 68.1152 6.10352 68.1152 -9.61914 C 68.1152 -25.2441 55.3711 -37.9883 39.6973 -37.9883 C 23.9746 -37.9883 11.2305 -25.2441 11.2305 -9.61914 C 11.2305 6.15234 23.9258 18.8477 39.6973 18.8477 Z M 39.6973 -26.709 C 47.2656 -26.709 53.7109 -21.8262 56.0059 -15.0391 L 23.3398 -15.0391 C 25.6836 -21.8262 32.1289 -26.709 39.6973 -26.709 Z M 39.6973 7.61719 C 32.0801 7.61719 25.6348 2.73438 23.3398 -4.10156 L 56.0059 -4.10156 C 53.7109 2.73438 47.2656 7.61719 39.6973 7.61719 Z"/>
  </g>
  <g id="Medium-M" transform="matrix(1 0 0 1 1674.97 1126)">
   <path d="M 124.658 -10.2051 C 134.326 -19.7754 134.326 -32.7637 124.756 -42.334 L 88.3301 -78.7109 C 78.7598 -88.3301 65.918 -88.3301 56.25 -78.6621 C 46.582 -69.0918 46.582 -56.1523 56.1523 -46.582 L 92.5781 -10.1562 C 102.148 -0.585938 114.99 -0.585938 124.658 -10.2051 Z M 63.7207 -53.0273 C 58.0078 -58.7402 57.8613 -66.1621 63.2812 -71.6309 C 68.7012 -77.0508 76.1719 -76.8555 81.8359 -71.1914 L 95.9473 -57.0801 L 77.832 -38.916 Z M 117.627 -17.2852 C 112.207 -11.8164 104.736 -12.0117 99.0723 -17.7246 L 84.8633 -31.8848 L 103.027 -50 L 117.188 -35.8398 C 122.9 -30.127 123.047 -22.7051 117.627 -17.2852 Z M 38.916 17.5781 C 54.1504 17.5781 66.5527 5.12695 66.5527 -10.1562 C 66.5527 -25.3418 54.1504 -37.6953 38.916 -37.6953 C 23.6328 -37.6953 11.2305 -25.3418 11.2305 -10.1562 C 11.2305 5.17578 23.584 17.5781 38.916 17.5781 Z M 38.916 -27.9297 C 47.1191 -27.9297 54.0039 -22.4121 56.1523 -14.9414 L 21.6797 -14.9414 C 23.7793 -22.4121 30.7129 -27.9297 38.916 -27.9297 Z M 38.916 7.76367 C 30.6641 7.76367 23.7793 2.29492 21.6797 -5.27344 L 56.1523 -5.27344 C 54.0039 2.24609 47.1191 7.76367 38.916 7.76367 Z"/>
  </g>
  <g id="Regular-M" transform="matrix(1 0 0 1 1379.95 1126)">
   <path d="M 121.631 -10.498 C 130.859 -19.6777 130.908 -31.9824 121.729 -41.1621 L 85.3027 -77.5391 C 76.123 -86.7188 63.916 -86.7188 54.6387 -77.4902 C 45.4102 -68.3105 45.4102 -56.0059 54.5898 -46.8262 L 90.9668 -10.4004 C 100.146 -1.2207 112.354 -1.26953 121.631 -10.498 Z M 60.6934 -51.8555 C 54.5898 -57.959 54.4434 -66.0156 60.2539 -71.875 C 66.0645 -77.7344 74.1699 -77.5391 80.2734 -71.4355 L 95.0684 -56.5918 L 75.5371 -37.0605 Z M 116.016 -16.1133 C 110.205 -10.2539 102.1 -10.4492 96.0449 -16.5527 L 81.1523 -31.4453 L 100.684 -50.9766 L 115.576 -36.084 C 121.68 -30.0293 121.875 -21.9238 116.016 -16.1133 Z M 37.8906 15.8691 C 52.5879 15.8691 64.502 3.90625 64.502 -10.8398 C 64.502 -25.4395 52.5879 -37.4023 37.8906 -37.4023 C 23.1934 -37.4023 11.2305 -25.4395 11.2305 -10.8398 C 11.2305 3.90625 23.1445 15.8691 37.8906 15.8691 Z M 37.8906 -29.541 C 46.875 -29.541 54.4434 -23.1934 56.25 -14.7461 L 19.5312 -14.7461 C 21.3379 -23.1934 28.9062 -29.541 37.8906 -29.541 Z M 37.8906 8.00781 C 28.8574 8.00781 21.3379 1.66016 19.5312 -6.83594 L 56.25 -6.83594 C 54.3945 1.61133 46.9238 8.00781 37.8906 8.00781 Z"/>
  </g>
  <g id="Light-M" transform="matrix(1 0 0 1 1084.63 1126)">
   <path d="M 119.092 -11.1328 C 127.979 -19.9219 127.979 -31.6895 119.141 -40.5273 L 82.7637 -76.9043 C 73.9258 -85.7422 62.3047 -85.6934 53.3691 -76.8555 C 44.5312 -68.0176 44.4824 -56.2988 53.3203 -47.4609 L 89.6973 -11.084 C 98.5352 -2.24609 110.156 -2.24609 119.092 -11.1328 Z M 58.1543 -51.2207 C 51.709 -57.666 51.5137 -66.3086 57.7148 -72.5098 C 63.8672 -78.7109 72.5586 -78.5156 79.0039 -72.0703 L 94.4824 -56.5918 L 73.6328 -35.7422 Z M 114.746 -15.4297 C 108.594 -9.22852 99.9023 -9.47266 93.457 -15.8691 L 77.9297 -31.4453 L 98.7793 -52.2949 L 114.355 -36.7676 C 120.752 -30.3223 120.947 -21.6797 114.746 -15.4297 Z M 37.0117 14.9414 C 51.1719 14.9414 62.6953 3.36914 62.6953 -10.8398 C 62.6953 -24.9512 51.123 -36.4746 37.0117 -36.4746 C 22.8027 -36.4746 11.2305 -24.9512 11.2305 -10.8398 C 11.2305 3.41797 22.7051 14.9414 37.0117 14.9414 Z M 37.0117 -30.4199 C 46.7773 -30.4199 54.9805 -23.2422 56.4453 -13.8672 L 17.4805 -13.8672 C 18.9453 -23.2422 27.1484 -30.4199 37.0117 -30.4199 Z M 37.0117 8.88672 C 27.0996 8.88672 18.9941 1.70898 17.5293 -7.76367 L 56.4453 -7.76367 C 54.9316 1.66016 46.8262 8.88672 37.0117 8.88672 Z"/>
  </g>
  <g id="Thin-M" transform="matrix(1 0 0 1 789.796 1126)">
   <path d="M 115.723 -11.9629 C 124.121 -20.3125 124.17 -31.25 115.771 -39.6484 L 79.3945 -76.0254 C 70.9961 -84.4238 60.1562 -84.375 51.709 -75.9766 C 43.3105 -67.6758 43.2617 -56.6895 51.6602 -48.3398 L 88.0371 -11.9141 C 96.4355 -3.56445 107.275 -3.61328 115.723 -11.9629 Z M 54.7852 -50.3906 C 47.8516 -57.2754 47.7051 -66.6992 54.3457 -73.3887 C 60.9863 -80.0781 70.459 -79.834 77.3438 -72.9492 L 93.6523 -56.5918 L 71.0938 -34.0332 Z M 113.086 -14.5996 C 106.445 -7.91016 96.9727 -8.1543 90.0879 -15.0391 L 73.7305 -31.4453 L 96.2891 -54.0039 L 112.646 -37.5977 C 119.58 -30.7129 119.727 -21.2891 113.086 -14.5996 Z M 35.791 13.7207 C 49.3164 13.7207 60.3027 2.68555 60.3027 -10.8398 C 60.3027 -24.2676 49.2676 -35.2539 35.791 -35.2539 C 22.2656 -35.2539 11.2305 -24.2676 11.2305 -10.8398 C 11.2305 2.73438 22.2168 13.7207 35.791 13.7207 Z M 35.791 -31.6406 C 46.6309 -31.6406 55.6641 -23.291 56.5918 -12.6465 L 14.9414 -12.6465 C 15.8691 -23.291 24.8535 -31.6406 35.791 -31.6406 Z M 35.791 10.1074 C 24.8535 10.1074 15.8691 1.75781 14.9414 -8.93555 L 56.5918 -8.93555 C 55.6152 1.70898 46.6797 10.1074 35.791 10.1074 Z"/>
  </g>
  <g id="Ultralight-M" transform="matrix(1 0 0 1 494.037 1126)">
   <path d="M 113.965 -12.4023 C 122.119 -20.5078 122.217 -31.0547 114.062 -39.209 L 77.6367 -75.6348 C 69.5312 -83.7402 59.082 -83.6914 50.8789 -75.5371 C 42.7246 -67.4805 42.6758 -56.8848 50.7812 -48.7793 L 87.207 -12.3535 C 95.3613 -4.19922 105.762 -4.29688 113.965 -12.4023 Z M 53.0273 -49.9512 C 45.8984 -57.0801 45.7031 -66.8945 52.5879 -73.8281 C 59.4727 -80.7617 69.3359 -80.5176 76.4648 -73.3887 L 93.2617 -56.5918 L 69.8242 -33.1543 Z M 112.256 -14.1602 C 105.371 -7.22656 95.5078 -7.4707 88.3789 -14.5996 L 71.5332 -31.4453 L 94.9707 -54.8828 L 111.816 -38.0371 C 118.945 -30.9082 119.141 -21.0938 112.256 -14.1602 Z M 35.1562 13.1348 C 48.3398 13.1348 59.0332 2.34375 59.0332 -10.8398 C 59.0332 -23.9746 48.291 -34.668 35.1562 -34.668 C 21.9727 -34.668 11.2305 -23.9746 11.2305 -10.8398 C 11.2305 2.44141 21.9238 13.1348 35.1562 13.1348 Z M 35.1562 -32.2754 C 46.582 -32.2754 56.0059 -23.291 56.6406 -12.0117 L 13.6719 -12.0117 C 14.3066 -23.291 23.7305 -32.2754 35.1562 -32.2754 Z M 35.1562 10.7422 C 23.6816 10.7422 14.3066 1.75781 13.6719 -9.57031 L 56.6406 -9.57031 C 55.957 1.70898 46.6309 10.7422 35.1562 10.7422 Z"/>
  </g>
  <g id="Black-S" transform="matrix(1 0 0 1 2871.56 696)">
   <path d="M 108.203 -14.6973 C 117.139 -23.584 117.139 -35.9863 108.252 -44.873 L 79.7363 -73.3887 C 70.8008 -82.3242 58.5938 -82.3242 49.6094 -73.3887 C 40.6738 -64.502 40.6738 -52.0996 49.5605 -43.2129 L 78.0762 -14.6973 C 87.0117 -5.76172 99.2188 -5.76172 108.203 -14.6973 Z M 60.4492 -53.2715 C 57.3242 -56.3965 57.2754 -59.9609 60.1074 -62.8418 C 62.9395 -65.7227 66.5527 -65.625 69.6777 -62.5 L 78.2227 -53.9551 L 68.9941 -44.7266 Z M 97.7051 -25.2441 C 94.873 -22.3633 91.2598 -22.4609 88.1348 -25.5859 L 79.541 -34.1797 L 88.7695 -43.4082 L 97.3633 -34.8145 C 100.488 -31.6895 100.537 -28.125 97.7051 -25.2441 Z M 34.0332 12.0605 C 47.9492 12.0605 59.2285 0.732422 59.2285 -13.1836 C 59.2285 -27.0508 47.9004 -38.3301 34.0332 -38.3301 C 20.1172 -38.3301 8.78906 -27.0508 8.78906 -13.1836 C 8.78906 0.78125 20.0684 12.0605 34.0332 12.0605 Z M 34.0332 -24.0234 C 37.5 -24.0234 40.5762 -22.4121 42.5293 -19.9219 L 25.4883 -19.9219 C 27.4902 -22.4121 30.5664 -24.0234 34.0332 -24.0234 Z M 34.0332 -2.24609 C 30.5664 -2.24609 27.4414 -3.85742 25.4395 -6.39648 L 42.5781 -6.39648 C 40.5762 -3.85742 37.5 -2.24609 34.0332 -2.24609 Z"/>
  </g>
  <g id="Heavy-S" transform="matrix(1 0 0 1 2576.36 696)">
   <path d="M 105.469 -14.8926 C 114.014 -23.4375 114.014 -35.2539 105.518 -43.75 L 77.002 -72.2656 C 68.4082 -80.8594 56.7871 -80.8594 48.1445 -72.2656 C 39.5508 -63.7207 39.5508 -51.9043 48.0957 -43.4082 L 76.6113 -14.8926 C 85.1562 -6.29883 96.8262 -6.29883 105.469 -14.8926 Z M 57.7148 -52.1484 C 54.1992 -55.6152 54.1504 -59.7656 57.373 -63.0371 C 60.5469 -66.2598 64.7461 -66.1621 68.2129 -62.6953 L 77.3926 -53.4668 L 66.8945 -42.9688 Z M 96.2402 -24.1211 C 93.0176 -20.8984 88.8672 -20.9961 85.4004 -24.4629 L 76.123 -33.7402 L 86.6699 -44.2383 L 95.8984 -35.0098 C 99.3652 -31.543 99.4629 -27.3926 96.2402 -24.1211 Z M 33.1055 10.4492 C 46.5332 10.4492 57.373 -0.439453 57.373 -13.8672 C 57.373 -27.2461 46.4844 -38.0859 33.1055 -38.0859 C 19.6777 -38.0859 8.78906 -27.2461 8.78906 -13.8672 C 8.78906 -0.439453 19.6289 10.4492 33.1055 10.4492 Z M 33.1055 -25.4883 C 37.3535 -25.4883 41.0645 -23.2422 43.1152 -19.873 L 23.0469 -19.873 C 25.0977 -23.2422 28.8574 -25.4883 33.1055 -25.4883 Z M 33.1055 -2.14844 C 28.8086 -2.14844 25.0977 -4.44336 23.0469 -7.86133 L 43.1152 -7.86133 C 41.1133 -4.44336 37.3535 -2.14844 33.1055 -2.14844 Z"/>
  </g>
  <g id="Bold-S" transform="matrix(1 0 0 1 2281.34 696)">
   <path d="M 102.344 -15.1367 C 110.547 -23.2422 110.547 -34.4238 102.393 -42.5293 L 73.877 -71.0449 C 65.7715 -79.1992 54.7363 -79.1992 46.5332 -70.9961 C 38.3301 -62.8906 38.3301 -51.709 46.4844 -43.6035 L 75 -15.0879 C 83.1055 -6.93359 94.1406 -6.93359 102.344 -15.1367 Z M 54.5898 -50.9277 C 50.7324 -54.7852 50.6348 -59.5703 54.248 -63.2324 C 57.9102 -66.8945 62.6953 -66.748 66.6016 -62.8906 L 76.5137 -52.9785 L 64.5508 -41.0156 Z M 94.6289 -22.9004 C 90.9668 -19.2383 86.1816 -19.3848 82.2754 -23.2422 L 72.3145 -33.2031 L 84.2773 -45.166 L 94.2871 -35.2051 C 98.1445 -31.3477 98.2422 -26.5625 94.6289 -22.9004 Z M 32.0801 8.64258 C 44.9219 8.64258 55.3223 -1.80664 55.3223 -14.6484 C 55.3223 -27.4414 44.873 -37.8418 32.0801 -37.8418 C 19.2383 -37.8418 8.78906 -27.4414 8.78906 -14.6484 C 8.78906 -1.75781 19.1895 8.64258 32.0801 8.64258 Z M 32.0801 -27.1484 C 37.1582 -27.1484 41.5527 -24.1211 43.5547 -19.7754 L 20.5566 -19.7754 C 22.5586 -24.1211 26.9531 -27.1484 32.0801 -27.1484 Z M 32.0801 -2.05078 C 26.9531 -2.05078 22.5098 -5.07812 20.5566 -9.47266 L 43.5547 -9.47266 C 41.6016 -5.07812 37.207 -2.05078 32.0801 -2.05078 Z"/>
  </g>
  <g id="Semibold-S" transform="matrix(1 0 0 1 1985.8 696)">
   <path d="M 100.244 -15.2832 C 108.154 -23.0957 108.154 -33.8379 100.293 -41.6504 L 71.7773 -70.166 C 63.916 -78.0762 53.3203 -78.0762 45.3613 -70.166 C 37.5 -62.3047 37.5 -51.6113 45.3125 -43.75 L 73.8281 -15.2344 C 81.6895 -7.37305 92.2852 -7.37305 100.244 -15.2832 Z M 52.4902 -50.0488 C 48.3398 -54.1992 48.2422 -59.4727 52.1484 -63.3789 C 56.0547 -67.2852 61.3281 -67.1387 65.4297 -63.0371 L 75.8789 -52.5879 L 62.8906 -39.6484 Z M 93.457 -22.0215 C 89.5508 -18.1152 84.2773 -18.2617 80.1758 -22.3633 L 69.6777 -32.8613 L 82.666 -45.8496 L 93.1152 -35.3516 C 97.2656 -31.2012 97.3633 -25.9766 93.457 -22.0215 Z M 31.3965 7.42188 C 43.7988 7.42188 53.9062 -2.73438 53.9062 -15.1855 C 53.9062 -27.5879 43.7988 -37.6465 31.3965 -37.6465 C 18.8965 -37.6465 8.78906 -27.5879 8.78906 -15.1855 C 8.78906 -2.68555 18.8477 7.42188 31.3965 7.42188 Z M 31.3965 -28.3203 C 37.0117 -28.3203 41.8945 -24.7559 43.75 -19.7266 L 18.9453 -19.7266 C 20.8496 -24.7559 25.6836 -28.3203 31.3965 -28.3203 Z M 31.3965 -1.95312 C 25.6348 -1.95312 20.8008 -5.51758 18.9453 -10.5957 L 43.75 -10.5957 C 41.8945 -5.56641 37.0605 -1.95312 31.3965 -1.95312 Z"/>
  </g>
  <g id="Medium-S" transform="matrix(1 0 0 1 1689.96 696)">
   <path d="M 98.6328 -15.3809 C 106.299 -22.998 106.299 -33.3984 98.6816 -41.0156 L 70.166 -69.5312 C 62.5 -77.1973 52.2461 -77.1973 44.5312 -69.4824 C 36.8164 -61.8652 36.8164 -51.5137 44.4824 -43.8477 L 72.998 -15.332 C 80.6641 -7.66602 90.8691 -7.71484 98.6328 -15.3809 Z M 50.8789 -49.4141 C 46.5332 -53.7598 46.4355 -59.375 50.5371 -63.4766 C 54.6387 -67.627 60.2539 -67.4805 64.5996 -63.1348 L 75.3906 -52.3438 L 61.6699 -38.623 Z M 92.627 -21.3867 C 88.5254 -17.2852 82.9102 -17.4316 78.5645 -21.7285 L 67.7246 -32.6172 L 81.3965 -46.3379 L 92.2852 -35.4492 C 96.6309 -31.1035 96.7285 -25.5371 92.627 -21.3867 Z M 30.8105 6.44531 C 42.9688 6.44531 52.832 -3.41797 52.832 -15.5762 C 52.832 -27.6855 42.9688 -37.5488 30.8105 -37.5488 C 18.6523 -37.5488 8.78906 -27.6855 8.78906 -15.5762 C 8.78906 -3.41797 18.6035 6.44531 30.8105 6.44531 Z M 30.8105 -29.1992 C 36.9141 -29.1992 42.0898 -25.1953 43.8477 -19.6777 L 17.7734 -19.6777 C 19.5312 -25.1953 24.707 -29.1992 30.8105 -29.1992 Z M 30.8105 -1.9043 C 24.707 -1.9043 19.5312 -5.85938 17.7734 -11.4258 L 43.8477 -11.4258 C 42.0898 -5.9082 36.9629 -1.9043 30.8105 -1.9043 Z"/>
  </g>
  <g id="Regular-S" transform="matrix(1 0 0 1 1394.4 696)">
   <path d="M 96.5332 -15.5273 C 103.955 -22.9004 103.955 -32.8125 96.582 -40.1855 L 68.0664 -68.7012 C 60.6934 -76.0742 50.8789 -76.0742 43.4082 -68.6523 C 35.9863 -61.2793 35.9863 -51.3672 43.3594 -43.9941 L 71.875 -15.4785 C 79.248 -8.10547 89.0625 -8.10547 96.5332 -15.5273 Z M 48.7793 -48.584 C 44.1895 -53.1738 44.043 -59.2285 48.4375 -63.623 C 52.832 -68.0176 58.8867 -67.8711 63.4766 -63.2812 L 74.8047 -52.002 L 60.0586 -37.2559 Z M 91.5039 -20.5566 C 87.1094 -16.1621 81.0547 -16.3086 76.4648 -20.8984 L 65.0879 -32.2754 L 79.7852 -46.9727 L 91.1621 -35.5957 C 95.752 -31.0059 95.8984 -24.9512 91.5039 -20.5566 Z M 30.127 5.22461 C 41.8945 5.22461 51.416 -4.3457 51.416 -16.1133 C 51.416 -27.7832 41.8457 -37.3535 30.127 -37.3535 C 18.3594 -37.3535 8.78906 -27.7832 8.78906 -16.1133 C 8.78906 -4.3457 18.3105 5.22461 30.127 5.22461 Z M 30.127 -30.3223 C 36.7676 -30.3223 42.3828 -25.7812 43.9453 -19.6289 L 16.2598 -19.6289 C 17.8711 -25.7812 23.4863 -30.3223 30.127 -30.3223 Z M 30.127 -1.80664 C 23.4375 -1.80664 17.8711 -6.34766 16.2598 -12.5488 L 43.9453 -12.5488 C 42.3828 -6.39648 36.7676 -1.80664 30.127 -1.80664 Z"/>
  </g>
  <g id="Light-S" transform="matrix(1 0 0 1 1098.93 696)">
   <path d="M 94.2871 -16.1133 C 101.367 -23.1445 101.367 -32.5684 94.3359 -39.5996 L 65.8203 -68.1152 C 58.7402 -75.1953 49.4141 -75.1465 42.2852 -68.0664 C 35.2051 -61.0352 35.2051 -51.6113 42.2363 -44.5801 L 70.752 -16.0645 C 77.832 -8.98438 87.1094 -9.0332 94.2871 -16.1133 Z M 46.5332 -47.998 C 41.6016 -52.9297 41.4551 -59.4727 46.1914 -64.209 C 50.8789 -68.9453 57.4707 -68.75 62.3535 -63.8672 L 74.2188 -52.002 L 58.3984 -36.1328 Z M 90.3809 -19.9707 C 85.6934 -15.2344 79.1016 -15.4297 74.2188 -20.3125 L 62.2559 -32.2754 L 78.125 -48.0957 L 90.0391 -36.1816 C 94.9707 -31.25 95.1172 -24.707 90.3809 -19.9707 Z M 29.3457 4.44336 C 40.625 4.44336 49.8047 -4.78516 49.8047 -16.1133 C 49.8047 -27.3438 40.625 -36.5723 29.3457 -36.5723 C 18.0176 -36.5723 8.78906 -27.3438 8.78906 -16.1133 C 8.78906 -4.78516 17.9688 4.44336 29.3457 4.44336 Z M 29.3457 -31.1035 C 36.6699 -31.1035 42.8711 -25.8301 44.1406 -18.8477 L 14.4531 -18.8477 C 15.7715 -25.8301 21.9238 -31.1035 29.3457 -31.1035 Z M 29.3457 -1.02539 C 21.875 -1.02539 15.7715 -6.29883 14.4531 -13.3301 L 44.1406 -13.3301 C 42.8223 -6.34766 36.7188 -1.02539 29.3457 -1.02539 Z"/>
  </g>
  <g id="Thin-S" transform="matrix(1 0 0 1 803.883 696)">
   <path d="M 91.3086 -16.8457 C 97.9492 -23.4863 97.998 -32.2266 91.3574 -38.8672 L 62.8418 -67.3828 C 56.1523 -74.0234 47.5586 -73.9746 40.8203 -67.334 C 34.1797 -60.6934 34.1309 -51.9531 40.7715 -45.3125 L 69.2871 -16.7969 C 75.9277 -10.1562 84.5703 -10.2051 91.3086 -16.8457 Z M 43.5547 -47.2656 C 38.2324 -52.5879 38.0859 -59.8145 43.2129 -64.9414 C 48.291 -70.1172 55.5664 -69.9219 60.8887 -64.5996 L 73.5352 -52.002 L 56.1523 -34.6191 Z M 88.916 -19.2383 C 83.7891 -14.0625 76.5137 -14.2578 71.2402 -19.5801 L 58.5449 -32.2754 L 75.8789 -49.6094 L 88.5742 -36.9141 C 93.8965 -31.5918 94.043 -24.3652 88.916 -19.2383 Z M 28.2715 3.36914 C 38.9648 3.36914 47.7051 -5.37109 47.7051 -16.1133 C 47.7051 -26.8066 38.9648 -35.498 28.2715 -35.498 C 17.5293 -35.498 8.78906 -26.8066 8.78906 -16.1133 C 8.78906 -5.32227 17.4805 3.36914 28.2715 3.36914 Z M 28.2715 -32.1777 C 36.5723 -32.1777 43.457 -25.8789 44.2871 -17.7734 L 12.1582 -17.7734 C 12.9883 -25.8301 19.9219 -32.1777 28.2715 -32.1777 Z M 28.2715 0.0488281 C 19.873 0.0488281 13.0371 -6.25 12.1582 -14.4043 L 44.2871 -14.4043 C 43.457 -6.29883 36.5723 0.0488281 28.2715 0.0488281 Z"/>
  </g>
  <g id="Ultralight-S" transform="matrix(1 0 0 1 508.002 696)">
   <path d="M 89.7461 -17.2363 C 96.1914 -23.6328 96.2402 -32.0312 89.7949 -38.4766 L 61.2793 -66.9922 C 54.834 -73.4375 46.582 -73.3887 40.0879 -66.9434 C 33.6426 -60.5469 33.5938 -52.1484 40.0391 -45.7031 L 68.5547 -17.1875 C 75 -10.7422 83.252 -10.791 89.7461 -17.2363 Z M 41.9922 -46.875 C 36.4746 -52.3926 36.3281 -59.9609 41.6504 -65.332 C 46.9727 -70.7031 54.6387 -70.5078 60.1562 -64.9902 L 73.1445 -52.002 L 55.0293 -33.8379 Z M 88.1836 -18.8477 C 82.8613 -13.4766 75.1953 -13.6719 69.6777 -19.1895 L 56.6406 -32.2754 L 74.7559 -50.3906 L 87.8418 -37.3047 C 93.3594 -31.7871 93.5059 -24.2188 88.1836 -18.8477 Z M 27.7344 2.83203 C 38.1348 2.83203 46.582 -5.71289 46.582 -16.1133 C 46.582 -26.4648 38.0859 -34.9609 27.7344 -34.9609 C 17.2852 -34.9609 8.78906 -26.4648 8.78906 -16.1133 C 8.78906 -5.66406 17.2363 2.83203 27.7344 2.83203 Z M 27.7344 -32.7148 C 36.5234 -32.7148 43.75 -25.8789 44.3359 -17.2363 L 11.0352 -17.2363 C 11.6211 -25.8789 18.8965 -32.7148 27.7344 -32.7148 Z M 27.7344 0.585938 C 18.8477 0.585938 11.6211 -6.25 11.0352 -14.9414 L 44.3359 -14.9414 C 43.75 -6.29883 36.5234 0.585938 27.7344 0.585938 Z"/>
  </g>
 </g>
</svg>
