<?xml version="1.0" encoding="UTF-8"?>
<!--Generator: Apple Native CoreSVG 129-->
<!DOCTYPE svg
PUBLIC "-//W3C//DTD SVG 1.1//EN"
       "http://www.w3.org/Graphics/SVG/1.1/DTD/svg11.dtd">
<svg version="1.1" xmlns="http://www.w3.org/2000/svg" xmlns:xlink="http://www.w3.org/1999/xlink" width="3300" height="2200">
 <!--glyph: "uni1007EA.medium", point size: 100.000000, font version: "Version 16.0d9e1", template writer version: "8"-->
 <g id="Notes">
  <rect height="2200" id="artboard" style="fill:white;opacity:1" width="3300" x="0" y="0"/>
  <line id="" style="fill:none;stroke:black;opacity:1;stroke-width:0.5;" x1="263" x2="3036" y1="292" y2="292"/>
  <text style="stroke:none;fill:black;font-family:-apple-system,&quot;SF Pro Display&quot;,&quot;SF Pro Text&quot;,Helvetica,sans-serif;font-weight:bold;" transform="matrix(1 0 0 1 263 322)">Weight/Scale Variations</text>
  <text style="stroke:none;fill:black;font-family:-apple-system,&quot;SF Pro Display&quot;,&quot;SF Pro Text&quot;,Helvetica,sans-serif;text-anchor:middle;" transform="matrix(1 0 0 1 559.711 322)">Ultralight</text>
  <text style="stroke:none;fill:black;font-family:-apple-system,&quot;SF Pro Display&quot;,&quot;SF Pro Text&quot;,Helvetica,sans-serif;text-anchor:middle;" transform="matrix(1 0 0 1 856.422 322)">Thin</text>
  <text style="stroke:none;fill:black;font-family:-apple-system,&quot;SF Pro Display&quot;,&quot;SF Pro Text&quot;,Helvetica,sans-serif;text-anchor:middle;" transform="matrix(1 0 0 1 1153.13 322)">Light</text>
  <text style="stroke:none;fill:black;font-family:-apple-system,&quot;SF Pro Display&quot;,&quot;SF Pro Text&quot;,Helvetica,sans-serif;text-anchor:middle;" transform="matrix(1 0 0 1 1449.84 322)">Regular</text>
  <text style="stroke:none;fill:black;font-family:-apple-system,&quot;SF Pro Display&quot;,&quot;SF Pro Text&quot;,Helvetica,sans-serif;text-anchor:middle;" transform="matrix(1 0 0 1 1746.56 322)">Medium</text>
  <text style="stroke:none;fill:black;font-family:-apple-system,&quot;SF Pro Display&quot;,&quot;SF Pro Text&quot;,Helvetica,sans-serif;text-anchor:middle;" transform="matrix(1 0 0 1 2043.27 322)">Semibold</text>
  <text style="stroke:none;fill:black;font-family:-apple-system,&quot;SF Pro Display&quot;,&quot;SF Pro Text&quot;,Helvetica,sans-serif;text-anchor:middle;" transform="matrix(1 0 0 1 2339.98 322)">Bold</text>
  <text style="stroke:none;fill:black;font-family:-apple-system,&quot;SF Pro Display&quot;,&quot;SF Pro Text&quot;,Helvetica,sans-serif;text-anchor:middle;" transform="matrix(1 0 0 1 2636.69 322)">Heavy</text>
  <text style="stroke:none;fill:black;font-family:-apple-system,&quot;SF Pro Display&quot;,&quot;SF Pro Text&quot;,Helvetica,sans-serif;text-anchor:middle;" transform="matrix(1 0 0 1 2933.4 322)">Black</text>
  <line id="" style="fill:none;stroke:black;opacity:1;stroke-width:0.5;" x1="263" x2="3036" y1="1903" y2="1903"/>
  <g id="" transform="matrix(1 0 0 1 263 1933)">
   <path d="M 9.24805 0.830078 C 13.5547 0.830078 17.1387 -2.74414 17.1387 -7.05078 C 17.1387 -11.3574 13.5449 -14.9316 9.23828 -14.9316 C 4.94141 -14.9316 1.36719 -11.3574 1.36719 -7.05078 C 1.36719 -2.74414 4.95117 0.830078 9.24805 0.830078 Z M 9.24805 -0.654297 C 5.70312 -0.654297 2.87109 -3.49609 2.87109 -7.05078 C 2.87109 -10.6055 5.69336 -13.4473 9.23828 -13.4473 C 12.793 -13.4473 15.6348 -10.6055 15.6445 -7.05078 C 15.6543 -3.49609 12.8027 -0.654297 9.24805 -0.654297 Z M 9.22852 -3.62305 C 9.69727 -3.62305 9.9707 -3.93555 9.9707 -4.45312 L 9.9707 -6.31836 L 12.002 -6.31836 C 12.5 -6.31836 12.832 -6.57227 12.832 -7.04102 C 12.832 -7.51953 12.5195 -7.7832 12.002 -7.7832 L 9.9707 -7.7832 L 9.9707 -9.81445 C 9.9707 -10.332 9.69727 -10.6543 9.22852 -10.6543 C 8.75977 -10.6543 8.50586 -10.3125 8.50586 -9.81445 L 8.50586 -7.7832 L 6.49414 -7.7832 C 5.97656 -7.7832 5.64453 -7.51953 5.64453 -7.04102 C 5.64453 -6.57227 5.99609 -6.31836 6.49414 -6.31836 L 8.50586 -6.31836 L 8.50586 -4.45312 C 8.50586 -3.95508 8.75977 -3.62305 9.22852 -3.62305 Z"/>
  </g>
  <g id="" transform="matrix(1 0 0 1 281.506 1933)">
   <path d="M 11.709 2.91016 C 17.1582 2.91016 21.6699 -1.61133 21.6699 -7.05078 C 21.6699 -12.5 17.1484 -17.0117 11.6992 -17.0117 C 6.25977 -17.0117 1.74805 -12.5 1.74805 -7.05078 C 1.74805 -1.61133 6.26953 2.91016 11.709 2.91016 Z M 11.709 1.25 C 7.09961 1.25 3.41797 -2.44141 3.41797 -7.05078 C 3.41797 -11.6602 7.08984 -15.3516 11.6992 -15.3516 C 16.3086 -15.3516 20 -11.6602 20.0098 -7.05078 C 20.0195 -2.44141 16.3184 1.25 11.709 1.25 Z M 11.6797 -2.66602 C 12.207 -2.66602 12.5098 -3.01758 12.5098 -3.59375 L 12.5098 -6.23047 L 15.3223 -6.23047 C 15.8691 -6.23047 16.25 -6.51367 16.25 -7.03125 C 16.25 -7.55859 15.8887 -7.86133 15.3223 -7.86133 L 12.5098 -7.86133 L 12.5098 -10.6836 C 12.5098 -11.25 12.207 -11.6113 11.6797 -11.6113 C 11.1621 -11.6113 10.8789 -11.2305 10.8789 -10.6836 L 10.8789 -7.86133 L 8.07617 -7.86133 C 7.50977 -7.86133 7.13867 -7.55859 7.13867 -7.03125 C 7.13867 -6.51367 7.5293 -6.23047 8.07617 -6.23047 L 10.8789 -6.23047 L 10.8789 -3.59375 C 10.8789 -3.03711 11.1621 -2.66602 11.6797 -2.66602 Z"/>
  </g>
  <g id="" transform="matrix(1 0 0 1 304.924 1933)">
   <path d="M 14.9707 5.66406 C 21.9336 5.66406 27.6953 -0.0976562 27.6953 -7.05078 C 27.6953 -14.0137 21.9238 -19.7754 14.9609 -19.7754 C 8.00781 -19.7754 2.25586 -14.0137 2.25586 -7.05078 C 2.25586 -0.0976562 8.01758 5.66406 14.9707 5.66406 Z M 14.9707 3.84766 C 8.93555 3.84766 4.08203 -1.01562 4.08203 -7.05078 C 4.08203 -13.0957 8.92578 -17.9492 14.9609 -17.9492 C 21.0059 -17.9492 25.8594 -13.0957 25.8691 -7.05078 C 25.8789 -1.01562 21.0156 3.84766 14.9707 3.84766 Z M 14.9414 -1.38672 C 15.5176 -1.38672 15.8594 -1.77734 15.8594 -2.38281 L 15.8594 -6.13281 L 19.7754 -6.13281 C 20.3711 -6.13281 20.7812 -6.46484 20.7812 -7.02148 C 20.7812 -7.59766 20.3906 -7.93945 19.7754 -7.93945 L 15.8594 -7.93945 L 15.8594 -11.8652 C 15.8594 -12.4805 15.5176 -12.8711 14.9414 -12.8711 C 14.375 -12.8711 14.0527 -12.4609 14.0527 -11.8652 L 14.0527 -7.93945 L 10.1465 -7.93945 C 9.53125 -7.93945 9.13086 -7.59766 9.13086 -7.02148 C 9.13086 -6.46484 9.55078 -6.13281 10.1465 -6.13281 L 14.0527 -6.13281 L 14.0527 -2.38281 C 14.0527 -1.79688 14.375 -1.38672 14.9414 -1.38672 Z"/>
  </g>
  <text style="stroke:none;fill:black;font-family:-apple-system,&quot;SF Pro Display&quot;,&quot;SF Pro Text&quot;,Helvetica,sans-serif;font-weight:bold;" transform="matrix(1 0 0 1 263 1953)">Design Variations</text>
  <text style="stroke:none;fill:black;font-family:-apple-system,&quot;SF Pro Display&quot;,&quot;SF Pro Text&quot;,Helvetica,sans-serif;" transform="matrix(1 0 0 1 263 1971)">Symbols are supported in up to nine weights and three scales.</text>
  <text style="stroke:none;fill:black;font-family:-apple-system,&quot;SF Pro Display&quot;,&quot;SF Pro Text&quot;,Helvetica,sans-serif;" transform="matrix(1 0 0 1 263 1989)">For optimal layout with text and other symbols, vertically align</text>
  <text style="stroke:none;fill:black;font-family:-apple-system,&quot;SF Pro Display&quot;,&quot;SF Pro Text&quot;,Helvetica,sans-serif;" transform="matrix(1 0 0 1 263 2007)">symbols with the adjacent text.</text>
  <line id="" style="fill:none;stroke:#00AEEF;stroke-width:0.5;opacity:1.0;" x1="776" x2="776" y1="1919" y2="1933"/>
  <g id="" transform="matrix(1 0 0 1 776 1933)">
   <path d="M 3.31055 0.126953 C 3.82812 0.126953 4.08203 -0.0683594 4.26758 -0.605469 L 5.52734 -4.0625 L 11.2891 -4.0625 L 12.5488 -0.605469 C 12.7344 -0.0683594 12.9883 0.126953 13.4961 0.126953 C 14.0137 0.126953 14.3457 -0.185547 14.3457 -0.673828 C 14.3457 -0.839844 14.3164 -0.986328 14.2383 -1.20117 L 9.6582 -13.3887 C 9.43359 -13.9941 9.0332 -14.2871 8.4082 -14.2871 C 7.80273 -14.2871 7.39258 -13.9941 7.17773 -13.3984 L 2.59766 -1.19141 C 2.51953 -0.976562 2.49023 -0.830078 2.49023 -0.664062 C 2.49023 -0.175781 2.80273 0.126953 3.31055 0.126953 Z M 6.00586 -5.53711 L 8.37891 -12.1094 L 8.42773 -12.1094 L 10.8008 -5.53711 Z"/>
  </g>
  <line id="" style="fill:none;stroke:#00AEEF;stroke-width:0.5;opacity:1.0;" x1="792.836" x2="792.836" y1="1919" y2="1933"/>
  <text style="stroke:none;fill:black;font-family:-apple-system,&quot;SF Pro Display&quot;,&quot;SF Pro Text&quot;,Helvetica,sans-serif;font-weight:bold;" transform="matrix(1 0 0 1 776 1953)">Margins</text>
  <text style="stroke:none;fill:black;font-family:-apple-system,&quot;SF Pro Display&quot;,&quot;SF Pro Text&quot;,Helvetica,sans-serif;" transform="matrix(1 0 0 1 776 1971)">Leading and trailing margins on the left and right side of each symbol</text>
  <text style="stroke:none;fill:black;font-family:-apple-system,&quot;SF Pro Display&quot;,&quot;SF Pro Text&quot;,Helvetica,sans-serif;" transform="matrix(1 0 0 1 776 1989)">can be adjusted by modifying the x-location of the margin guidelines.</text>
  <text style="stroke:none;fill:black;font-family:-apple-system,&quot;SF Pro Display&quot;,&quot;SF Pro Text&quot;,Helvetica,sans-serif;" transform="matrix(1 0 0 1 776 2007)">Modifications are automatically applied proportionally to all</text>
  <text style="stroke:none;fill:black;font-family:-apple-system,&quot;SF Pro Display&quot;,&quot;SF Pro Text&quot;,Helvetica,sans-serif;" transform="matrix(1 0 0 1 776 2025)">scales and weights.</text>
  <g id="" transform="matrix(1 0 0 1 1289 1933)">
   <path d="M 2.8418 1.86523 L 4.54102 3.57422 C 5.40039 4.44336 6.38672 4.38477 7.31445 3.35938 L 17.4902 -7.85156 C 17.7539 -7.76367 18.0273 -7.7832 18.3398 -7.8418 L 19.4043 -8.03711 L 20.0684 -7.36328 L 20.0293 -6.80664 C 19.9902 -6.30859 20.1172 -5.92773 20.6055 -5.44922 L 21.3672 -4.70703 C 21.8457 -4.22852 22.4609 -4.19922 22.9297 -4.66797 L 25.8398 -7.58789 C 26.3086 -8.05664 26.2891 -8.65234 25.8105 -9.13086 L 25.0391 -9.89258 C 24.5605 -10.3711 24.1895 -10.5273 23.7109 -10.4883 L 23.1348 -10.4395 L 22.4902 -11.0742 L 22.7344 -12.1973 C 22.8613 -12.7637 22.7051 -13.2031 22.1191 -13.7891 L 19.9219 -15.9766 C 16.582 -19.2969 12.1484 -19.2188 9.25781 -16.3281 C 8.83789 -15.918 8.80859 -15.3418 9.04297 -14.9512 C 9.27734 -14.5898 9.73633 -14.3555 10.3809 -14.5215 C 11.8457 -14.8633 13.3691 -14.9219 14.7949 -13.9844 L 14.209 -12.5293 C 14.0137 -12.0508 13.9844 -11.6504 14.1113 -11.2891 L 3.04688 -0.898438 C 2.06055 0.0195312 1.98242 0.996094 2.8418 1.86523 Z M 10.752 -15.957 C 13.1836 -17.7344 16.4746 -17.4316 18.7012 -15.2051 L 21.1328 -12.793 C 21.3672 -12.5586 21.4062 -12.373 21.3379 -12.0312 L 21.0156 -10.5469 L 22.5195 -9.0625 L 23.5059 -9.12109 C 23.7598 -9.13086 23.8379 -9.11133 24.0332 -8.91602 L 24.6094 -8.33984 L 22.168 -5.89844 L 21.5918 -6.47461 C 21.3965 -6.66992 21.3672 -6.74805 21.377 -7.01172 L 21.4453 -7.98828 L 19.9512 -9.47266 L 18.4277 -9.21875 C 18.1055 -9.15039 17.959 -9.17969 17.7148 -9.41406 L 15.7129 -11.416 C 15.459 -11.6504 15.4297 -11.8164 15.5859 -12.1875 L 16.4648 -14.2773 C 14.9023 -15.7324 12.8711 -16.3574 10.8398 -15.7617 C 10.6836 -15.7227 10.625 -15.8496 10.752 -15.957 Z M 5.27344 2.30469 L 4.10156 1.14258 C 3.63281 0.683594 3.74023 0.341797 4.14062 -0.0195312 L 14.9512 -10.1953 L 16.416 -8.71094 L 6.42578 2.27539 C 6.07422 2.67578 5.74219 2.77344 5.27344 2.30469 Z"/>
  </g>
  <text style="stroke:none;fill:black;font-family:-apple-system,&quot;SF Pro Display&quot;,&quot;SF Pro Text&quot;,Helvetica,sans-serif;font-weight:bold;" transform="matrix(1 0 0 1 1289 1953)">Exporting</text>
  <text style="stroke:none;fill:black;font-family:-apple-system,&quot;SF Pro Display&quot;,&quot;SF Pro Text&quot;,Helvetica,sans-serif;" transform="matrix(1 0 0 1 1289 1971)">Symbols should be outlined when exporting to ensure the</text>
  <text style="stroke:none;fill:black;font-family:-apple-system,&quot;SF Pro Display&quot;,&quot;SF Pro Text&quot;,Helvetica,sans-serif;" transform="matrix(1 0 0 1 1289 1989)">design is preserved when submitting to Xcode.</text>
  <text id="template-version" style="stroke:none;fill:black;font-family:-apple-system,&quot;SF Pro Display&quot;,&quot;SF Pro Text&quot;,Helvetica,sans-serif;text-anchor:end;" transform="matrix(1 0 0 1 3036 1933)">Template v.2.0</text>
  <text style="stroke:none;fill:black;font-family:-apple-system,&quot;SF Pro Display&quot;,&quot;SF Pro Text&quot;,Helvetica,sans-serif;text-anchor:end;" transform="matrix(1 0 0 1 3036 1951)">Requires Xcode 12 or greater</text>
  <text style="stroke:none;fill:black;font-family:-apple-system,&quot;SF Pro Display&quot;,&quot;SF Pro Text&quot;,Helvetica,sans-serif;text-anchor:end;" transform="matrix(1 0 0 1 3036 1969)">Generated from waveform.path.ecg.rectangle</text>
  <text style="stroke:none;fill:black;font-family:-apple-system,&quot;SF Pro Display&quot;,&quot;SF Pro Text&quot;,Helvetica,sans-serif;text-anchor:end;" transform="matrix(1 0 0 1 3036 1987)">Typeset at 100 points</text>
  <text style="stroke:none;fill:black;font-family:-apple-system,&quot;SF Pro Display&quot;,&quot;SF Pro Text&quot;,Helvetica,sans-serif;" transform="matrix(1 0 0 1 263 726)">Small</text>
  <text style="stroke:none;fill:black;font-family:-apple-system,&quot;SF Pro Display&quot;,&quot;SF Pro Text&quot;,Helvetica,sans-serif;" transform="matrix(1 0 0 1 263 1156)">Medium</text>
  <text style="stroke:none;fill:black;font-family:-apple-system,&quot;SF Pro Display&quot;,&quot;SF Pro Text&quot;,Helvetica,sans-serif;" transform="matrix(1 0 0 1 263 1586)">Large</text>
 </g>
 <g id="Guides">
  <g id="H-reference" style="fill:#27AAE1;stroke:none;" transform="matrix(1 0 0 1 339 696)">
   <path d="M 0.976562 0 L 3.66211 0 L 12.9883 -24.4629 L 45.7031 -24.4629 L 55.0781 0 L 57.7148 0 L 30.6152 -70.459 L 28.125 -70.459 Z M 29.2969 -67.1387 L 29.3945 -67.1387 L 44.873 -26.709 L 13.8672 -26.709 Z"/>
  </g>
  <line id="Baseline-S" style="fill:none;stroke:#27AAE1;opacity:1;stroke-width:0.5;" x1="263" x2="3036" y1="696" y2="696"/>
  <line id="Capline-S" style="fill:none;stroke:#27AAE1;opacity:1;stroke-width:0.5;" x1="263" x2="3036" y1="625.541" y2="625.541"/>
  <g id="H-reference" style="fill:#27AAE1;stroke:none;" transform="matrix(1 0 0 1 339 1126)">
   <path d="M 0.976562 0 L 3.66211 0 L 12.9883 -24.4629 L 45.7031 -24.4629 L 55.0781 0 L 57.7148 0 L 30.6152 -70.459 L 28.125 -70.459 Z M 29.2969 -67.1387 L 29.3945 -67.1387 L 44.873 -26.709 L 13.8672 -26.709 Z"/>
  </g>
  <line id="Baseline-M" style="fill:none;stroke:#27AAE1;opacity:1;stroke-width:0.5;" x1="263" x2="3036" y1="1126" y2="1126"/>
  <line id="Capline-M" style="fill:none;stroke:#27AAE1;opacity:1;stroke-width:0.5;" x1="263" x2="3036" y1="1055.54" y2="1055.54"/>
  <g id="H-reference" style="fill:#27AAE1;stroke:none;" transform="matrix(1 0 0 1 339 1556)">
   <path d="M 0.976562 0 L 3.66211 0 L 12.9883 -24.4629 L 45.7031 -24.4629 L 55.0781 0 L 57.7148 0 L 30.6152 -70.459 L 28.125 -70.459 Z M 29.2969 -67.1387 L 29.3945 -67.1387 L 44.873 -26.709 L 13.8672 -26.709 Z"/>
  </g>
  <line id="Baseline-L" style="fill:none;stroke:#27AAE1;opacity:1;stroke-width:0.5;" x1="263" x2="3036" y1="1556" y2="1556"/>
  <line id="Capline-L" style="fill:none;stroke:#27AAE1;opacity:1;stroke-width:0.5;" x1="263" x2="3036" y1="1485.54" y2="1485.54"/>
  <line id="left-margin" style="fill:none;stroke:#00AEEF;stroke-width:0.5;opacity:1.0;" x1="1379.82" x2="1379.82" y1="1030.79" y2="1150.12"/>
  <line id="right-margin" style="fill:none;stroke:#00AEEF;stroke-width:0.5;opacity:1.0;" x1="1519.86" x2="1519.86" y1="1030.79" y2="1150.12"/>
 </g>
 <g id="Symbols">
  <g id="Black-L" transform="matrix(1 0 0 1 2841.51 1556)">
   <path d="M 39.9902 26.5137 L 143.799 26.5137 C 159.082 26.5137 167.725 17.8711 167.725 2.68555 L 167.725 -73.0957 C 167.725 -88.2812 159.082 -96.875 143.799 -96.875 L 39.9902 -96.875 C 24.7559 -96.875 16.0645 -88.2812 16.0645 -73.0957 L 16.0645 2.68555 C 16.0645 17.8711 24.7559 26.5137 39.9902 26.5137 Z M 42.6758 6.29883 C 38.4766 6.29883 36.3281 4.39453 36.3281 -0.146484 L 36.3281 -70.2148 C 36.3281 -74.7559 38.4766 -76.6602 42.6758 -76.6602 L 141.064 -76.6602 C 145.312 -76.6602 147.461 -74.7559 147.461 -70.2148 L 147.461 -39.6484 L 131.885 -39.6484 C 128.857 -39.6484 126.904 -38.1836 125.928 -35.3516 L 124.463 -31.3965 L 114.697 -60.9375 C 113.184 -65.7227 106.201 -65.7715 104.15 -60.8887 L 95.459 -39.6484 L 84.0332 -39.6484 C 81.0547 -39.6484 79.0527 -38.1348 78.125 -35.3516 L 76.6602 -31.3965 L 66.8945 -60.9375 C 65.332 -65.7227 58.3496 -65.7715 56.3477 -60.8887 L 47.6562 -39.6484 L 36.3281 -39.6484 L 36.3281 -28.3691 L 51.5137 -28.3691 C 54.4922 -28.3691 56.25 -29.7852 57.4219 -32.5195 L 61.3281 -42.2852 L 71.2402 -9.96094 C 72.6562 -5.07812 80.2734 -5.12695 81.8848 -10.1074 L 87.5977 -28.3691 L 98.9746 -28.3691 C 101.953 -28.3691 103.711 -29.7852 104.932 -32.5195 L 109.18 -42.3828 L 119.043 -9.96094 C 120.508 -5.07812 128.076 -5.12695 129.736 -10.1074 L 135.449 -28.3691 L 147.461 -28.3691 L 147.461 -0.146484 C 147.461 4.39453 145.312 6.29883 141.064 6.29883 Z"/>
  </g>
  <g id="Heavy-L" transform="matrix(1 0 0 1 2545.23 1556)">
   <path d="M 38.8184 25.4883 L 144.092 25.4883 C 158.74 25.4883 166.846 17.4316 166.846 2.88086 L 166.846 -73.2422 C 166.846 -87.793 158.74 -95.8496 144.092 -95.8496 L 38.8184 -95.8496 C 24.2188 -95.8496 16.0645 -87.793 16.0645 -73.2422 L 16.0645 2.88086 C 16.0645 17.4316 24.2188 25.4883 38.8184 25.4883 Z M 40.918 8.00781 C 36.084 8.00781 33.5938 5.71289 33.5938 0.585938 L 33.5938 -70.9473 C 33.5938 -76.0742 36.084 -78.3691 40.918 -78.3691 L 141.943 -78.3691 C 146.777 -78.3691 149.316 -76.0742 149.316 -70.9473 L 149.316 -39.0625 L 133.984 -39.0625 C 131.152 -39.0625 129.395 -37.6953 128.467 -35.0586 L 126.074 -28.3203 L 114.893 -62.1582 C 113.525 -66.5039 107.08 -66.5527 105.225 -62.0605 L 95.8496 -39.0625 L 83.3984 -39.0625 C 80.5664 -39.0625 78.7598 -37.6465 77.8809 -35.0586 L 75.4395 -28.3203 L 64.3066 -62.1582 C 62.8906 -66.5039 56.4941 -66.5527 54.6387 -62.0605 L 45.2148 -39.0625 L 33.5938 -39.0625 L 33.5938 -28.8086 L 48.6816 -28.8086 C 51.4648 -28.8086 53.0762 -30.127 54.1992 -32.7148 L 59.2773 -45.2148 L 70.5566 -8.83789 C 71.875 -4.39453 78.8086 -4.44336 80.3223 -8.98438 L 86.5723 -28.8086 L 98.9746 -28.8086 C 101.758 -28.8086 103.369 -30.127 104.492 -32.7148 L 109.863 -45.3125 L 121.143 -8.83789 C 122.461 -4.39453 129.443 -4.44336 130.908 -8.98438 L 137.158 -28.8086 L 149.316 -28.8086 L 149.316 0.585938 C 149.316 5.71289 146.777 8.00781 141.943 8.00781 Z"/>
  </g>
  <g id="Bold-L" transform="matrix(1 0 0 1 2249.01 1556)">
   <path d="M 37.5 24.3652 L 144.385 24.3652 C 158.35 24.3652 165.869 16.8945 165.869 3.07617 L 165.869 -73.3887 C 165.869 -87.207 158.35 -94.7266 144.385 -94.7266 L 37.5 -94.7266 C 23.6328 -94.7266 16.0645 -87.2559 16.0645 -73.3887 L 16.0645 3.07617 C 16.0645 16.8945 23.6328 24.3652 37.5 24.3652 Z M 38.9648 9.91211 C 33.4473 9.91211 30.5176 7.17773 30.5176 1.41602 L 30.5176 -71.7285 C 30.5176 -77.5391 33.4473 -80.2734 38.9648 -80.2734 L 142.969 -80.2734 C 148.389 -80.2734 151.416 -77.5391 151.416 -71.7285 L 151.416 -38.4277 L 136.426 -38.4277 C 133.74 -38.4277 132.178 -37.1582 131.348 -34.7656 L 127.881 -24.9512 L 115.137 -63.4766 C 113.867 -67.334 108.105 -67.3828 106.445 -63.3789 L 96.2402 -38.4277 L 82.666 -38.4277 C 80.0293 -38.4277 78.418 -37.1582 77.6367 -34.7656 L 74.1211 -24.9512 L 61.377 -63.4766 C 60.1562 -67.334 54.3945 -67.3828 52.7344 -63.3789 L 42.5293 -38.4277 L 30.5664 -38.4277 L 30.5664 -29.248 L 45.5078 -29.248 C 48.0957 -29.248 49.5117 -30.5176 50.5371 -32.9102 L 56.9336 -48.5352 L 69.7754 -7.61719 C 70.9473 -3.61328 77.1973 -3.71094 78.5645 -7.76367 L 85.4004 -29.248 L 98.9258 -29.248 C 101.514 -29.248 102.93 -30.5176 104.004 -32.9102 L 110.693 -48.584 L 123.486 -7.61719 C 124.707 -3.61328 130.957 -3.71094 132.275 -7.76367 L 139.111 -29.248 L 151.416 -29.248 L 151.416 1.41602 C 151.416 7.17773 148.389 9.91211 142.969 9.91211 Z"/>
  </g>
  <g id="Semibold-L" transform="matrix(1 0 0 1 1952.64 1556)">
   <path d="M 36.6211 23.584 L 144.629 23.584 C 158.057 23.584 165.186 16.5039 165.186 3.17383 L 165.186 -73.5352 C 165.186 -86.8164 158.057 -93.9453 144.629 -93.9453 L 36.6211 -93.9453 C 23.1934 -93.9453 16.0645 -86.8652 16.0645 -73.5352 L 16.0645 3.17383 C 16.0645 16.5527 23.1934 23.584 36.6211 23.584 Z M 37.5977 11.2793 C 31.6406 11.2793 28.418 8.20312 28.418 1.95312 L 28.418 -72.3145 C 28.418 -78.5156 31.6406 -81.5918 37.5977 -81.5918 L 143.652 -81.5918 C 149.512 -81.5918 152.832 -78.5156 152.832 -72.3145 L 152.832 -37.9883 L 138.037 -37.9883 C 135.547 -37.9883 134.082 -36.8164 133.301 -34.5703 L 129.102 -22.5586 L 115.283 -64.3555 C 114.111 -67.9199 108.789 -68.0176 107.275 -64.2578 L 96.4844 -37.9883 L 82.1777 -37.9883 C 79.6875 -37.9883 78.2227 -36.7676 77.4414 -34.5703 L 73.2422 -22.5586 L 59.4238 -64.3555 C 58.252 -67.9199 52.9297 -68.0176 51.416 -64.2578 L 40.625 -37.9883 L 28.418 -37.9883 L 28.418 -29.5898 L 43.3105 -29.5898 C 45.8008 -29.5898 47.0703 -30.7617 48.0469 -33.0566 L 55.3711 -50.7812 L 69.2383 -6.73828 C 70.3613 -3.125 76.123 -3.17383 77.3438 -6.88477 L 84.5703 -29.5898 L 98.877 -29.5898 C 101.367 -29.5898 102.637 -30.7617 103.613 -33.0566 L 111.23 -50.8301 L 125.098 -6.73828 C 126.221 -3.125 131.982 -3.17383 133.203 -6.88477 L 140.43 -29.5898 L 152.832 -29.5898 L 152.832 1.95312 C 152.832 8.20312 149.512 11.2793 143.652 11.2793 Z"/>
  </g>
  <g id="Medium-L" transform="matrix(1 0 0 1 1656.2 1556)">
   <path d="M 35.9375 22.998 L 144.775 22.998 C 157.861 22.998 164.648 16.2109 164.648 3.27148 L 164.648 -73.6328 C 164.648 -86.5234 157.861 -93.3105 144.775 -93.3105 L 35.9375 -93.3105 C 22.9004 -93.3105 16.0645 -86.5723 16.0645 -73.6328 L 16.0645 3.27148 C 16.0645 16.2598 22.9004 22.998 35.9375 22.998 Z M 36.5723 12.2559 C 30.2246 12.2559 26.8066 8.98438 26.8066 2.39258 L 26.8066 -72.7051 C 26.8066 -79.2969 30.2246 -82.6172 36.5723 -82.6172 L 144.141 -82.6172 C 150.391 -82.6172 153.906 -79.2969 153.906 -72.7051 L 153.906 -37.6953 L 139.307 -37.6953 C 136.914 -37.6953 135.547 -36.5234 134.814 -34.375 L 130.029 -20.8008 L 115.381 -65.0879 C 114.307 -68.3594 109.326 -68.457 107.91 -64.9414 L 96.7285 -37.6953 L 81.7871 -37.6953 C 79.3945 -37.6953 78.0273 -36.5234 77.2949 -34.375 L 72.5586 -20.8008 L 57.9102 -65.0879 C 56.8359 -68.3594 51.8555 -68.457 50.3906 -64.9414 L 39.209 -37.6953 L 26.8555 -37.6953 L 26.8555 -29.834 L 41.6504 -29.834 C 44.043 -29.834 45.2148 -30.957 46.1426 -33.1543 L 54.1504 -52.5391 L 68.8477 -6.10352 C 69.873 -2.68555 75.293 -2.7832 76.416 -6.25 L 83.9355 -29.834 L 98.877 -29.834 C 101.27 -29.834 102.441 -30.957 103.369 -33.1543 L 111.621 -52.5391 L 126.318 -6.10352 C 127.393 -2.68555 132.764 -2.7832 133.887 -6.25 L 141.455 -29.834 L 153.906 -29.834 L 153.906 2.39258 C 153.906 8.98438 150.391 12.2559 144.141 12.2559 Z"/>
  </g>
  <g id="Regular-L" transform="matrix(1 0 0 1 1359.81 1556)">
   <path d="M 35.0586 22.2168 L 144.971 22.2168 C 157.617 22.2168 164.014 15.8691 164.014 3.41797 L 164.014 -73.7305 C 164.014 -86.1816 157.617 -92.5293 144.971 -92.5293 L 35.0586 -92.5293 C 22.4609 -92.5293 16.0645 -86.2305 16.0645 -73.7305 L 16.0645 3.41797 C 16.0645 15.918 22.4609 22.2168 35.0586 22.2168 Z M 35.2539 13.5742 C 28.418 13.5742 24.707 9.96094 24.707 2.97852 L 24.707 -73.291 C 24.707 -80.2734 28.418 -83.8867 35.2539 -83.8867 L 144.824 -83.8867 C 151.514 -83.8867 155.322 -80.2734 155.322 -73.291 L 155.322 -37.2559 L 140.918 -37.2559 C 138.672 -37.2559 137.451 -36.1816 136.719 -34.1797 L 131.25 -18.457 L 115.527 -65.9668 C 114.551 -68.9453 110.01 -69.043 108.691 -65.8203 L 96.9727 -37.2559 L 81.2988 -37.2559 C 79.0527 -37.2559 77.832 -36.1816 77.0996 -34.1797 L 71.6309 -18.457 L 55.9082 -65.9668 C 54.9316 -68.9453 50.3906 -69.043 49.0723 -65.8203 L 37.3535 -37.2559 L 24.7559 -37.2559 L 24.7559 -30.1758 L 39.4531 -30.1758 C 41.748 -30.1758 42.7734 -31.2012 43.6523 -33.252 L 52.5391 -54.7852 L 68.3105 -5.27344 C 69.2871 -2.19727 74.1699 -2.24609 75.1953 -5.41992 L 83.1543 -30.1758 L 98.8281 -30.1758 C 101.123 -30.1758 102.148 -31.2012 103.027 -33.252 L 112.158 -54.7852 L 127.93 -5.27344 C 128.906 -2.19727 133.789 -2.24609 134.814 -5.41992 L 142.773 -30.1758 L 155.322 -30.1758 L 155.322 2.97852 C 155.322 9.96094 151.514 13.5742 144.824 13.5742 Z"/>
  </g>
  <g id="Light-L" transform="matrix(1 0 0 1 1063.56 1556)">
   <path d="M 34.0332 21.4355 L 145.117 21.4355 C 157.031 21.4355 163.086 15.2344 163.086 3.56445 L 163.086 -73.8281 C 163.086 -85.5469 157.031 -91.6992 145.117 -91.6992 L 34.0332 -91.6992 C 22.168 -91.6992 16.0645 -85.6445 16.0645 -73.8281 L 16.0645 3.56445 C 16.0645 15.3809 22.168 21.4355 34.0332 21.4355 Z M 34.1797 14.7949 C 26.709 14.7949 22.7051 10.8398 22.7051 3.22266 L 22.7051 -73.4863 C 22.7051 -81.1523 26.709 -85.0586 34.1797 -85.0586 L 144.971 -85.0586 C 152.295 -85.0586 156.494 -81.1523 156.494 -73.4863 L 156.494 -36.5234 L 142.578 -36.5234 C 140.674 -36.5234 139.6 -35.5957 138.965 -33.8867 L 132.471 -14.7461 L 115.283 -66.5039 C 114.502 -68.8965 110.742 -69.0918 109.668 -66.4062 L 97.3633 -36.5234 L 80.6152 -36.5234 C 78.7109 -36.5234 77.5879 -35.5957 77.002 -33.8867 L 70.459 -14.7461 L 53.3203 -66.5039 C 52.4902 -68.8965 48.7793 -69.0918 47.6562 -66.4062 L 35.3516 -36.5234 L 22.7051 -36.5234 L 22.7051 -30.8594 L 36.8164 -30.8594 C 38.7207 -30.8594 39.5508 -31.6406 40.3809 -33.5449 L 50.5371 -58.0078 L 67.7734 -4.98047 C 68.6035 -2.39258 72.6074 -2.49023 73.4375 -5.07812 L 81.8359 -30.8594 L 98.6328 -30.8594 C 100.537 -30.8594 101.416 -31.6406 102.246 -33.5449 L 112.549 -58.0078 L 129.785 -4.98047 C 130.566 -2.39258 134.57 -2.49023 135.449 -5.07812 L 143.799 -30.8594 L 156.494 -30.8594 L 156.494 3.22266 C 156.494 10.8398 152.295 14.7949 144.971 14.7949 Z"/>
  </g>
  <g id="Thin-L" transform="matrix(1 0 0 1 767.433 1556)">
   <path d="M 32.666 20.3613 L 145.312 20.3613 C 156.201 20.3613 161.914 14.4531 161.914 3.75977 L 161.914 -73.9746 C 161.914 -84.7168 156.201 -90.5762 145.312 -90.5762 L 32.666 -90.5762 C 21.7773 -90.5762 16.0645 -84.8633 16.0645 -73.9746 L 16.0645 3.75977 C 16.0645 14.6484 21.7773 20.3613 32.666 20.3613 Z M 32.8125 16.4062 C 24.4141 16.4062 19.9707 12.0117 19.9707 3.56445 L 19.9707 -73.7793 C 19.9707 -82.2754 24.4141 -86.6699 32.8125 -86.6699 L 145.166 -86.6699 C 153.32 -86.6699 158.008 -82.2754 158.008 -73.7793 L 158.008 -35.5469 L 144.775 -35.5469 C 143.359 -35.5469 142.432 -34.8145 141.992 -33.4473 L 134.033 -9.81445 L 114.941 -67.1875 C 114.404 -68.8477 111.719 -69.1895 110.889 -67.1387 L 97.8516 -35.5469 L 79.6387 -35.5469 C 78.2227 -35.5469 77.2949 -34.8145 76.8555 -33.4473 L 68.9453 -9.81445 L 49.8535 -67.1875 C 49.2676 -68.8477 46.582 -69.1895 45.8008 -67.1387 L 32.7148 -35.5469 L 20.0195 -35.5469 L 20.0195 -31.7871 L 33.252 -31.7871 C 34.668 -31.7871 35.3027 -32.2266 36.084 -33.9355 L 47.9004 -62.3047 L 67.0898 -4.58984 C 67.7246 -2.68555 70.5078 -2.7832 71.1426 -4.58984 L 80.0781 -31.7871 L 98.3398 -31.7871 C 99.7559 -31.7871 100.391 -32.2266 101.123 -33.9355 L 113.037 -62.3047 L 132.227 -4.58984 C 132.812 -2.68555 135.645 -2.7832 136.279 -4.58984 L 145.215 -31.7871 L 158.008 -31.7871 L 158.008 3.56445 C 158.008 12.0117 153.32 16.4062 145.166 16.4062 Z"/>
  </g>
  <g id="Ultralight-L" transform="matrix(1 0 0 1 471.015 1556)">
   <path d="M 31.9824 19.7754 L 145.41 19.7754 C 155.811 19.7754 161.328 14.0625 161.328 3.85742 L 161.328 -74.0723 C 161.328 -84.2773 155.811 -89.9902 145.41 -89.9902 L 31.9824 -89.9902 C 21.582 -89.9902 16.0645 -84.4727 16.0645 -74.0723 L 16.0645 3.85742 C 16.0645 14.2578 21.582 19.7754 31.9824 19.7754 Z M 32.1289 17.2363 C 23.1934 17.2363 18.6035 12.6465 18.6035 3.75977 L 18.6035 -73.9258 C 18.6035 -82.8125 23.1934 -87.4512 32.1289 -87.4512 L 145.264 -87.4512 C 153.857 -87.4512 158.789 -82.8125 158.789 -73.9258 L 158.789 -35.0098 L 145.85 -35.0098 C 144.727 -35.0098 143.848 -34.4238 143.506 -33.252 L 134.863 -7.27539 L 114.746 -67.5293 C 114.355 -68.7988 112.207 -69.2383 111.523 -67.5293 L 98.0957 -35.0098 L 79.1504 -35.0098 C 77.9785 -35.0098 77.1484 -34.4238 76.7578 -33.252 L 68.1641 -7.27539 L 48.0469 -67.5293 C 47.6074 -68.7988 45.459 -69.2383 44.8242 -67.5293 L 31.3477 -35.0098 L 18.6523 -35.0098 L 18.6523 -32.2754 L 31.4941 -32.2754 C 32.6172 -32.2754 33.1543 -32.5195 33.8379 -34.1797 L 46.582 -64.4531 L 66.748 -4.39453 C 67.2852 -2.83203 69.4824 -2.92969 69.9707 -4.3457 L 79.1992 -32.2754 L 98.2422 -32.2754 C 99.3652 -32.2754 99.9023 -32.5195 100.586 -34.1797 L 113.281 -64.4531 L 133.496 -4.39453 C 133.984 -2.83203 136.182 -2.92969 136.67 -4.3457 L 145.898 -32.2754 L 158.789 -32.2754 L 158.789 3.75977 C 158.789 12.6465 153.857 17.2363 145.264 17.2363 Z"/>
  </g>
  <g id="Black-M" transform="matrix(1 0 0 1 2861.84 1126)">
   <path d="M 31.9824 13.5742 L 111.133 13.5742 C 123.389 13.5742 130.664 6.29883 130.664 -5.95703 L 130.664 -64.4043 C 130.664 -76.6602 123.389 -83.9355 111.133 -83.9355 L 31.9824 -83.9355 C 19.7266 -83.9355 12.4512 -76.6602 12.4512 -64.4043 L 12.4512 -5.95703 C 12.4512 6.29883 19.7266 13.5742 31.9824 13.5742 Z M 34.9121 -4.73633 C 32.0801 -4.73633 30.7617 -5.81055 30.7617 -8.88672 L 30.7617 -61.4746 C 30.7617 -64.5508 32.0801 -65.6738 34.9121 -65.6738 L 108.203 -65.6738 C 111.035 -65.6738 112.402 -64.5508 112.402 -61.4746 L 112.402 -39.0137 L 100.195 -39.0137 C 97.8027 -39.0137 96.1426 -37.8418 95.3613 -35.5469 L 94.9219 -34.375 L 88.4766 -53.8574 C 87.2559 -57.8125 81.4453 -57.8613 79.7852 -53.8574 L 73.7305 -39.0137 L 65.625 -39.0137 C 63.2324 -39.0137 61.5723 -37.793 60.791 -35.5469 L 60.3516 -34.375 L 53.9062 -53.8574 C 52.6367 -57.8125 46.875 -57.8613 45.2148 -53.8574 L 39.1602 -39.0137 L 30.7617 -39.0137 L 30.7617 -29.6875 L 42.334 -29.6875 C 44.6777 -29.6875 46.1426 -30.8105 47.168 -33.0566 L 49.2676 -38.4277 L 55.8594 -16.9922 C 57.0312 -12.8906 63.2812 -12.8906 64.6973 -17.041 L 68.6523 -29.6875 L 76.6602 -29.6875 C 78.9551 -29.6875 80.4688 -30.8105 81.4941 -33.0566 L 83.8379 -38.5742 L 90.4297 -16.9922 C 91.6016 -12.8906 97.9004 -12.8906 99.2676 -17.041 L 103.223 -29.6875 L 112.402 -29.6875 L 112.402 -8.88672 C 112.402 -5.81055 111.035 -4.73633 108.203 -4.73633 Z"/>
  </g>
  <g id="Heavy-M" transform="matrix(1 0 0 1 2565.5 1126)">
   <path d="M 31.0059 12.6465 L 111.426 12.6465 C 123.193 12.6465 129.932 5.9082 129.932 -5.81055 L 129.932 -64.5508 C 129.932 -76.2695 123.193 -83.0566 111.426 -83.0566 L 31.0059 -83.0566 C 19.2383 -83.0566 12.4512 -76.3184 12.4512 -64.5508 L 12.4512 -5.81055 C 12.4512 5.9082 19.2383 12.6465 31.0059 12.6465 Z M 33.252 -3.17383 C 29.9316 -3.17383 28.2715 -4.63867 28.2715 -8.1543 L 28.2715 -62.207 C 28.2715 -65.7715 29.9316 -67.2363 33.252 -67.2363 L 109.131 -67.2363 C 112.451 -67.2363 114.111 -65.7715 114.111 -62.207 L 114.111 -38.623 L 102.1 -38.623 C 99.8047 -38.623 98.291 -37.4512 97.5586 -35.3027 L 96.3867 -32.0312 L 88.7695 -55.0293 C 87.5977 -58.6426 82.2754 -58.6914 80.7129 -54.9805 L 74.0234 -38.623 L 65.0879 -38.623 C 62.8418 -38.623 61.2793 -37.4023 60.5957 -35.3027 L 59.375 -32.0312 L 51.7578 -55.0293 C 50.6348 -58.6426 45.2637 -58.6914 43.7012 -54.9805 L 37.0117 -38.623 L 28.3203 -38.623 L 28.3203 -29.9805 L 39.9414 -29.9805 C 42.1387 -29.9805 43.5059 -31.0547 44.4824 -33.2031 L 47.5098 -40.8203 L 55.2246 -15.8691 C 56.3477 -12.1094 62.1582 -12.1094 63.4277 -15.918 L 67.8223 -29.9805 L 76.6602 -29.9805 C 78.9062 -29.9805 80.2734 -31.0547 81.2012 -33.2031 L 84.5215 -40.918 L 92.2363 -15.8691 C 93.3594 -12.1094 99.1211 -12.1094 100.391 -15.918 L 104.834 -29.9805 L 114.111 -29.9805 L 114.111 -8.1543 C 114.111 -4.63867 112.451 -3.17383 109.131 -3.17383 Z"/>
  </g>
  <g id="Bold-M" transform="matrix(1 0 0 1 2269.18 1126)">
   <path d="M 29.8828 11.6699 L 111.719 11.6699 C 122.949 11.6699 129.15 5.46875 129.15 -5.66406 L 129.15 -64.6973 C 129.15 -75.8789 122.949 -82.0312 111.719 -82.0312 L 29.8828 -82.0312 C 18.6523 -82.0312 12.4512 -75.8789 12.4512 -64.6973 L 12.4512 -5.66406 C 12.4512 5.51758 18.6523 11.6699 29.8828 11.6699 Z M 31.3965 -1.41602 C 27.5391 -1.41602 25.5371 -3.27148 25.5371 -7.32422 L 25.5371 -63.0371 C 25.5371 -67.1387 27.5391 -68.9453 31.3965 -68.9453 L 110.205 -68.9453 C 114.014 -68.9453 116.064 -67.1387 116.064 -63.0371 L 116.064 -38.1348 L 104.248 -38.1348 C 102.051 -38.1348 100.732 -37.0605 100.049 -35.0586 L 97.998 -29.3457 L 89.1113 -56.2988 C 88.0371 -59.6191 83.1543 -59.6191 81.7383 -56.25 L 74.3164 -38.1348 L 64.5508 -38.1348 C 62.3535 -38.1348 60.9863 -37.0117 60.3027 -35.0586 L 58.3008 -29.3457 L 49.3652 -56.2988 C 48.3398 -59.6191 43.457 -59.6191 42.041 -56.25 L 34.6191 -38.1348 L 25.5371 -38.1348 L 25.5371 -30.3223 L 37.207 -30.3223 C 39.3555 -30.3223 40.5762 -31.3477 41.4551 -33.3008 L 45.5566 -43.5059 L 54.541 -14.5996 C 55.5664 -11.1816 60.8398 -11.2305 61.9629 -14.6973 L 66.8945 -30.3223 L 76.709 -30.3223 C 78.8574 -30.3223 80.0293 -31.3477 80.9082 -33.3008 L 85.3027 -43.5547 L 94.2383 -14.5996 C 95.2637 -11.1816 100.586 -11.2305 101.709 -14.6973 L 106.641 -30.3223 L 116.064 -30.3223 L 116.064 -7.32422 C 116.064 -3.27148 114.014 -1.41602 110.205 -1.41602 Z"/>
  </g>
  <g id="Semibold-M" transform="matrix(1 0 0 1 1972.76 1126)">
   <path d="M 29.1016 10.9863 L 111.914 10.9863 C 122.803 10.9863 128.564 5.17578 128.564 -5.56641 L 128.564 -64.8438 C 128.564 -75.5859 122.803 -81.3477 111.914 -81.3477 L 29.1016 -81.3477 C 18.2617 -81.3477 12.4512 -75.5859 12.4512 -64.8438 L 12.4512 -5.56641 C 12.4512 5.22461 18.2617 10.9863 29.1016 10.9863 Z M 30.127 -0.195312 C 25.8789 -0.195312 23.6328 -2.34375 23.6328 -6.78711 L 23.6328 -63.623 C 23.6328 -68.0664 25.8789 -70.166 30.127 -70.166 L 110.889 -70.166 C 115.088 -70.166 117.383 -68.0664 117.383 -63.623 L 117.383 -37.793 L 105.713 -37.793 C 103.613 -37.793 102.393 -36.7676 101.709 -34.9121 L 99.1211 -27.5391 L 89.3066 -57.1777 C 88.3301 -60.2539 83.7891 -60.3027 82.4707 -57.0801 L 74.5605 -37.793 L 64.1113 -37.793 C 62.0117 -37.793 60.791 -36.7676 60.1562 -34.9121 L 57.5195 -27.5391 L 47.7051 -57.1777 C 46.7285 -60.2539 42.1875 -60.3027 40.8691 -57.0801 L 32.959 -37.793 L 23.6816 -37.793 L 23.6816 -30.5176 L 35.3516 -30.5176 C 37.4512 -30.5176 38.5254 -31.543 39.3555 -33.3984 L 44.2383 -45.3125 L 54.0527 -13.7207 C 55.0293 -10.5957 59.9609 -10.6445 60.9863 -13.8184 L 66.2598 -30.5176 L 76.709 -30.5176 C 78.7598 -30.5176 79.8828 -31.543 80.7129 -33.3984 L 85.791 -45.3613 L 95.6543 -13.7207 C 96.582 -10.5957 101.562 -10.6445 102.588 -13.8184 L 107.861 -30.5176 L 117.383 -30.5176 L 117.383 -6.78711 C 117.383 -2.34375 115.088 -0.195312 110.889 -0.195312 Z"/>
  </g>
  <g id="Medium-M" transform="matrix(1 0 0 1 1676.24 1126)">
   <path d="M 28.5156 10.4492 L 112.061 10.4492 C 122.656 10.4492 128.174 4.98047 128.174 -5.46875 L 128.174 -64.8926 C 128.174 -75.3418 122.656 -80.8105 112.061 -80.8105 L 28.5156 -80.8105 C 17.9688 -80.8105 12.4512 -75.3906 12.4512 -64.8926 L 12.4512 -5.46875 C 12.4512 4.98047 17.9688 10.4492 28.5156 10.4492 Z M 29.1504 0.732422 C 24.6582 0.732422 22.168 -1.61133 22.168 -6.34766 L 22.168 -64.0137 C 22.168 -68.75 24.6582 -71.0938 29.1504 -71.0938 L 111.426 -71.0938 C 115.918 -71.0938 118.408 -68.75 118.408 -64.0137 L 118.408 -37.5488 L 106.836 -37.5488 C 104.785 -37.5488 103.662 -36.5723 103.027 -34.7656 L 99.9512 -26.1719 L 89.502 -57.8613 C 88.5254 -60.7422 84.2773 -60.791 83.0078 -57.7637 L 74.707 -37.5488 L 63.8184 -37.5488 C 61.7676 -37.5488 60.6445 -36.5234 60.0098 -34.7656 L 56.9336 -26.1719 L 46.4844 -57.8613 C 45.5566 -60.7422 41.2598 -60.791 39.9902 -57.7637 L 31.7383 -37.5488 L 22.2168 -37.5488 L 22.2168 -30.7129 L 33.9355 -30.7129 C 35.9863 -30.7129 37.0117 -31.6406 37.7441 -33.4473 L 43.2129 -46.7285 L 53.7109 -13.0371 C 54.5898 -10.1074 59.2773 -10.1562 60.2539 -13.1836 L 65.8203 -30.7129 L 76.709 -30.7129 C 78.7598 -30.7129 79.7852 -31.6406 80.5176 -33.4473 L 86.2305 -46.7285 L 96.7285 -13.0371 C 97.6074 -10.1074 102.295 -10.1562 103.223 -13.1836 L 108.789 -30.7129 L 118.408 -30.7129 L 118.408 -6.34766 C 118.408 -1.61133 115.918 0.732422 111.426 0.732422 Z"/>
  </g>
  <g id="Regular-M" transform="matrix(1 0 0 1 1379.82 1126)">
   <path d="M 27.7832 9.76562 L 112.256 9.76562 C 122.51 9.76562 127.588 4.6875 127.588 -5.37109 L 127.588 -64.9902 C 127.588 -75.0488 122.51 -80.127 112.256 -80.127 L 27.7832 -80.127 C 17.5781 -80.127 12.4512 -75.0977 12.4512 -64.9902 L 12.4512 -5.37109 C 12.4512 4.73633 17.5781 9.76562 27.7832 9.76562 Z M 27.8809 1.9043 C 22.998 1.9043 20.3125 -0.683594 20.3125 -5.76172 L 20.3125 -64.5996 C 20.3125 -69.6777 22.998 -72.2656 27.8809 -72.2656 L 112.158 -72.2656 C 116.992 -72.2656 119.727 -69.6777 119.727 -64.5996 L 119.727 -37.207 L 108.301 -37.207 C 106.299 -37.207 105.273 -36.2793 104.688 -34.5703 L 101.074 -24.3652 L 89.6973 -58.7402 C 88.8184 -61.377 84.8633 -61.4258 83.7402 -58.5938 L 74.9512 -37.207 L 63.4277 -37.207 C 61.4746 -37.207 60.4492 -36.2793 59.8145 -34.5703 L 56.2012 -24.3652 L 44.8242 -58.7402 C 43.9941 -61.377 39.9902 -61.4258 38.8672 -58.5938 L 30.0781 -37.207 L 20.3613 -37.207 L 20.3613 -30.9082 L 32.0801 -30.9082 C 34.082 -30.9082 35.0098 -31.8359 35.6934 -33.5449 L 41.8945 -48.5352 L 53.2227 -12.1582 C 54.0527 -9.47266 58.3984 -9.57031 59.2773 -12.3047 L 65.1855 -30.9082 L 76.709 -30.9082 C 78.7109 -30.9082 79.5898 -31.8359 80.3223 -33.5449 L 86.7188 -48.5352 L 98.0957 -12.1582 C 98.9258 -9.47266 103.271 -9.57031 104.102 -12.3047 L 110.059 -30.9082 L 119.727 -30.9082 L 119.727 -5.76172 C 119.727 -0.683594 116.992 1.9043 112.158 1.9043 Z"/>
  </g>
  <g id="Light-M" transform="matrix(1 0 0 1 1083.5 1126)">
   <path d="M 26.8555 9.0332 L 112.402 9.0332 C 121.973 9.0332 126.807 4.15039 126.807 -5.22461 L 126.807 -65.0879 C 126.807 -74.5117 121.973 -79.3945 112.402 -79.3945 L 26.8555 -79.3945 C 17.334 -79.3945 12.4512 -74.5605 12.4512 -65.0879 L 12.4512 -5.22461 C 12.4512 4.19922 17.334 9.0332 26.8555 9.0332 Z M 26.9531 2.97852 C 21.4844 2.97852 18.5059 0.0976562 18.5059 -5.56641 L 18.5059 -64.7949 C 18.5059 -70.4102 21.4844 -73.3398 26.9531 -73.3398 L 112.305 -73.3398 C 117.676 -73.3398 120.752 -70.4102 120.752 -64.7949 L 120.752 -36.5723 L 109.766 -36.5723 C 108.105 -36.5723 107.227 -35.7422 106.689 -34.3262 L 102.148 -20.9961 L 89.4531 -59.2285 C 88.7695 -61.3281 85.498 -61.4746 84.5703 -59.1309 L 75.293 -36.5723 L 62.793 -36.5723 C 61.1328 -36.5723 60.2539 -35.7422 59.7168 -34.3262 L 55.127 -20.9961 L 42.4805 -59.2285 C 41.7969 -61.3281 38.5254 -61.4746 37.5977 -59.1309 L 28.3203 -36.5723 L 18.5059 -36.5723 L 18.5059 -31.543 L 29.7363 -31.543 C 31.3477 -31.543 32.1289 -32.2266 32.7637 -33.7891 L 40.0879 -51.416 L 52.7832 -11.9141 C 53.4668 -9.7168 56.9824 -9.76562 57.7148 -12.0117 L 64.0137 -31.543 L 76.5137 -31.543 C 78.1738 -31.543 78.9551 -32.2266 79.5898 -33.7891 L 87.0605 -51.416 L 99.7559 -11.9141 C 100.439 -9.7168 103.955 -9.76562 104.688 -12.0117 L 110.986 -31.543 L 120.752 -31.543 L 120.752 -5.56641 C 120.752 0.0976562 117.676 2.97852 112.305 2.97852 Z"/>
  </g>
  <g id="Thin-M" transform="matrix(1 0 0 1 787.33 1126)">
   <path d="M 25.6348 8.05664 L 112.598 8.05664 C 121.24 8.05664 125.732 3.4668 125.732 -5.0293 L 125.732 -65.2344 C 125.732 -73.7305 121.24 -78.3691 112.598 -78.3691 L 25.6348 -78.3691 C 16.9922 -78.3691 12.4512 -73.877 12.4512 -65.2344 L 12.4512 -5.0293 C 12.4512 3.56445 16.9922 8.05664 25.6348 8.05664 Z M 25.7324 4.44336 C 19.3848 4.44336 16.0645 1.12305 16.0645 -5.22461 L 16.0645 -65.0391 C 16.0645 -71.4355 19.3848 -74.7559 25.7324 -74.7559 L 112.451 -74.7559 C 118.604 -74.7559 122.119 -71.4355 122.119 -65.0391 L 122.119 -35.6934 L 111.719 -35.6934 C 110.498 -35.6934 109.766 -35.0586 109.375 -33.9355 L 103.564 -16.6016 L 89.1602 -59.8633 C 88.6719 -61.2793 86.377 -61.5234 85.6934 -59.8145 L 75.7324 -35.6934 L 61.9141 -35.6934 C 60.7422 -35.6934 59.9609 -35.0586 59.6191 -33.9355 L 53.7598 -16.6016 L 39.3555 -59.8633 C 38.916 -61.2793 36.5723 -61.5234 35.8887 -59.8145 L 25.9277 -35.6934 L 16.1133 -35.6934 L 16.1133 -32.373 L 26.5625 -32.373 C 27.7832 -32.373 28.3203 -32.7637 28.9062 -34.1797 L 37.6953 -55.2734 L 52.1484 -11.5723 C 52.6855 -9.96094 55.127 -10.0098 55.6641 -11.5723 L 62.4512 -32.373 L 76.2695 -32.373 C 77.4902 -32.373 78.0273 -32.7637 78.6133 -34.1797 L 87.5 -55.2734 L 101.953 -11.5723 C 102.441 -9.96094 104.883 -10.0098 105.42 -11.5723 L 112.256 -32.373 L 122.119 -32.373 L 122.119 -5.22461 C 122.119 1.12305 118.604 4.44336 112.451 4.44336 Z"/>
  </g>
  <g id="Ultralight-M" transform="matrix(1 0 0 1 490.888 1126)">
   <path d="M 25 7.56836 L 112.695 7.56836 C 120.85 7.56836 125.195 3.125 125.195 -4.98047 L 125.195 -65.2832 C 125.195 -73.3887 120.85 -77.832 112.695 -77.832 L 25 -77.832 C 16.7969 -77.832 12.4512 -73.4863 12.4512 -65.2832 L 12.4512 -4.98047 C 12.4512 3.22266 16.7969 7.56836 25 7.56836 Z M 25.0977 5.17578 C 18.3594 5.17578 14.8438 1.66016 14.8438 -5.07812 L 14.8438 -65.1855 C 14.8438 -71.9727 18.3594 -75.4395 25.0977 -75.4395 L 112.549 -75.4395 C 119.043 -75.4395 122.803 -71.9727 122.803 -65.1855 L 122.803 -35.2051 L 112.695 -35.2051 C 111.719 -35.2051 111.084 -34.7168 110.742 -33.7402 L 104.297 -14.3066 L 89.0137 -60.1562 C 88.623 -61.2305 86.8164 -61.5723 86.2793 -60.1562 L 75.9277 -35.2051 L 61.4746 -35.2051 C 60.498 -35.2051 59.8145 -34.7168 59.5215 -33.7402 L 53.0762 -14.3066 L 37.793 -60.1562 C 37.4023 -61.2305 35.5957 -61.5723 35.0586 -60.1562 L 24.707 -35.2051 L 14.8926 -35.2051 L 14.8926 -32.8125 L 24.9512 -32.8125 C 25.9277 -32.8125 26.3672 -33.0566 26.9043 -34.3262 L 36.5234 -57.2266 L 51.8555 -11.377 C 52.2949 -10.1074 54.1504 -10.1562 54.5898 -11.377 L 61.6699 -32.8125 L 76.1719 -32.8125 C 77.1484 -32.8125 77.5879 -33.0566 78.125 -34.3262 L 87.7441 -57.2266 L 103.076 -11.377 C 103.516 -10.1074 105.371 -10.1562 105.811 -11.377 L 112.891 -32.8125 L 122.803 -32.8125 L 122.803 -5.07812 C 122.803 1.66016 119.043 5.17578 112.549 5.17578 Z"/>
  </g>
  <g id="Black-S" transform="matrix(1 0 0 1 2877.35 696)">
   <path d="M 25 2.92969 L 87.1094 2.92969 C 96.6797 2.92969 102.344 -2.73438 102.344 -12.3047 L 102.344 -58.1055 C 102.344 -67.6758 96.6797 -73.3398 87.1094 -73.3398 L 25 -73.3398 C 15.4297 -73.3398 9.76562 -67.6758 9.76562 -58.1055 L 9.76562 -12.3047 C 9.76562 -2.73438 15.4297 2.92969 25 2.92969 Z M 27.2461 -59.1797 L 84.8633 -59.1797 C 87.1094 -59.1797 88.1836 -58.3008 88.1836 -55.8594 L 88.1836 -38.1836 L 78.6133 -38.1836 C 76.7578 -38.1836 75.4395 -37.2559 74.8535 -35.4492 L 74.4629 -34.4238 L 69.3359 -49.9023 C 68.3594 -52.9785 63.8672 -53.0273 62.5488 -49.9023 L 57.7637 -38.1836 L 51.3672 -38.1836 C 49.5117 -38.1836 48.1934 -37.207 47.6074 -35.4492 L 47.2168 -34.4238 L 42.0898 -49.9023 C 41.1133 -52.9785 36.6211 -53.0273 35.3027 -49.9023 L 30.5176 -38.1836 L 23.9258 -38.1836 L 23.9258 -55.8594 C 23.9258 -58.3008 25 -59.1797 27.2461 -59.1797 Z M 27.2461 -11.2305 C 25 -11.2305 23.9258 -12.1094 23.9258 -14.5508 L 23.9258 -30.9082 L 33.0078 -30.9082 C 34.8145 -30.9082 35.9863 -31.7871 36.7676 -33.5449 L 38.4766 -37.8906 L 43.7012 -20.8496 C 44.6289 -17.6758 49.5117 -17.6758 50.5859 -20.8984 L 53.7109 -30.9082 L 60.0586 -30.9082 C 61.8652 -30.9082 63.0371 -31.7871 63.8184 -33.5449 L 65.7227 -37.9883 L 70.9473 -20.8496 C 71.875 -17.6758 76.7578 -17.6758 77.832 -20.8984 L 80.957 -30.9082 L 88.1836 -30.9082 L 88.1836 -14.5508 C 88.1836 -12.1094 87.1094 -11.2305 84.8633 -11.2305 Z"/>
  </g>
  <g id="Heavy-S" transform="matrix(1 0 0 1 2580.88 696)">
   <path d="M 24.3652 2.34375 L 87.3047 2.34375 C 96.582 2.34375 101.855 -2.97852 101.855 -12.207 L 101.855 -58.2031 C 101.855 -67.4316 96.582 -72.7539 87.3047 -72.7539 L 24.3652 -72.7539 C 15.0879 -72.7539 9.76562 -67.4316 9.76562 -58.2031 L 9.76562 -12.207 C 9.76562 -2.97852 15.0879 2.34375 24.3652 2.34375 Z M 26.0742 -60.2539 L 85.5469 -60.2539 C 88.0859 -60.2539 89.4043 -59.1309 89.4043 -56.3965 L 89.4043 -37.9395 L 79.9316 -37.9395 C 78.0762 -37.9395 76.9043 -37.0117 76.3184 -35.3027 L 75.4395 -33.0078 L 69.5801 -50.7324 C 68.6523 -53.6133 64.4043 -53.6621 63.1836 -50.6836 L 57.959 -37.9395 L 51.0254 -37.9395 C 49.2188 -37.9395 47.998 -37.0117 47.4609 -35.3027 L 46.582 -33.0078 L 40.7227 -50.7324 C 39.7949 -53.6133 35.5469 -53.6621 34.2773 -50.6836 L 29.1016 -37.9395 L 22.2656 -37.9395 L 22.2656 -56.3965 C 22.2656 -59.1309 23.5352 -60.2539 26.0742 -60.2539 Z M 26.0742 -10.1562 C 23.5352 -10.1562 22.2656 -11.2793 22.2656 -14.0137 L 22.2656 -31.0547 L 31.4453 -31.0547 C 33.2031 -31.0547 34.2773 -31.9336 35.0098 -33.5938 L 37.3535 -39.4043 L 43.2617 -20.0195 C 44.1406 -17.041 48.7793 -17.041 49.7559 -20.0684 L 53.2227 -31.0547 L 60.1074 -31.0547 C 61.8652 -31.0547 62.9395 -31.9336 63.6719 -33.5938 L 66.2109 -39.4531 L 72.168 -20.0195 C 73.0469 -17.041 77.6367 -17.041 78.6621 -20.0684 L 82.0801 -31.0547 L 89.4043 -31.0547 L 89.4043 -14.0137 C 89.4043 -11.2793 88.0859 -10.1562 85.5469 -10.1562 Z"/>
  </g>
  <g id="Bold-S" transform="matrix(1 0 0 1 2284.41 696)">
   <path d="M 23.6328 1.66016 L 87.5 1.66016 C 96.4844 1.66016 101.367 -3.22266 101.367 -12.1094 L 101.367 -58.3008 C 101.367 -67.1875 96.4844 -72.0703 87.5 -72.0703 L 23.6328 -72.0703 C 14.6973 -72.0703 9.76562 -67.1875 9.76562 -58.3008 L 9.76562 -12.1094 C 9.76562 -3.22266 14.6973 1.66016 23.6328 1.66016 Z M 24.8047 -61.4746 L 86.3281 -61.4746 C 89.209 -61.4746 90.7715 -60.0586 90.7715 -56.9824 L 90.7715 -37.6465 L 81.3477 -37.6465 C 79.5898 -37.6465 78.5156 -36.7676 77.9297 -35.1562 L 76.5625 -31.3965 L 69.873 -51.6602 C 68.9941 -54.3457 65.0391 -54.3945 63.8672 -51.6113 L 58.1543 -37.6465 L 50.6836 -37.6465 C 48.9258 -37.6465 47.8027 -36.7676 47.2656 -35.1562 L 45.8496 -31.3965 L 39.1602 -51.6602 C 38.3301 -54.3457 34.3262 -54.3945 33.1543 -51.6113 L 27.4902 -37.6465 L 20.3613 -37.6465 L 20.3613 -56.9824 C 20.3613 -60.0586 21.9238 -61.4746 24.8047 -61.4746 Z M 24.8047 -8.93555 C 21.9238 -8.93555 20.3613 -10.3516 20.3613 -13.4277 L 20.3613 -31.25 L 29.6387 -31.25 C 31.3965 -31.25 32.373 -32.0801 33.0566 -33.6426 L 36.084 -41.0645 L 42.8223 -19.0918 C 43.6523 -16.3086 47.9492 -16.3574 48.877 -19.1895 L 52.6855 -31.25 L 60.1074 -31.25 C 61.8652 -31.25 62.8418 -32.0801 63.5254 -33.6426 L 66.748 -41.1133 L 73.4863 -19.0918 C 74.3164 -16.3086 78.6621 -16.3574 79.541 -19.1895 L 83.3496 -31.25 L 90.7715 -31.25 L 90.7715 -13.4277 C 90.7715 -10.3516 89.209 -8.93555 86.3281 -8.93555 Z"/>
  </g>
  <g id="Semibold-S" transform="matrix(1 0 0 1 1987.9 696)">
   <path d="M 23.0957 1.17188 L 87.6465 1.17188 C 96.3867 1.17188 100.977 -3.36914 100.977 -12.0117 L 100.977 -58.3984 C 100.977 -67.041 96.3867 -71.582 87.6465 -71.582 L 23.0957 -71.582 C 14.4043 -71.582 9.76562 -67.041 9.76562 -58.3984 L 9.76562 -12.0117 C 9.76562 -3.36914 14.4043 1.17188 23.0957 1.17188 Z M 23.877 -62.3047 L 86.8652 -62.3047 C 89.9902 -62.3047 91.6992 -60.6934 91.6992 -57.4219 L 91.6992 -37.4512 L 82.373 -37.4512 C 80.6152 -37.4512 79.5898 -36.6211 79.0527 -35.0586 L 77.2949 -30.2734 L 70.0684 -52.2949 C 69.2383 -54.8828 65.4297 -54.8828 64.3555 -52.1973 L 58.3008 -37.4512 L 50.4395 -37.4512 C 48.6816 -37.4512 47.6562 -36.5723 47.1191 -35.0586 L 45.3613 -30.2734 L 38.1348 -52.2949 C 37.3047 -54.8828 33.4961 -54.8828 32.4219 -52.1973 L 26.3672 -37.4512 L 19.0918 -37.4512 L 19.0918 -57.4219 C 19.0918 -60.6934 20.752 -62.3047 23.877 -62.3047 Z M 23.877 -8.10547 C 20.752 -8.10547 19.0918 -9.7168 19.0918 -12.9883 L 19.0918 -31.3477 L 28.418 -31.3477 C 30.1758 -31.3477 31.1035 -32.1777 31.7383 -33.6914 L 35.2051 -42.2363 L 42.4805 -18.4082 C 43.2617 -15.8203 47.4121 -15.8691 48.2422 -18.5547 L 52.2949 -31.3477 L 60.1562 -31.3477 C 61.8652 -31.3477 62.793 -32.1777 63.4277 -33.6914 L 67.1387 -42.2363 L 74.4141 -18.4082 C 75.1953 -15.8203 79.3457 -15.8691 80.1758 -18.5547 L 84.2285 -31.3477 L 91.6992 -31.3477 L 91.6992 -12.9883 C 91.6992 -9.7168 89.9902 -8.10547 86.8652 -8.10547 Z"/>
  </g>
  <g id="Medium-S" transform="matrix(1 0 0 1 1691.31 696)">
   <path d="M 22.7051 0.830078 L 87.7441 0.830078 C 96.3379 0.830078 100.732 -3.51562 100.732 -11.9629 L 100.732 -58.4473 C 100.732 -66.8945 96.3379 -71.2402 87.7441 -71.2402 L 22.7051 -71.2402 C 14.209 -71.2402 9.76562 -66.8945 9.76562 -58.4473 L 9.76562 -11.9629 C 9.76562 -3.51562 14.209 0.830078 22.7051 0.830078 Z M 23.1934 -62.9395 L 87.3047 -62.9395 C 90.5762 -62.9395 92.3828 -61.1816 92.3828 -57.7148 L 92.3828 -37.3047 L 83.1055 -37.3047 C 81.3965 -37.3047 80.4688 -36.4746 79.9316 -34.9609 L 77.8809 -29.4434 L 70.166 -52.7832 C 69.3848 -55.2734 65.7715 -55.2246 64.6973 -52.6855 L 58.3984 -37.3047 L 50.2441 -37.3047 C 48.5352 -37.3047 47.5586 -36.4746 47.0215 -34.9609 L 45.0195 -29.4434 L 37.3047 -52.7832 C 36.5234 -55.2734 32.8613 -55.2246 31.8359 -52.6855 L 25.5371 -37.3047 L 18.0664 -37.3047 L 18.0664 -57.7148 C 18.0664 -61.1816 19.9219 -62.9395 23.1934 -62.9395 Z M 23.1934 -7.4707 C 19.9219 -7.4707 18.0664 -9.22852 18.0664 -12.6953 L 18.0664 -31.4453 L 27.4902 -31.4453 C 29.248 -31.4453 30.0781 -32.2754 30.7129 -33.7402 L 34.5215 -43.1152 L 42.2363 -17.9199 C 42.9688 -15.4785 46.9727 -15.4785 47.8027 -18.0664 L 52.002 -31.4453 L 60.1562 -31.4453 C 61.8652 -31.4453 62.7441 -32.2754 63.3789 -33.7402 L 67.3828 -43.1152 L 75.0977 -17.9199 C 75.8789 -15.4785 79.834 -15.4785 80.6641 -18.0664 L 84.8633 -31.4453 L 92.3828 -31.4453 L 92.3828 -12.6953 C 92.3828 -9.22852 90.5762 -7.4707 87.3047 -7.4707 Z"/>
  </g>
  <g id="Regular-S" transform="matrix(1 0 0 1 1394.79 696)">
   <path d="M 22.2168 0.390625 L 87.8906 0.390625 C 96.2402 0.390625 100.342 -3.71094 100.342 -11.9141 L 100.342 -58.4961 C 100.342 -66.6992 96.2402 -70.8008 87.8906 -70.8008 L 22.2168 -70.8008 C 13.916 -70.8008 9.76562 -66.6992 9.76562 -58.4961 L 9.76562 -11.9141 C 9.76562 -3.71094 13.916 0.390625 22.2168 0.390625 Z M 22.3145 -63.7207 L 87.793 -63.7207 C 91.3086 -63.7207 93.3105 -61.8164 93.3105 -58.1543 L 93.3105 -37.1094 L 84.1309 -37.1094 C 82.4219 -37.1094 81.543 -36.2793 81.0059 -34.8633 L 78.6133 -28.3203 L 70.3613 -53.418 C 69.6289 -55.7617 66.1621 -55.7129 65.1855 -53.3203 L 58.5449 -37.1094 L 50 -37.1094 C 48.291 -37.1094 47.4121 -36.2793 46.9238 -34.8633 L 44.5312 -28.3203 L 36.2793 -53.418 C 35.498 -55.7617 32.0312 -55.7129 31.0547 -53.3203 L 24.4141 -37.1094 L 16.7969 -37.1094 L 16.7969 -58.1543 C 16.7969 -61.8164 18.7988 -63.7207 22.3145 -63.7207 Z M 22.3145 -6.68945 C 18.7988 -6.68945 16.7969 -8.54492 16.7969 -12.2559 L 16.7969 -31.543 L 26.2695 -31.543 C 27.9785 -31.543 28.8086 -32.373 29.3945 -33.7891 L 33.6426 -44.2383 L 41.9434 -17.2852 C 42.627 -14.9902 46.4355 -15.0391 47.168 -17.4316 L 51.6113 -31.543 L 60.1562 -31.543 C 61.8652 -31.543 62.6953 -32.373 63.2812 -33.7891 L 67.7734 -44.2383 L 76.0254 -17.2852 C 76.7578 -14.9902 80.5176 -15.0391 81.2988 -17.4316 L 85.7422 -31.543 L 93.3105 -31.543 L 93.3105 -12.2559 C 93.3105 -8.54492 91.3086 -6.68945 87.793 -6.68945 Z"/>
  </g>
  <g id="Light-S" transform="matrix(1 0 0 1 1098.42 696)">
   <path d="M 21.3867 -0.292969 L 88.0371 -0.292969 C 95.752 -0.292969 99.6582 -4.15039 99.6582 -11.7676 L 99.6582 -58.5938 C 99.6582 -66.2109 95.752 -70.1172 88.0371 -70.1172 L 21.3867 -70.1172 C 13.6719 -70.1172 9.76562 -66.2598 9.76562 -58.5938 L 9.76562 -11.7676 C 9.76562 -4.15039 13.6719 -0.292969 21.3867 -0.292969 Z M 21.4844 -64.6973 L 87.9395 -64.6973 C 91.9434 -64.6973 94.2383 -62.5 94.2383 -58.3008 L 94.2383 -36.5234 L 85.4004 -36.5234 C 83.9844 -36.5234 83.252 -35.8398 82.8125 -34.6191 L 79.5898 -25.3906 L 70.166 -53.8574 C 69.5801 -55.7129 66.748 -55.7617 65.918 -53.7598 L 58.8379 -36.5234 L 49.4141 -36.5234 C 47.998 -36.5234 47.2656 -35.8398 46.8262 -34.6191 L 43.6035 -25.3906 L 34.1797 -53.8574 C 33.5449 -55.7129 30.7617 -55.7617 29.9316 -53.7598 L 22.8516 -36.5234 L 15.1855 -36.5234 L 15.1855 -58.3008 C 15.1855 -62.5 17.4316 -64.6973 21.4844 -64.6973 Z M 21.4844 -5.71289 C 17.4316 -5.71289 15.1855 -7.86133 15.1855 -12.0605 L 15.1855 -32.0801 L 24.1699 -32.0801 C 25.5859 -32.0801 26.2695 -32.7148 26.8066 -34.0332 L 32.0801 -46.8262 L 41.5039 -17.041 C 42.0898 -15.1367 45.166 -15.1855 45.8008 -17.1387 L 50.5859 -32.0801 L 60.0098 -32.0801 C 61.4258 -32.0801 62.1094 -32.7148 62.5977 -34.0332 L 68.0664 -46.8262 L 77.4902 -17.041 C 78.0762 -15.1367 81.1523 -15.1855 81.7871 -17.1387 L 86.5723 -32.0801 L 94.2383 -32.0801 L 94.2383 -12.0605 C 94.2383 -7.86133 91.9434 -5.71289 87.9395 -5.71289 Z"/>
  </g>
  <g id="Thin-S" transform="matrix(1 0 0 1 802.174 696)">
   <path d="M 20.3125 -1.12305 L 88.1836 -1.12305 C 95.1172 -1.12305 98.7305 -4.78516 98.7305 -11.6211 L 98.7305 -58.6914 C 98.7305 -65.5762 95.1172 -69.2383 88.1836 -69.2383 L 20.3125 -69.2383 C 13.3789 -69.2383 9.76562 -65.625 9.76562 -58.6914 L 9.76562 -11.6211 C 9.76562 -4.6875 13.3789 -1.12305 20.3125 -1.12305 Z M 20.4102 -65.918 L 88.0859 -65.918 C 92.7246 -65.918 95.4102 -63.3789 95.4102 -58.5449 L 95.4102 -35.7422 L 87.1582 -35.7422 C 86.1328 -35.7422 85.498 -35.2539 85.1562 -34.2773 L 80.8594 -21.4844 L 69.9219 -54.3945 C 69.4824 -55.6641 67.4805 -55.8105 66.8945 -54.3457 L 59.2285 -35.7422 L 48.6816 -35.7422 C 47.6562 -35.7422 47.0215 -35.2539 46.7285 -34.2773 L 42.3828 -21.4844 L 31.4453 -54.3945 C 31.0059 -55.6641 29.0039 -55.8105 28.418 -54.3457 L 20.752 -35.7422 L 13.0859 -35.7422 L 13.0859 -58.5449 C 13.0859 -63.3789 15.625 -65.918 20.4102 -65.918 Z M 20.4102 -4.44336 C 15.625 -4.44336 13.0859 -6.93359 13.0859 -11.8164 L 13.0859 -32.8125 L 21.3867 -32.8125 C 22.4121 -32.8125 22.9004 -33.2031 23.3398 -34.3262 L 29.9805 -50.1953 L 40.9668 -16.748 C 41.4062 -15.3809 43.5059 -15.4297 43.9941 -16.7969 L 49.2188 -32.8125 L 59.8145 -32.8125 C 60.8398 -32.8125 61.2793 -33.2031 61.7676 -34.3262 L 68.457 -50.1953 L 79.4434 -16.748 C 79.8828 -15.3809 81.9824 -15.4297 82.4219 -16.7969 L 87.6953 -32.8125 L 95.4102 -32.8125 L 95.4102 -11.8164 C 95.4102 -6.93359 92.7246 -4.44336 88.0859 -4.44336 Z"/>
  </g>
  <g id="Ultralight-S" transform="matrix(1 0 0 1 505.707 696)">
   <path d="M 19.7754 -1.5625 L 88.2812 -1.5625 C 94.8242 -1.5625 98.2422 -5.12695 98.2422 -11.5234 L 98.2422 -58.7891 C 98.2422 -65.2344 94.8242 -68.75 88.2812 -68.75 L 19.7754 -68.75 C 13.2324 -68.75 9.76562 -65.2832 9.76562 -58.7891 L 9.76562 -11.5234 C 9.76562 -5.0293 13.2324 -1.5625 19.7754 -1.5625 Z M 19.873 -66.5527 L 88.1836 -66.5527 C 93.1641 -66.5527 96.0449 -63.8672 96.0449 -58.6426 L 96.0449 -35.3516 L 88.0371 -35.3516 C 87.207 -35.3516 86.6699 -34.9121 86.377 -34.1309 L 81.4941 -19.4336 L 69.7754 -54.6875 C 69.4336 -55.6152 67.8711 -55.8594 67.4316 -54.6875 L 59.4238 -35.3516 L 48.291 -35.3516 C 47.4609 -35.3516 46.9238 -34.9121 46.6309 -34.1309 L 41.748 -19.4336 L 30.0293 -54.6875 C 29.6875 -55.6152 28.125 -55.8594 27.6855 -54.6875 L 19.6777 -35.3516 L 11.9629 -35.3516 L 11.9629 -58.6426 C 11.9629 -63.8672 14.6484 -66.5527 19.873 -66.5527 Z M 19.873 -3.75977 C 14.6484 -3.75977 11.9629 -6.44531 11.9629 -11.6699 L 11.9629 -33.2031 L 19.9707 -33.2031 C 20.8008 -33.2031 21.1426 -33.4473 21.582 -34.4727 L 28.9062 -51.9531 L 40.6738 -16.6016 C 41.0645 -15.4785 42.6758 -15.5273 43.0176 -16.6016 L 48.4863 -33.2031 L 59.7168 -33.2031 C 60.498 -33.2031 60.8887 -33.4473 61.3281 -34.4727 L 68.6523 -51.9531 L 80.4199 -16.6016 C 80.8105 -15.4785 82.4219 -15.5273 82.7637 -16.6016 L 88.2324 -33.2031 L 96.0449 -33.2031 L 96.0449 -11.6699 C 96.0449 -6.44531 93.1641 -3.75977 88.1836 -3.75977 Z"/>
  </g>
 </g>
</svg>
